STARTFONT 2.1
COMMENT
COMMENT Converted from OpenType font "hindsight-unicode-regular.TTF" by "otf2bdf 3.0".
COMMENT
FONT -FreeType-Hindsight Unicode-Medium-R-Normal--55-400-100-100-P-279-ISO10646-1
SIZE 40 100 100
FONTBOUNDINGBOX 123 66 -42 -14
STARTPROPERTIES 19
FOUNDRY "FreeType"
FAMILY_NAME "Hindsight Unicode"
WEIGHT_NAME "Medium"
SLANT "R"
SETWIDTH_NAME "Normal"
ADD_STYLE_NAME ""
PIXEL_SIZE 55
POINT_SIZE 400
RESOLUTION_X 100
RESOLUTION_Y 100
SPACING "P"
AVERAGE_WIDTH 279
CHARSET_REGISTRY "ISO10646"
CHARSET_ENCODING "1"
FONT_ASCENT 50
FONT_DESCENT 11
COPYRIGHT "Hindsight Unicode � Starving-4 Entertainment. 2000, 2001. This font is licensed under the terms of the Design Science Licence: http://dsl.org/copyleft/dsl.txt"
_OTF_FONTFILE "hindsight-unicode-regular.TTF"
_OTF_PSNAME "HindsightUnicode"
ENDPROPERTIES
CHARS 3032
STARTCHAR 0020
ENCODING 32
SWIDTH 378 0
DWIDTH 21 0
BBX 0 0 0 0
BITMAP
ENDCHAR
STARTCHAR 0021
ENCODING 33
SWIDTH 252 0
DWIDTH 14 0
BBX 8 41 0 0
BITMAP
FF
FF
FF
FF
FF
7F
7F
7F
7E
7E
7E
7E
7E
7E
7E
7E
3E
3E
3E
3C
3C
3C
3C
3C
3C
3C
3C
1C
1C
1C
00
00
00
7E
7F
FF
FF
FF
FF
7F
3C
ENDCHAR
STARTCHAR 0022
ENCODING 34
SWIDTH 324 0
DWIDTH 18 0
BBX 14 11 0 30
BITMAP
F8FC
F8F8
78F8
78F8
78F8
78F0
38F0
38F0
38F0
38E0
18E0
ENDCHAR
STARTCHAR 0023
ENCODING 35
SWIDTH 468 0
DWIDTH 26 0
BBX 22 41 0 0
BITMAP
00E01C
00E01C
00C018
01C038
01C038
01C038
01C038
018030
038070
038070
038070
1FFFFC
1FFFFC
1FFFFC
0700E0
0700E0
0700E0
0600C0
0E01C0
0E01C0
0E01C0
0E01C0
0C0180
1C0380
1C0380
1C0380
1C0380
FFFFE0
FFFFE0
FFFFE0
380700
380700
300600
700E00
700E00
700E00
700E00
600C00
E01C00
E01C00
E01C00
ENDCHAR
STARTCHAR 0024
ENCODING 36
SWIDTH 558 0
DWIDTH 31 0
BBX 27 47 0 -3
BITMAP
000E0000
000E0000
000E0000
000E0000
000E0000
000E0000
01FFF000
0FFFFC00
1FFFFF00
3F0E3F80
7E0E0FC0
7C0E07C0
FC0E07E0
FC0E07E0
F80E03E0
F80E03E0
FC0E03E0
FC0E0000
7C0E0000
7E0E0000
3F0E0000
3FCE0000
0FFFC000
07FFFC00
007FFF00
000E3F80
000E1FC0
000E0FC0
000E07E0
000E07E0
F80E03E0
FC0E03E0
FC0E03E0
FC0E03E0
7C0E03E0
7E0E07E0
3F0E0FC0
3F8E1FC0
1FFFFF80
07FFFE00
01FFF800
000E0000
000E0000
000E0000
000E0000
000E0000
000E0000
ENDCHAR
STARTCHAR 0025
ENCODING 37
SWIDTH 558 0
DWIDTH 31 0
BBX 27 41 0 0
BITMAP
0FC000E0
3FE001C0
7FF003C0
78F80380
F8780780
F0780700
F07C0F00
F03C0E00
F03C1C00
F03C3C00
F07C3800
F0787800
78787000
7DF8E000
3FF1E000
1FE1C000
0003C000
00038000
00078000
00070000
000E0000
001E0000
001C0000
003C0000
00380000
00707F00
00F0FF80
00E1F7C0
01E3E3E0
01C3C1E0
03C3C1E0
0383C1E0
0703C1E0
0F03C1E0
0E03C1E0
1E03C1E0
1C03C1E0
3803E3E0
7801FFC0
7000FF80
F0003E00
ENDCHAR
STARTCHAR 0026
ENCODING 38
SWIDTH 558 0
DWIDTH 31 0
BBX 27 41 0 0
BITMAP
00FF8000
07FFF000
1FFFF800
3F807C00
7E001E00
7E000F00
FC000700
FC000700
FC000300
F8000380
F8000380
F8000000
FC000000
FC000000
FC000000
FC000000
7E000000
7F000000
3F800000
1FF00000
07F00000
1FF00000
3F80FFE0
7F00FFE0
7E00FFE0
FC001F80
FC0007C0
FC0007E0
FC0007E0
F80003E0
F80003E0
F80003E0
FC0003E0
FC0003E0
7C0007E0
7E0007E0
3F000FC0
3F803F80
1FFFFF00
07FFFE00
007FE000
ENDCHAR
STARTCHAR 0027
ENCODING 39
SWIDTH 162 0
DWIDTH 9 0
BBX 5 11 0 30
BITMAP
F8
F8
F8
F0
F0
F0
F0
E0
E0
E0
E0
ENDCHAR
STARTCHAR 0028
ENCODING 40
SWIDTH 288 0
DWIDTH 16 0
BBX 12 47 0 -3
BITMAP
0030
01F0
03F0
07C0
0F80
1F00
1F00
3E00
3E00
3E00
7E00
7C00
7C00
7C00
7C00
FC00
FC00
FC00
FC00
FC00
F800
F800
F800
F800
F800
F800
F800
FC00
FC00
FC00
FC00
FC00
7C00
7C00
7C00
7C00
7C00
3E00
3E00
3E00
1F00
1F00
0F80
07C0
03F0
01F0
0030
ENDCHAR
STARTCHAR 0029
ENCODING 41
SWIDTH 288 0
DWIDTH 16 0
BBX 12 47 0 -3
BITMAP
C000
F800
FC00
3E00
1F00
0F80
0F80
07C0
07C0
03E0
03E0
03E0
03E0
03F0
03F0
03F0
01F0
01F0
01F0
01F0
01F0
01F0
01F0
01F0
01F0
01F0
01F0
01F0
01F0
01F0
01F0
03F0
03F0
03F0
03E0
03E0
03E0
03E0
07C0
07C0
0F80
0F80
1F00
3E00
FC00
F800
C000
ENDCHAR
STARTCHAR 002A
ENCODING 42
SWIDTH 414 0
DWIDTH 23 0
BBX 20 19 0 22
BITMAP
00F000
00F000
00F000
00F000
00F000
60F060
7CF3E0
FFFFE0
FFFFF0
1FFF80
03FC00
03F800
03FC00
07BE00
0F9F00
1F0F00
1E0780
0E0700
040200
ENDCHAR
STARTCHAR 002B
ENCODING 43
SWIDTH 522 0
DWIDTH 29 0
BBX 25 25 0 8
BITMAP
001C0000
001C0000
001C0000
001C0000
001C0000
001C0000
001C0000
001C0000
001C0000
001C0000
001C0000
FFFFFF80
FFFFFF80
FFFFFF80
001C0000
001C0000
001C0000
001C0000
001C0000
001C0000
001C0000
001C0000
001C0000
001C0000
001C0000
ENDCHAR
STARTCHAR 002C
ENCODING 44
SWIDTH 216 0
DWIDTH 12 0
BBX 8 13 0 -5
BITMAP
7E
7F
FF
FF
FF
FF
7F
3F
07
07
07
0E
3C
ENDCHAR
STARTCHAR 002D
ENCODING 45
SWIDTH 648 0
DWIDTH 36 0
BBX 16 3 8 19
BITMAP
FFFF
FFFF
FFFF
ENDCHAR
STARTCHAR 002E
ENCODING 46
SWIDTH 216 0
DWIDTH 12 0
BBX 8 8 0 0
BITMAP
7E
7F
FF
FF
FF
FF
7F
3C
ENDCHAR
STARTCHAR 002F
ENCODING 47
SWIDTH 558 0
DWIDTH 31 0
BBX 27 41 0 0
BITMAP
000000E0
000001C0
000003C0
00000380
00000780
00000700
00000F00
00000E00
00001C00
00003C00
00003800
00007800
00007000
0000E000
0001E000
0001C000
0003C000
00038000
00078000
00070000
000E0000
001E0000
001C0000
003C0000
00380000
00700000
00F00000
00E00000
01E00000
01C00000
03C00000
03800000
07000000
0F000000
0E000000
1E000000
1C000000
38000000
78000000
70000000
F0000000
ENDCHAR
STARTCHAR 0030
ENCODING 48
SWIDTH 558 0
DWIDTH 31 0
BBX 27 41 0 0
BITMAP
00FFE000
07FFFC00
1FFFFF00
3F803F80
3F000FC0
7E0007C0
7C0007E0
FC0003E0
FC0003E0
FC0003E0
F80003E0
F80003E0
F80003E0
F80003E0
F80003E0
F80003E0
F80003E0
F80003E0
F80003E0
F80003E0
F80003E0
F80003E0
F80003E0
F80003E0
F80003E0
F80003E0
F80003E0
F80003E0
F80003E0
F80003E0
F80003E0
F80003E0
FC0003E0
FC0003E0
7C0007E0
7E0007C0
3F000FC0
3F803F80
1FFFFF00
07FFFC00
007FE000
ENDCHAR
STARTCHAR 0031
ENCODING 49
SWIDTH 558 0
DWIDTH 31 0
BBX 14 41 7 0
BITMAP
0080
0180
0780
1F80
3F80
FF80
FF80
FF80
CF80
0F80
0F80
0F80
0F80
0F80
0F80
0F80
0F80
0F80
0F80
0F80
0F80
0F80
0F80
0F80
0F80
0F80
0F80
0F80
0F80
0F80
0F80
0F80
0F80
0F80
0F80
0F80
0F80
0F80
FFFC
FFFC
FFFC
ENDCHAR
STARTCHAR 0032
ENCODING 50
SWIDTH 558 0
DWIDTH 31 0
BBX 27 41 0 0
BITMAP
E07FE000
E1FFFC00
E3FFFF00
F7803F80
FF000FC0
FE0007C0
FC0007E0
FC0003E0
FC0003E0
FC0003E0
F80003E0
000003E0
000003E0
000003E0
000007E0
000007C0
00000FC0
00001F80
00007F00
007FFE00
03FFF800
0FFFC000
1FC00000
3F000000
7E000000
7E000000
7C000000
FC000000
FC000000
FC000000
F8000000
F8000000
F8000000
F8000000
F80000E0
F80000E0
F80001E0
F80003E0
FFFFFFE0
FFFFFFE0
FFFFFFE0
ENDCHAR
STARTCHAR 0033
ENCODING 51
SWIDTH 558 0
DWIDTH 31 0
BBX 27 41 0 0
BITMAP
FFFFFFE0
FFFFFFE0
FFFFFFE0
F8000FE0
F0001FC0
F0003F80
E0007F00
00007E00
0000FE00
0001FC00
0003F800
0007F000
0007E000
000FE000
001FC000
003F8000
007F0000
007FF800
00FFFE00
01F0FF00
03C01F80
03800FC0
00000FC0
000007E0
000007E0
000003E0
000003E0
000003E0
000003E0
000003E0
F80003E0
FC0003E0
FC0007E0
FC0007E0
7C0007C0
7E000FC0
3F001F80
1F803F00
0FFFFE00
07FFFC00
00FFE000
ENDCHAR
STARTCHAR 0034
ENCODING 52
SWIDTH 558 0
DWIDTH 31 0
BBX 27 41 0 0
BITMAP
00000E00
00001E00
00003E00
00003E00
00007E00
0000FE00
0001FE00
0003FE00
0007BE00
00073E00
000E3E00
001C3E00
003C3E00
00783E00
00F03E00
00E03E00
01C03E00
03803E00
07803E00
0F003E00
1E003E00
1C003E00
38003E00
70003E00
F0003E00
FFFFFFE0
FFFFFFE0
00003E00
00003E00
00003E00
00003E00
00003E00
00003E00
00003E00
00003E00
00003E00
00003E00
00003E00
0003FFE0
0003FFE0
0003FFE0
ENDCHAR
STARTCHAR 0035
ENCODING 53
SWIDTH 558 0
DWIDTH 31 0
BBX 27 41 0 0
BITMAP
7FFFFFC0
7FFFFFC0
7FFFFFC0
7E0007C0
7E0003C0
7E0003C0
7E0001C0
7E000000
7C000000
7C000000
7C000000
7C000000
7C000000
7C000000
7C000000
FC000000
FC0E0000
FDFFF800
FFFFFE00
FFC0FF00
FE001F80
F8000FC0
F0000FC0
E00007E0
E00007E0
000003E0
000003E0
000003E0
000003E0
000003E0
000003E0
E00003E0
E00007E0
E00007E0
E00007C0
70000FC0
78001F80
3F003F00
1FFFFE00
07FFFC00
00FFE000
ENDCHAR
STARTCHAR 0036
ENCODING 54
SWIDTH 558 0
DWIDTH 31 0
BBX 27 41 0 0
BITMAP
00FFE000
07FFFC00
1FFFFF00
3F803F80
3F000FC0
7E0007C0
7C0007E0
FC0003E0
FC0003E0
FC0003E0
F8000000
F8000000
F8000000
F8000000
F8000000
F8000000
F8060000
F83FF800
F8FFFE00
F9E0FF00
FB801F80
FB000FC0
FE000FC0
FC0007E0
FC0007E0
FC0003E0
FC0003E0
FC0003E0
F80003E0
F80003E0
FC0003E0
FC0003E0
FC0007E0
7C0007E0
7E0007C0
7E000FC0
3F001F80
1FC03F00
0FFFFE00
03FFFC00
007FE000
ENDCHAR
STARTCHAR 0037
ENCODING 55
SWIDTH 558 0
DWIDTH 31 0
BBX 27 41 0 0
BITMAP
FFFFFFE0
FFFFFFE0
FFFFFFE0
F80007E0
F0000FE0
F0000FC0
E0001FC0
00001F80
00003F80
00003F00
00007F00
00007E00
0000FE00
0000FC00
0001FC00
0001F800
0003F800
0003F000
0007F000
0007E000
000FE000
000FC000
001FC000
001F8000
003F8000
003F0000
007F0000
007E0000
00FE0000
00FC0000
01FC0000
01F80000
03F80000
03F80000
07F00000
07F00000
0FE00000
0FE00000
1FC00000
1FC00000
3F800000
ENDCHAR
STARTCHAR 0038
ENCODING 56
SWIDTH 558 0
DWIDTH 31 0
BBX 27 41 0 0
BITMAP
007FC000
03FFF800
07FFFE00
0FC07F00
1F801F00
3F001F80
3F000F80
3E000FC0
3E000FC0
7E000FC0
7E0007C0
7E000FC0
7E000FC0
3E000FC0
3E000F80
3F001F80
1F803F00
0FF1FE00
03FFF800
03FFF800
0FFBFE00
1F803F80
3F001F80
7E000FC0
7C0007C0
7C0007E0
FC0003E0
FC0003E0
FC0003E0
F80003E0
F80003E0
FC0003E0
FC0003E0
FC0007E0
7C0007E0
7E000FC0
3F001FC0
1F803F80
0FFFFF00
07FFFC00
00FFE000
ENDCHAR
STARTCHAR 0039
ENCODING 57
SWIDTH 558 0
DWIDTH 31 0
BBX 27 41 0 0
BITMAP
007FE000
03FFFC00
0FFFFE00
1FC03F00
3F001F80
7E000FC0
7E0007C0
7C0007E0
FC0007E0
FC0003E0
FC0003E0
F80003E0
F80003E0
FC0003E0
FC0003E0
FC0003E0
FC0007E0
7C0007E0
7E000FE0
3F000BE0
3F801BE0
1FE0F3E0
07FFF3E0
01FFC3E0
000C03E0
000003E0
000003E0
000003E0
000003E0
000003E0
000003E0
F80003E0
FC0003E0
FC0003E0
7C0007E0
7E0007C0
3F000FC0
3F803F80
1FFFFF00
07FFFC00
007FE000
ENDCHAR
STARTCHAR 003A
ENCODING 58
SWIDTH 216 0
DWIDTH 12 0
BBX 8 27 0 0
BITMAP
7E
FF
FF
FF
FF
FF
7E
3C
00
00
00
00
00
00
00
00
00
00
00
7E
7F
FF
FF
FF
FF
7F
3C
ENDCHAR
STARTCHAR 003B
ENCODING 59
SWIDTH 216 0
DWIDTH 12 0
BBX 8 32 0 -5
BITMAP
7E
FF
FF
FF
FF
FF
7E
3C
00
00
00
00
00
00
00
00
00
00
00
7E
7F
FF
FF
FF
FF
7F
3F
07
07
07
0E
3C
ENDCHAR
STARTCHAR 003C
ENCODING 60
SWIDTH 522 0
DWIDTH 29 0
BBX 24 21 0 10
BITMAP
000007
00001C
0000F8
0003E0
000F80
003F00
00FC00
03F000
0FC000
3F8000
FE0000
3F8000
0FC000
03F000
00FC00
003F00
000F80
0003E0
000078
00001C
000007
ENDCHAR
STARTCHAR 003D
ENCODING 61
SWIDTH 522 0
DWIDTH 29 0
BBX 25 13 0 14
BITMAP
FFFFFF80
FFFFFF80
00000000
00000000
00000000
00000000
00000000
00000000
00000000
00000000
00000000
FFFFFF80
FFFFFF80
ENDCHAR
STARTCHAR 003E
ENCODING 62
SWIDTH 522 0
DWIDTH 29 0
BBX 25 21 0 10
BITMAP
F0000000
3C000000
0F000000
03C00000
01F00000
007C0000
001F0000
0007C000
0003F800
0000FE00
00003F80
0000FE00
0003F000
0007C000
001F0000
007C0000
01F00000
03C00000
0F000000
3C000000
F0000000
ENDCHAR
STARTCHAR 003F
ENCODING 63
SWIDTH 558 0
DWIDTH 31 0
BBX 27 41 0 0
BITMAP
E07FE000
E1FFFC00
E3FFFF00
F7803F80
FF001FC0
FE000FC0
FC0007E0
FC0007E0
FC0003E0
FC0003E0
000003E0
000003E0
000003E0
000003E0
000003E0
000007E0
000007C0
000007C0
00000F80
0001FF80
0007FE00
000FF800
001E0000
001C0000
001C0000
00380000
00380000
00380000
00380000
00000000
00000000
00000000
00000000
007C0000
00FE0000
00FF0000
00FF0000
00FF0000
00FF0000
00FE0000
007C0000
ENDCHAR
STARTCHAR 0040
ENCODING 64
SWIDTH 594 0
DWIDTH 33 0
BBX 29 41 0 0
BITMAP
003FC000
00FFF800
03FFFE00
07C01F00
0F000780
1E000380
1C0001C0
380001C0
381E1CE0
707F9CE0
70FF9C70
71F9FC70
71F0FC70
E3F0FC70
E3E0FC30
E3E0FC30
E3E0FC38
E3E0FC38
E7E0FC38
E7E0FC38
E7E0FC38
E7E0FC38
E3E0FC38
E3E0FC38
E3E0FC38
E3E0FC30
E3E0FC30
63F0FC70
61F0FC70
71F9FCE0
70FFFFE0
707F9FC0
381F0780
38000000
1C000000
1E0001C0
0F0001C0
07C00780
03FFFF00
00FFFE00
003FF000
ENDCHAR
STARTCHAR 0041
ENCODING 65
SWIDTH 612 0
DWIDTH 34 0
BBX 30 41 0 0
BITMAP
00038000
00078000
00078000
00078000
0007C000
000FC000
000FC000
000FC000
000FE000
001FE000
001FE000
001BE000
001BF000
003BF000
0039F000
0031F000
0031F800
0071F800
0070F800
0070F800
0060FC00
00E0FC00
00E07C00
00E07C00
00C07E00
01C07E00
01C07E00
01C03E00
01803F00
03FFFF00
03FFFF00
03FFFF00
03001F80
07001F80
07000F80
07000F80
06000FC0
0E000FC0
FFE0FFFC
FFE0FFFC
FFE0FFFC
ENDCHAR
STARTCHAR 0042
ENCODING 66
SWIDTH 558 0
DWIDTH 31 0
BBX 27 41 0 0
BITMAP
FFFFE000
FFFFF800
FFFFFE00
0FC07F00
0FC01F80
0FC00F80
0FC00FC0
0FC00FC0
0FC00FC0
0FC007C0
0FC00FC0
0FC00FC0
0FC00FC0
0FC00F80
0FC01F80
0FC03F00
0FFFFE00
0FFFF800
0FFFFE00
0FC0FF00
0FC01F80
0FC00FC0
0FC00FC0
0FC007E0
0FC007E0
0FC003E0
0FC003E0
0FC003E0
0FC003E0
0FC003E0
0FC003E0
0FC003E0
0FC007E0
0FC007E0
0FC007C0
0FC00FC0
0FC01F80
0FC03F00
FFFFFE00
FFFFFC00
FFFFE000
ENDCHAR
STARTCHAR 0043
ENCODING 67
SWIDTH 558 0
DWIDTH 31 0
BBX 27 41 0 0
BITMAP
003FC0E0
01FFF8E0
03FFFCE0
07E03EE0
0F801FE0
1F000FE0
1F0007E0
3E0007E0
3E0003E0
7E0003E0
7C0003E0
7C000000
7C000000
FC000000
FC000000
FC000000
FC000000
FC000000
F8000000
F8000000
F8000000
F8000000
F8000000
FC000000
FC000000
FC000000
FC000000
FC000000
7C000000
7C000000
7E000060
7E000060
3E0000E0
3F0000E0
1F0000E0
1F8001C0
0FC003C0
07E00F80
03FFFF00
01FFFC00
003FE000
ENDCHAR
STARTCHAR 0044
ENCODING 68
SWIDTH 558 0
DWIDTH 31 0
BBX 27 41 0 0
BITMAP
FFFFC000
FFFFF000
FFFFFC00
0FC07E00
0FC03E00
0FC01F00
0FC01F80
0FC00F80
0FC00FC0
0FC007C0
0FC007C0
0FC007C0
0FC007E0
0FC007E0
0FC003E0
0FC003E0
0FC003E0
0FC003E0
0FC003E0
0FC003E0
0FC003E0
0FC003E0
0FC003E0
0FC003E0
0FC003E0
0FC003E0
0FC003E0
0FC007E0
0FC007E0
0FC007C0
0FC007C0
0FC007C0
0FC00FC0
0FC00F80
0FC01F80
0FC01F00
0FC03E00
0FC07E00
FFFFFC00
FFFFF000
FFFFC000
ENDCHAR
STARTCHAR 0045
ENCODING 69
SWIDTH 558 0
DWIDTH 31 0
BBX 27 41 0 0
BITMAP
FFFFFFE0
FFFFFFE0
FFFFFFE0
0FC000E0
0FC000E0
0FC000E0
0FC000E0
0FC00000
0FC00000
0FC00000
0FC00000
0FC00000
0FC00000
0FC00000
0FC00000
0FC00000
0FC00000
0FC00000
0FC00000
0FFFF800
0FFFF800
0FFFF800
0FC00000
0FC00000
0FC00000
0FC00000
0FC00000
0FC00000
0FC00000
0FC00000
0FC00000
0FC00000
0FC00000
0FC00000
0FC000E0
0FC000E0
0FC000E0
0FC001E0
FFFFFFE0
FFFFFFE0
FFFFFFE0
ENDCHAR
STARTCHAR 0046
ENCODING 70
SWIDTH 558 0
DWIDTH 31 0
BBX 27 41 0 0
BITMAP
FFFFFFE0
FFFFFFE0
FFFFFFE0
0FC000E0
0FC000E0
0FC000E0
0FC000E0
0FC00000
0FC00000
0FC00000
0FC00000
0FC00000
0FC00000
0FC00000
0FC00000
0FC00000
0FC00000
0FC00000
0FC00000
0FFFF800
0FFFF800
0FFFF800
0FC00000
0FC00000
0FC00000
0FC00000
0FC00000
0FC00000
0FC00000
0FC00000
0FC00000
0FC00000
0FC00000
0FC00000
0FC00000
0FC00000
0FC00000
0FC00000
FFFC0000
FFFC0000
FFFC0000
ENDCHAR
STARTCHAR 0047
ENCODING 71
SWIDTH 558 0
DWIDTH 31 0
BBX 27 41 0 0
BITMAP
003FC0E0
01FFF8E0
03FFFCE0
07E03EE0
0F801FE0
1F000FE0
1F0007E0
3E0007E0
3E0003E0
7E0003E0
7C0003E0
7C000000
7C000000
FC000000
FC000000
FC000000
FC000000
FC000000
F8000000
F80FFFE0
F80FFFE0
F80FFFE0
F80003E0
FC0003E0
FC0003E0
FC0003E0
FC0003E0
FC0003E0
7C0003E0
7C0003E0
7C0003E0
7E0007E0
3E0007E0
3E0007C0
1F000FC0
1F000FC0
0F801F80
07E07F00
03FFFE00
01FFF800
003FC000
ENDCHAR
STARTCHAR 0048
ENCODING 72
SWIDTH 648 0
DWIDTH 36 0
BBX 31 41 0 0
BITMAP
FFFC3FFE
FFFC3FFE
FFFC3FFE
0FC003E0
0FC003E0
0FC003E0
0FC003E0
0FC003E0
0FC003E0
0FC003E0
0FC003E0
0FC003E0
0FC003E0
0FC003E0
0FC003E0
0FC003E0
0FC003E0
0FC003E0
0FC003E0
0FFFFFE0
0FFFFFE0
0FFFFFE0
0FC003E0
0FC003E0
0FC003E0
0FC003E0
0FC003E0
0FC003E0
0FC003E0
0FC003E0
0FC003E0
0FC003E0
0FC003E0
0FC003E0
0FC003E0
0FC003E0
0FC003E0
0FC003E0
FFFC3FFE
FFFC3FFE
FFFC3FFE
ENDCHAR
STARTCHAR 0049
ENCODING 73
SWIDTH 324 0
DWIDTH 18 0
BBX 14 41 0 0
BITMAP
FFFC
FFFC
FFFC
0FC0
0FC0
0FC0
0FC0
0FC0
0FC0
0FC0
0FC0
0FC0
0FC0
0FC0
0FC0
0FC0
0FC0
0FC0
0FC0
0FC0
0FC0
0FC0
0FC0
0FC0
0FC0
0FC0
0FC0
0FC0
0FC0
0FC0
0FC0
0FC0
0FC0
0FC0
0FC0
0FC0
0FC0
0FC0
FFFC
FFFC
FFFC
ENDCHAR
STARTCHAR 004A
ENCODING 74
SWIDTH 558 0
DWIDTH 31 0
BBX 27 41 0 0
BITMAP
0003FFE0
0003FFE0
0003FFE0
00003E00
00003E00
00003E00
00003E00
00003E00
00003E00
00003E00
00003E00
00003E00
00003E00
00003E00
00003E00
00003E00
00003E00
00003E00
00003E00
00003E00
00003E00
00003E00
00003E00
00003E00
00003E00
00003E00
00003E00
00003E00
00003E00
00003E00
F8003E00
FC003E00
FC003E00
FC007E00
7C007E00
7E007C00
7E00FC00
3F01F800
1FFFF000
07FFE000
01FF0000
ENDCHAR
STARTCHAR 004B
ENCODING 75
SWIDTH 558 0
DWIDTH 31 0
BBX 27 41 0 0
BITMAP
FFF0FFE0
FFF0FFE0
FFF0FFE0
1F801E00
1F801C00
1F803800
1F807800
1F807000
1F80E000
1F81C000
1F83C000
1F838000
1F870000
1F8F0000
1F8E0000
1F9C0000
1FBC0000
1FF80000
1FF80000
1FFC0000
1FFC0000
1FFE0000
1FFE0000
1FFF0000
1FBF0000
1F9F8000
1F9FC000
1F8FC000
1F8FE000
1F87E000
1F87F000
1F83F800
1F81F800
1F81FC00
1F80FC00
1F80FE00
1F807F00
1F807F00
FFF1FFE0
FFF1FFE0
FFF1FFE0
ENDCHAR
STARTCHAR 004C
ENCODING 76
SWIDTH 558 0
DWIDTH 31 0
BBX 27 41 0 0
BITMAP
FFFC0000
FFFC0000
FFFC0000
0FC00000
0FC00000
0FC00000
0FC00000
0FC00000
0FC00000
0FC00000
0FC00000
0FC00000
0FC00000
0FC00000
0FC00000
0FC00000
0FC00000
0FC00000
0FC00000
0FC00000
0FC00000
0FC00000
0FC00000
0FC00000
0FC00000
0FC00000
0FC00000
0FC00000
0FC00000
0FC00000
0FC00000
0FC00000
0FC00000
0FC00000
0FC000E0
0FC000E0
0FC000E0
0FC001E0
FFFFFFE0
FFFFFFE0
FFFFFFE0
ENDCHAR
STARTCHAR 004D
ENCODING 77
SWIDTH 684 0
DWIDTH 38 0
BBX 34 41 0 0
BITMAP
FFC001FFC0
FFE001FFC0
FFE001FFC0
1FE003F800
1FE003F800
1FF003F800
1FF003F800
1FF007F800
1FF007F800
1FF807F800
1DF807F800
1DF806F800
1DFC0EF800
1DFC0EF800
1CFC0EF800
1CFC0EF800
1CFE1CF800
1CFE1CF800
1C7E1CF800
1C7E1CF800
1C7F38F800
1C7F38F800
1C3F38F800
1C3F38F800
1C3FB8F800
1C3FF0F800
1C1FF0F800
1C1FF0F800
1C1FF0F800
1C1FF0F800
1C0FE0F800
1C0FE0F800
1C0FE0F800
1C0FE0F800
1C07C0F800
1C07C0F800
1C07C0F800
1C07C0F800
FFC3CFFFC0
FFC38FFFC0
FFC38FFFC0
ENDCHAR
STARTCHAR 004E
ENCODING 78
SWIDTH 612 0
DWIDTH 34 0
BBX 30 41 0 0
BITMAP
FFC01FFC
FFC01FFC
FFE01FFC
0FE001C0
0FF001C0
0FF001C0
0FF801C0
0FF801C0
0FFC01C0
0FFC01C0
0EFE01C0
0EFE01C0
0E7F01C0
0E7F01C0
0E3F81C0
0E3F81C0
0E1FC1C0
0E1FC1C0
0E0FC1C0
0E0FE1C0
0E0FE1C0
0E07F1C0
0E07F1C0
0E03F9C0
0E03F9C0
0E01FDC0
0E01FDC0
0E00FFC0
0E00FFC0
0E007FC0
0E007FC0
0E003FC0
0E003FC0
0E003FC0
0E001FC0
0E001FC0
0E000FC0
0E000FC0
FFE007C0
FFE007C0
FFE003C0
ENDCHAR
STARTCHAR 004F
ENCODING 79
SWIDTH 558 0
DWIDTH 31 0
BBX 27 41 0 0
BITMAP
003FC000
01FFF000
03FFFC00
07E07E00
0F803E00
1F001F00
1F001F80
3E000F80
3E000FC0
7E0007C0
7C0007C0
7C0007C0
7C0007E0
FC0007E0
FC0003E0
FC0003E0
FC0003E0
FC0003E0
F80003E0
F80003E0
F80003E0
F80003E0
F80003E0
FC0003E0
FC0003E0
FC0003E0
FC0003E0
FC0007E0
7C0007E0
7C0007C0
7C0007C0
7E0007C0
3E000FC0
3E000F80
1F001F80
1F001F00
0F803E00
07E07E00
03FFFC00
01FFF000
003FC000
ENDCHAR
STARTCHAR 0050
ENCODING 80
SWIDTH 558 0
DWIDTH 31 0
BBX 27 41 0 0
BITMAP
FFFFE000
FFFFFC00
FFFFFE00
0FC03F00
0FC01F80
0FC00FC0
0FC007C0
0FC007E0
0FC007E0
0FC003E0
0FC003E0
0FC003E0
0FC003E0
0FC003E0
0FC003E0
0FC003E0
0FC007E0
0FC007E0
0FC00FC0
0FC00FC0
0FC01F80
0FC0FF00
0FFFFE00
0FFFF800
0FFE0000
0FC00000
0FC00000
0FC00000
0FC00000
0FC00000
0FC00000
0FC00000
0FC00000
0FC00000
0FC00000
0FC00000
0FC00000
0FC00000
FFFC0000
FFFC0000
FFFC0000
ENDCHAR
STARTCHAR 0051
ENCODING 81
SWIDTH 558 0
DWIDTH 31 0
BBX 27 42 0 -1
BITMAP
003FC000
01FFF000
03FFFC00
07E07E00
0F803E00
1F001F00
1F001F80
3E000F80
3E000FC0
7E0007C0
7C0007C0
7C0007C0
7C0007E0
FC0007E0
FC0003E0
FC0003E0
FC0003E0
FC0003E0
F80003E0
F80003E0
F80003E0
F80003E0
F80003E0
FC0003E0
FC0003E0
FC0003E0
FC0003E0
FC0007E0
7C0007E0
7C0007C0
7C0707C0
7E3F07C0
3E1F8FC0
3E0F8F80
1F0FDF80
1F07FF00
0F83FE00
07E3FE00
03FFFC00
01FFF800
003FFFC0
00007FC0
ENDCHAR
STARTCHAR 0052
ENCODING 82
SWIDTH 558 0
DWIDTH 31 0
BBX 27 41 0 0
BITMAP
FFFFE000
FFFFFC00
FFFFFF00
0FC03F80
0FC01FC0
0FC00FC0
0FC007E0
0FC007E0
0FC003E0
0FC003E0
0FC003E0
0FC003E0
0FC003E0
0FC003E0
0FC007E0
0FC007E0
0FC00FC0
0FC01FC0
0FC03F80
0FFFFF00
0FFFFE00
0FFFF000
0FCF8000
0FCFC000
0FC7C000
0FC7E000
0FC3E000
0FC3F000
0FC3F000
0FC1F800
0FC1F800
0FC0FC00
0FC0FC00
0FC0FC00
0FC07E00
0FC07E00
0FC03F00
0FC03F00
FFFCFFE0
FFFCFFE0
FFFCFFE0
ENDCHAR
STARTCHAR 0053
ENCODING 83
SWIDTH 558 0
DWIDTH 31 0
BBX 27 41 0 0
BITMAP
007FC0E0
03FFF0E0
0FFFF9E0
1FC03DE0
1F001DE0
3E000FE0
7E000FE0
7C0007E0
7C0007E0
7C0007E0
7C0007E0
7C000000
7C000000
7E000000
7E000000
7F000000
7F800000
3FF00000
3FFFF000
1FFFFC00
0FFFFF00
03FFFF80
00FFFFC0
0000FFC0
00001FE0
00000FE0
000007E0
000007E0
000003E0
000003E0
F80003E0
FC0003E0
FC0003E0
FC0003E0
FC0007C0
FE0007C0
FF000F80
F7803F80
E3FFFE00
E1FFFC00
E07FE000
ENDCHAR
STARTCHAR 0054
ENCODING 84
SWIDTH 558 0
DWIDTH 31 0
BBX 27 41 0 0
BITMAP
FFFFFFE0
FFFFFFE0
FFFFFFE0
F01F00E0
F01F00E0
E01F00E0
E01F00E0
001F0000
001F0000
001F0000
001F0000
001F0000
001F0000
001F0000
001F0000
001F0000
001F0000
001F0000
001F0000
001F0000
001F0000
001F0000
001F0000
001F0000
001F0000
001F0000
001F0000
001F0000
001F0000
001F0000
001F0000
001F0000
001F0000
001F0000
001F0000
001F0000
001F0000
001F0000
01FFF800
01FFF800
01FFF800
ENDCHAR
STARTCHAR 0055
ENCODING 85
SWIDTH 594 0
DWIDTH 33 0
BBX 29 41 0 0
BITMAP
FFFC3FF8
FFFC3FF8
FFFC3FF8
0FC00380
0FC00380
0FC00380
0FC00380
0FC00380
0FC00380
0FC00380
0FC00380
0FC00380
0FC00380
0FC00380
0FC00380
0FC00380
0FC00380
0FC00380
0FC00380
0FC00380
0FC00380
0FC00380
0FC00380
0FC00380
0FC00380
0FC00380
0FC00380
0FC00380
0FC00380
0FC00380
0FC00380
0FC00380
0FC00380
0FC00380
0FC00300
0FC00700
07E00700
07F01E00
03FFFE00
01FFF800
003FE000
ENDCHAR
STARTCHAR 0056
ENCODING 86
SWIDTH 612 0
DWIDTH 34 0
BBX 30 41 0 0
BITMAP
FFFC1FFC
FFFC1FFC
FFFC1FFC
0FC001C0
07C001C0
07C00180
07E00380
07E00380
03E00380
03E00300
03E00700
03F00700
01F00700
01F00600
01F00E00
01F80E00
00F80E00
00F80C00
00F81C00
00FC1C00
007C1C00
007C1800
007C3800
007E3800
003E3800
003E3000
003E7000
003F7000
001F7000
001F6000
001FE000
001FE000
000FE000
000FC000
000FC000
000FC000
0007C000
00078000
00078000
00078000
00038000
ENDCHAR
STARTCHAR 0057
ENCODING 87
SWIDTH 774 0
DWIDTH 43 0
BBX 39 41 0 0
BITMAP
FFFC3E0FFE
FFFC3E0FFE
FFFC3E0FFE
0FC03E00E0
0FC03F00C0
07C03F00C0
07C07F01C0
07C07F01C0
07C07F01C0
07E07F81C0
07E07F81C0
03E06F81C0
03E0EF8180
03E0EF8180
03E0EFC180
03E0EFC380
03E0C7C380
03F0C7C380
01F1C7C380
01F1C7E380
01F1C7E300
01F183E300
01F183E300
01F183E300
00FB83F300
00FB83F700
00FB81F700
00FB01F700
00FB01F600
00FB01FE00
007F01FE00
007F00FE00
007E00FE00
007E00FE00
007E00FE00
007E00FE00
003E007C00
003E007C00
003C007C00
003C007C00
003C007C00
ENDCHAR
STARTCHAR 0058
ENCODING 88
SWIDTH 558 0
DWIDTH 31 0
BBX 27 41 0 0
BITMAP
FFFCFFE0
FFFCFFE0
FFFCFFE0
0FC00E00
07C00C00
07E01C00
03E01C00
03E03800
03F03800
01F07000
01F87000
01F8E000
00F8E000
00FCC000
007DC000
007D8000
007F8000
003F0000
003F0000
001F0000
001F0000
001F8000
001F8000
001FC000
003FC000
003FC000
0037E000
0073E000
0063E000
00E3F000
00C1F000
01C1F800
01C0F800
0380F800
0380FC00
07007C00
07007E00
0E007E00
FFE3FFE0
FFE3FFE0
FFE3FFE0
ENDCHAR
STARTCHAR 0059
ENCODING 89
SWIDTH 558 0
DWIDTH 31 0
BBX 27 41 0 0
BITMAP
FFFCFFE0
FFFCFFE0
FFFCFFE0
0FC00E00
07C00E00
07C00C00
07E01C00
03E01C00
03E01800
03F01800
01F03800
01F03800
01F03000
01F87000
00F87000
00F86000
00FC6000
007CE000
007CC000
007CC000
003FC000
003F8000
003F8000
001F8000
001F0000
001F0000
001F0000
001F0000
001F0000
001F0000
001F0000
001F0000
001F0000
001F0000
001F0000
001F0000
001F0000
001F0000
01FFF800
01FFF800
01FFF800
ENDCHAR
STARTCHAR 005A
ENCODING 90
SWIDTH 468 0
DWIDTH 26 0
BBX 22 41 0 0
BITMAP
FFFFFC
FFFFFC
FFFFFC
F000FC
F000F8
E001F8
E001F0
0003F0
0003E0
0007E0
0007C0
000FC0
000F80
001F80
001F00
003F00
003F00
003E00
007E00
007C00
00FC00
00F800
01F800
01F000
03F000
03E000
07E000
07C000
0FC000
0FC000
0F8000
1F8000
1F0000
3F0000
3E001C
7E001C
7C003C
FC003C
FFFFFC
FFFFFC
FFFFFC
ENDCHAR
STARTCHAR 005B
ENCODING 91
SWIDTH 252 0
DWIDTH 14 0
BBX 10 47 0 -3
BITMAP
FFC0
FFC0
FFC0
F800
F800
F800
F800
F800
F800
F800
F800
F800
F800
F800
F800
F800
F800
F800
F800
F800
F800
F800
F800
F800
F800
F800
F800
F800
F800
F800
F800
F800
F800
F800
F800
F800
F800
F800
F800
F800
F800
F800
F800
F800
FFC0
FFC0
FFC0
ENDCHAR
STARTCHAR 005C
ENCODING 92
SWIDTH 558 0
DWIDTH 31 0
BBX 27 41 0 0
BITMAP
F0000000
70000000
78000000
38000000
1C000000
1E000000
0E000000
0F000000
07000000
03800000
03C00000
01C00000
01E00000
00E00000
00F00000
00700000
00380000
003C0000
001C0000
001E0000
000E0000
00070000
00078000
00038000
0003C000
0001C000
0001E000
0000E000
00007000
00007800
00003800
00003C00
00001C00
00000E00
00000F00
00000700
00000780
00000380
000003C0
000001C0
000000E0
ENDCHAR
STARTCHAR 005D
ENCODING 93
SWIDTH 252 0
DWIDTH 14 0
BBX 10 47 0 -3
BITMAP
FFC0
FFC0
FFC0
0FC0
0FC0
0FC0
0FC0
0FC0
0FC0
0FC0
0FC0
0FC0
0FC0
0FC0
0FC0
0FC0
0FC0
0FC0
0FC0
0FC0
0FC0
0FC0
0FC0
0FC0
0FC0
0FC0
0FC0
0FC0
0FC0
0FC0
0FC0
0FC0
0FC0
0FC0
0FC0
0FC0
0FC0
0FC0
0FC0
0FC0
0FC0
0FC0
0FC0
0FC0
FFC0
FFC0
FFC0
ENDCHAR
STARTCHAR 005E
ENCODING 94
SWIDTH 378 0
DWIDTH 21 0
BBX 16 11 0 30
BITMAP
0080
0180
03C0
03E0
07F0
0FF0
1E78
1C3C
381E
700E
E007
ENDCHAR
STARTCHAR 005F
ENCODING 95
SWIDTH 558 0
DWIDTH 31 0
BBX 27 3 0 -3
BITMAP
FFFFFFE0
FFFFFFE0
FFFFFFE0
ENDCHAR
STARTCHAR 0060
ENCODING 96
SWIDTH 180 0
DWIDTH 10 0
BBX 5 11 0 30
BITMAP
F8
F8
78
78
78
78
38
38
38
38
18
ENDCHAR
STARTCHAR 0061
ENCODING 97
SWIDTH 558 0
DWIDTH 31 0
BBX 27 27 0 0
BITMAP
03FFE000
0FFFFC00
1FE3FE00
3F003F00
3E001F00
3E001F80
7E001F80
00001F80
00001F80
00001F80
00001F80
00007F80
01FFFF80
0FFFFF80
3FFE1F80
7F001F80
7E001F80
FC001F80
FC001F80
FC001F80
F8001F80
FC003F80
FC007F80
7F00FF80
3FFFFBE0
1FFFF1E0
01FF80E0
ENDCHAR
STARTCHAR 0062
ENCODING 98
SWIDTH 594 0
DWIDTH 33 0
BBX 29 41 0 0
BITMAP
FFC00000
FFC00000
FFC00000
0FC00000
0FC00000
0FC00000
0FC00000
0FC00000
0FC00000
0FC00000
0FC00000
0FC00000
0FC00000
0FC00000
0FC7FE00
0FDFFF00
0FDE7F80
0FF00FC0
0FE007E0
0FE003E0
0FC003F0
0FC001F0
0FC001F0
0FC001F0
0FC001F8
0FC001F8
0FC001F8
0FC001F8
0FC001F8
0FC001F8
0FC001F8
0FC001F0
0FC001F0
0FC001F0
0FC003F0
0FE003E0
0FE007E0
0F700FC0
0E3C1F80
0E1FFF00
0E03FC00
ENDCHAR
STARTCHAR 0063
ENCODING 99
SWIDTH 558 0
DWIDTH 31 0
BBX 27 27 0 0
BITMAP
00FFE0E0
07FFF8E0
0FF1FCE0
1F801EE0
3F0007E0
3E0007E0
7E0003E0
7C0003E0
7C000000
FC000000
FC000000
FC000000
F8000000
F8000000
F8000000
FC000000
FC000000
FC000000
7C000000
7E000060
7E0000E0
3F0000E0
3F8001C0
1FE007C0
0FFFFF80
03FFFE00
007FF000
ENDCHAR
STARTCHAR 0064
ENCODING 100
SWIDTH 594 0
DWIDTH 33 0
BBX 29 41 0 0
BITMAP
0001FF80
0001FF80
0001FF80
00001F80
00001F80
00001F80
00001F80
00001F80
00001F80
00001F80
00001F80
00001F80
00001F80
00001F80
03FF1F80
0FFF9F80
1FE3DF80
3F80FF80
3F007F80
7E003F80
7C001F80
7C001F80
FC001F80
FC001F80
FC001F80
FC001F80
F8001F80
F8001F80
F8001F80
FC001F80
FC001F80
FC001F80
FC001F80
7C001F80
7E003F80
7E003F80
3F007F80
1F80DF80
0FFFDFF8
07FF9FF8
01FE1FF8
ENDCHAR
STARTCHAR 0065
ENCODING 101
SWIDTH 558 0
DWIDTH 31 0
BBX 27 27 0 0
BITMAP
00FFF000
07FFFC00
0FF1FF00
1F803F80
3F000F80
3E000FC0
7C0007C0
7C0007E0
7C0003E0
FC0003E0
FC0003E0
F80003E0
FFFFFFE0
FFFFFFE0
FFFFFFE0
F8000000
FC000000
FC000000
7C000000
7C000060
7E0000E0
3E0000E0
3F8001C0
1FC007C0
0FFFFF80
03FFFE00
007FF000
ENDCHAR
STARTCHAR 0066
ENCODING 102
SWIDTH 342 0
DWIDTH 19 0
BBX 15 41 0 0
BITMAP
003E
01FE
03FE
07E0
0FC0
0FC0
0FC0
0FC0
0FC0
0FC0
0FC0
0FC0
0FC0
0FC0
FFFC
FFFC
0FC0
0FC0
0FC0
0FC0
0FC0
0FC0
0FC0
0FC0
0FC0
0FC0
0FC0
0FC0
0FC0
0FC0
0FC0
0FC0
0FC0
0FC0
0FC0
0FC0
0FC0
0FC0
FFFC
FFFC
FFFC
ENDCHAR
STARTCHAR 0067
ENCODING 103
SWIDTH 486 0
DWIDTH 27 0
BBX 26 42 -1 -10
BITMAP
00007C00
0000FC00
0000FC00
0000C000
01FFC000
07FFE000
1FEFF000
1F81F800
3F00FC00
3E007C00
7E007C00
7E007E00
7E007E00
7C007E00
7C007E00
7E007E00
7E007E00
7E007C00
3E007C00
3F00FC00
1F81F800
0FFFF000
07FFE000
07FF8000
1F000000
3E000000
3F000000
1FC00000
0FFE0000
0FFFF800
3FFFFE00
7F007F00
FC001F80
FC000F80
F8000FC0
F8000FC0
F8000F80
FC001F80
7F003F80
3FFFFF00
1FFFFC00
01FFC000
ENDCHAR
STARTCHAR 0068
ENCODING 104
SWIDTH 666 0
DWIDTH 37 0
BBX 33 41 0 0
BITMAP
FFC0000000
FFC0000000
FFC0000000
0FC0000000
0FC0000000
0FC0000000
0FC0000000
0FC0000000
0FC0000000
0FC0000000
0FC0000000
0FC0000000
0FC0000000
0FC0000000
0FC3FF0000
0FCFFF8000
0FDE3FC000
0FF00FE000
0FE003F000
0FE003F000
0FC001F000
0FC001F000
0FC001F800
0FC001F800
0FC001F800
0FC001F800
0FC001F800
0FC001F800
0FC001F800
0FC001F800
0FC001F800
0FC001F800
0FC001F800
0FC001F800
0FC001F800
0FC001F800
0FC001F800
0FC001F800
FFFC1FFF80
FFFC1FFF80
FFFC1FFF80
ENDCHAR
STARTCHAR 0069
ENCODING 105
SWIDTH 324 0
DWIDTH 18 0
BBX 14 41 0 0
BITMAP
0F80
1FC0
1FE0
1FE0
1FE0
1FE0
1FC0
0F80
0000
0000
0000
0000
0000
0000
FFC0
FFC0
0FC0
0FC0
0FC0
0FC0
0FC0
0FC0
0FC0
0FC0
0FC0
0FC0
0FC0
0FC0
0FC0
0FC0
0FC0
0FC0
0FC0
0FC0
0FC0
0FC0
0FC0
0FC0
FFFC
FFFC
FFFC
ENDCHAR
STARTCHAR 006A
ENCODING 106
SWIDTH 270 0
DWIDTH 15 0
BBX 12 52 -1 -11
BITMAP
07C0
0FE0
0FF0
0FF0
0FF0
0FF0
0FE0
07C0
0000
0000
0000
0000
0000
0000
7FE0
7FE0
07E0
07E0
07E0
07E0
07E0
07E0
07E0
07E0
07E0
07E0
07E0
07E0
07E0
07E0
07E0
07E0
07E0
07E0
07E0
07E0
07E0
07E0
07E0
07E0
07E0
07E0
07E0
07E0
07E0
07C0
07C0
0FC0
1F80
FF00
FE00
F000
ENDCHAR
STARTCHAR 006B
ENCODING 107
SWIDTH 576 0
DWIDTH 32 0
BBX 28 41 0 0
BITMAP
FFC00000
FFC00000
FFC00000
0FC00000
0FC00000
0FC00000
0FC00000
0FC00000
0FC00000
0FC00000
0FC00000
0FC00000
0FC00000
0FC00000
0FC0FFF0
0FC0FFF0
0FC00F00
0FC01E00
0FC01C00
0FC03800
0FC07000
0FC0E000
0FC1C000
0FC38000
0FC7C000
0FCFC000
0FDFE000
0FDBE000
0FF1F000
0FE1F000
0FC0F800
0FC0F800
0FC0FC00
0FC07C00
0FC07E00
0FC03E00
0FC03F00
0FC01F00
FFF8FFF0
FFF8FFF0
FFF8FFF0
ENDCHAR
STARTCHAR 006C
ENCODING 108
SWIDTH 324 0
DWIDTH 18 0
BBX 14 41 0 0
BITMAP
FFC0
FFC0
FFC0
0FC0
0FC0
0FC0
0FC0
0FC0
0FC0
0FC0
0FC0
0FC0
0FC0
0FC0
0FC0
0FC0
0FC0
0FC0
0FC0
0FC0
0FC0
0FC0
0FC0
0FC0
0FC0
0FC0
0FC0
0FC0
0FC0
0FC0
0FC0
0FC0
0FC0
0FC0
0FC0
0FC0
0FC0
0FC0
FFFC
FFFC
FFFC
ENDCHAR
STARTCHAR 006D
ENCODING 109
SWIDTH 1008 0
DWIDTH 56 0
BBX 52 27 0 0
BITMAP
FFC7FF80FFE000
FFDFFFC3FFF000
0FFE3FE7C7FC00
0FF00FFE00FC00
0FE003FC007E00
0FE003FC007E00
0FC001F8003E00
0FC001F8003F00
0FC001F8003F00
0FC001F8003F00
0FC001F8003F00
0FC001F8003F00
0FC001F8003F00
0FC001F8003F00
0FC001F8003F00
0FC001F8003F00
0FC001F8003F00
0FC001F8003F00
0FC001F8003F00
0FC001F8003F00
0FC001F8003F00
0FC001F8003F00
0FC001F8003F00
0FC001F8003F00
FFFC1FFF83FFF0
FFFC1FFF83FFF0
FFFC1FFF83FFF0
ENDCHAR
STARTCHAR 006E
ENCODING 110
SWIDTH 666 0
DWIDTH 37 0
BBX 33 27 0 0
BITMAP
FFC3FF0000
FFCFFF8000
0FDE3FC000
0FF00FE000
0FE003F000
0FE003F000
0FC001F000
0FC001F000
0FC001F800
0FC001F800
0FC001F800
0FC001F800
0FC001F800
0FC001F800
0FC001F800
0FC001F800
0FC001F800
0FC001F800
0FC001F800
0FC001F800
0FC001F800
0FC001F800
0FC001F800
0FC001F800
FFFC1FFF80
FFFC1FFF80
FFFC1FFF80
ENDCHAR
STARTCHAR 006F
ENCODING 111
SWIDTH 558 0
DWIDTH 31 0
BBX 27 27 0 0
BITMAP
00FFF000
07FFFC00
0FF1FE00
1F803F00
3F001F80
3E000FC0
7E0007C0
7C0007E0
7C0007E0
FC0003E0
FC0003E0
FC0003E0
F80003E0
F80003E0
F80003E0
FC0003E0
FC0003E0
FC0007E0
7C0007E0
7C0007C0
7E000FC0
3E000FC0
3F001F80
1FC07F00
0FFFFE00
03FFF800
007FC000
ENDCHAR
STARTCHAR 0070
ENCODING 112
SWIDTH 612 0
DWIDTH 34 0
BBX 30 38 0 -11
BITMAP
FFC7FF00
FFDFFFC0
0FFF3FE0
0FF807F0
0FE003F0
0FE001F8
0FC001F8
0FC000F8
0FC000FC
0FC000FC
0FC000FC
0FC0007C
0FC0007C
0FC0007C
0FC0007C
0FC000FC
0FC000FC
0FC000FC
0FC000FC
0FC000F8
0FC001F8
0FE001F8
0FF003F0
0FF807F0
0FDFFFE0
0FCFFFC0
0FC1FE00
0FC00000
0FC00000
0FC00000
0FC00000
0FC00000
0FC00000
0FC00000
0FC00000
FFFC0000
FFFC0000
FFFC0000
ENDCHAR
STARTCHAR 0071
ENCODING 113
SWIDTH 540 0
DWIDTH 30 0
BBX 30 38 0 -11
BITMAP
03FF81C0
0FFFE1C0
1FF3F1C0
3F807BC0
3F001BC0
7E001FC0
7E000FC0
7C000FC0
FC000FC0
FC000FC0
FC0007C0
FC0007C0
F80007C0
F80007C0
F80007C0
FC0007C0
FC000FC0
FC000FC0
FC000FC0
7C000FC0
7E000FC0
7E001FC0
3F0037C0
3FC077C0
1FFFE7C0
07FFC7C0
01FE07C0
000007C0
000007C0
000007C0
000007C0
000007C0
000007C0
000007C0
000007C0
0000FFFC
0000FFFC
0000FFFC
ENDCHAR
STARTCHAR 0072
ENCODING 114
SWIDTH 558 0
DWIDTH 31 0
BBX 27 27 0 0
BITMAP
FFCFFC00
FFDFFF00
0FFE7F80
0FF00FC0
0FE007E0
0FE003E0
0FC003E0
0FC003E0
0FC00000
0FC00000
0FC00000
0FC00000
0FC00000
0FC00000
0FC00000
0FC00000
0FC00000
0FC00000
0FC00000
0FC00000
0FC00000
0FC00000
0FC00000
0FC00000
FFFC0000
FFFC0000
FFFC0000
ENDCHAR
STARTCHAR 0073
ENCODING 115
SWIDTH 558 0
DWIDTH 31 0
BBX 27 27 0 0
BITMAP
01FFC1C0
07FFF1C0
1FF1F9C0
1F003BC0
3E001FC0
3E000FC0
7E000FC0
7E000FC0
7E000000
3F000000
3FF80000
3FFFF800
1FFFFF00
0FFFFF80
07FFFFC0
00FFFFE0
00003FE0
00000FE0
000007E0
FC0003E0
FC0003E0
FC0003E0
FE0007C0
F7801FC0
E3FFFF80
E1FFFE00
E07FF000
ENDCHAR
STARTCHAR 0074
ENCODING 116
SWIDTH 396 0
DWIDTH 22 0
BBX 18 38 0 0
BITMAP
002000
006000
00E000
01E000
03E000
07E000
07E000
07E000
07E000
07E000
07E000
FFFF00
FFFF00
07E000
07E000
07E000
07E000
07E000
07E000
07E000
07E000
07E000
07E000
07E000
07E000
07E000
07E000
07E000
07E000
07E000
07E000
03E000
03E000
03F000
01FC00
00FFC0
007FC0
000FC0
ENDCHAR
STARTCHAR 0075
ENCODING 117
SWIDTH 666 0
DWIDTH 37 0
BBX 33 27 0 0
BITMAP
FFC01FF800
FFC01FF800
0FC001F800
0FC001F800
0FC001F800
0FC001F800
0FC001F800
0FC001F800
0FC001F800
0FC001F800
0FC001F800
0FC001F800
0FC001F800
0FC001F800
0FC001F800
0FC001F800
0FC001F800
0FC001F800
0FC001F800
0FC001F800
07C001F800
07E003F800
07F007F800
03F80DF800
01FFFDFF80
00FFF9FF80
003FC1FF80
ENDCHAR
STARTCHAR 0076
ENCODING 118
SWIDTH 558 0
DWIDTH 31 0
BBX 27 27 0 0
BITMAP
FFFCFFE0
FFFCFFE0
0FC00E00
0FC00E00
07C00E00
07E00C00
07E01C00
03E01C00
03F01800
03F03800
01F03800
01F83000
01F87000
00F87000
00FC6000
00FCE000
007CE000
007CC000
007FC000
003FC000
003F8000
003F8000
001F8000
001F0000
001F0000
000F0000
000E0000
ENDCHAR
STARTCHAR 0077
ENCODING 119
SWIDTH 756 0
DWIDTH 42 0
BBX 39 27 0 0
BITMAP
FFFC3E0FFE
FFFC3E0FFE
0FC03F00E0
0FC07F00C0
07C07F01C0
07C07F81C0
07E07F81C0
07E0EF81C0
03E0CFC180
03E0CFC180
03F0C7C380
03F1C7C380
01F187E380
01F183E300
01F983E300
01FB83F700
00FB83F700
00FB01F700
00FF01FE00
00FF01FE00
007F00FE00
007E00FE00
007E00FE00
007E007E00
003E007C00
003C007C00
003C007C00
ENDCHAR
STARTCHAR 0078
ENCODING 120
SWIDTH 558 0
DWIDTH 31 0
BBX 27 27 0 0
BITMAP
FFFCFFE0
FFFCFFE0
1FC00F00
0FC00E00
07E01C00
07F03C00
03F07800
01F87000
01FCE000
00FDC000
007FC000
007F8000
003F0000
001F8000
001FC000
003FC000
007FE000
0077E000
00E3F000
01E1F800
03C1F800
0380FC00
07007E00
0E007E00
FFE3FFE0
FFE3FFE0
FFE3FFE0
ENDCHAR
STARTCHAR 0079
ENCODING 121
SWIDTH 558 0
DWIDTH 31 0
BBX 27 38 0 -11
BITMAP
FFFCFFE0
FFFCFFE0
0FC00E00
0FC00E00
07C00E00
07E00C00
07E01C00
03E01C00
03F01800
03F03800
01F03800
01F83000
01F83000
00F87000
00FC7000
00FC6000
007CE000
007EE000
007EC000
003EC000
003FC000
003F8000
001F8000
001F8000
001F0000
000F0000
000F0000
000F0000
000E0000
000E0000
001E0000
001C0000
003C0000
00380000
00F00000
07E00000
07C00000
07000000
ENDCHAR
STARTCHAR 007A
ENCODING 122
SWIDTH 468 0
DWIDTH 26 0
BBX 22 27 0 0
BITMAP
FFFFFC
FFFFFC
F001FC
F003F8
E003F0
E007F0
000FE0
000FC0
001FC0
003F80
007F00
007F00
00FE00
01FC00
01FC00
03F800
07F000
07F000
0FE000
1FC000
1F801C
3F801C
7F003C
7E003C
FFFFFC
FFFFFC
FFFFFC
ENDCHAR
STARTCHAR 007B
ENCODING 123
SWIDTH 270 0
DWIDTH 15 0
BBX 11 47 0 -3
BITMAP
07E0
1FE0
3FE0
7E00
7C00
FC00
FC00
F800
F800
FC00
FC00
7E00
7F00
1F80
0FC0
07C0
07E0
07E0
07E0
07E0
07C0
1FC0
FF80
FC00
FF80
1FC0
07C0
07E0
07E0
07E0
07E0
07C0
0FC0
1F80
7F00
7E00
FC00
FC00
F800
F800
FC00
FC00
7C00
7E00
3FE0
1FE0
07E0
ENDCHAR
STARTCHAR 007C
ENCODING 124
SWIDTH 126 0
DWIDTH 7 0
BBX 3 51 0 -5
BITMAP
E0
E0
E0
E0
E0
E0
E0
E0
E0
E0
E0
E0
E0
E0
E0
E0
E0
E0
E0
E0
E0
E0
E0
E0
E0
E0
E0
E0
E0
E0
E0
E0
E0
E0
E0
E0
E0
E0
E0
E0
E0
E0
E0
E0
E0
E0
E0
E0
E0
E0
E0
ENDCHAR
STARTCHAR 007D
ENCODING 125
SWIDTH 270 0
DWIDTH 15 0
BBX 11 47 0 -3
BITMAP
FC00
FF00
FF80
0FC0
07C0
07E0
07E0
07E0
07E0
07E0
0FE0
0FC0
1F80
3F00
7E00
FC00
FC00
FC00
F800
FC00
FC00
7E00
3FE0
07E0
3FE0
7F00
FC00
FC00
F800
F800
FC00
FC00
7E00
3F00
1F80
0FC0
07E0
07E0
07E0
07E0
07E0
07E0
07C0
0FC0
FF80
FF00
FC00
ENDCHAR
STARTCHAR 007E
ENCODING 126
SWIDTH 414 0
DWIDTH 23 0
BBX 19 7 0 17
BITMAP
0F0000
3FC000
7FC000
F9E0C0
60FFE0
007FC0
003F80
ENDCHAR
STARTCHAR 00A0
ENCODING 160
SWIDTH 252 0
DWIDTH 14 0
BBX 0 0 0 0
BITMAP
ENDCHAR
STARTCHAR 00A1
ENCODING 161
SWIDTH 216 0
DWIDTH 12 0
BBX 8 41 0 0
BITMAP
3C
7F
FF
FF
FF
FF
7F
7E
00
00
00
1C
1C
3C
3C
3C
3C
3C
3C
3C
3C
3C
3E
3E
7E
7E
7E
7E
7E
7E
7E
7E
7E
7F
7F
FF
FF
FF
FF
FF
FF
ENDCHAR
STARTCHAR 00A2
ENCODING 162
SWIDTH 558 0
DWIDTH 31 0
BBX 27 35 0 3
BITMAP
001F0000
001F0000
001F0000
001F0000
001F0000
00FFE060
07FFF8E0
1FFFFCE0
1FC03CE0
3F000EE0
7E0007E0
7E0003E0
7C0003E0
FC0003E0
FC0001E0
FC000000
F8000000
F8000000
F8000000
FC000000
FC000060
FC0000E0
7C0000E0
7E0000E0
7E0001E0
3F0003C0
1FC01F80
1FFFFF80
07FFFE00
00FFF000
001F0000
001F0000
001F0000
001F0000
001F0000
ENDCHAR
STARTCHAR 00A3
ENCODING 163
SWIDTH 576 0
DWIDTH 32 0
BBX 27 41 0 0
BITMAP
0007F800
003FFF00
007FFF80
00FC1FC0
01F80FE0
01F007E0
03E007E0
03E003E0
07E003E0
07C00380
07C00200
07C00000
07C00000
0FC00000
0FC00000
0FC00000
0FC00000
0FC00000
0FC00000
FFFF0000
FFFF0000
FFFF0000
0FC00000
0FC00000
0FC00000
0FC00000
0FC00000
0FC00000
0FC00000
0FC00000
0FC00000
0FC00000
0FC00000
0FC00000
3FF00000
7FFC00C0
FFFF00E0
EFCF81E0
FF83FFE0
FF81FFC0
7E003E00
ENDCHAR
STARTCHAR 00A4
ENCODING 164
SWIDTH 612 0
DWIDTH 34 0
BBX 30 41 0 0
BITMAP
0007F81C
003FFE1C
007FFF1C
00F807BC
01F003FC
03E001FC
07C000FC
07C000FC
0FC000FC
0F80007C
0F80007C
0F800000
1F800000
1F800000
1F000000
1F000000
FFFF0000
FFFF0000
FFFF0000
1F000000
1F000000
1F000000
FFFF0000
FFFF0000
FFFF0000
1F000000
1F000000
1F800000
1F800000
0F800000
0F80001C
0FC0001C
0FC0001C
07C0001C
07E00038
03F00038
03F80070
01FC01F0
00FFFFC0
003FFF80
000FFC00
ENDCHAR
STARTCHAR 00A5
ENCODING 165
SWIDTH 558 0
DWIDTH 31 0
BBX 27 41 0 0
BITMAP
FFFCFFE0
FFFCFFE0
FFFCFFE0
0FC00E00
07C00E00
07C00C00
07E01C00
03E01C00
03E01800
03F01800
01F03800
01F03800
01F03000
01F87000
00F87000
00F86000
00FC6000
007CE000
007CC000
007CC000
003FC000
003F8000
003F8000
001F8000
001F0000
001F0000
001F0000
001F0000
001F0000
001F0000
01FFF800
01FFF800
01FFF800
001F0000
001F0000
001F0000
001F0000
001F0000
01FFF800
01FFF800
01FFF800
ENDCHAR
STARTCHAR 00A6
ENCODING 166
SWIDTH 126 0
DWIDTH 7 0
BBX 3 47 0 -3
BITMAP
E0
E0
E0
E0
E0
E0
E0
E0
E0
E0
E0
E0
E0
E0
E0
E0
E0
E0
E0
E0
E0
00
00
00
00
00
E0
E0
E0
E0
E0
E0
E0
E0
E0
E0
E0
E0
E0
E0
E0
E0
E0
E0
E0
E0
E0
ENDCHAR
STARTCHAR 00A7
ENCODING 167
SWIDTH 576 0
DWIDTH 32 0
BBX 27 41 0 0
BITMAP
01FFF000
0FFFFE00
3FFFFF80
7F001FC0
7E000FC0
FC0007E0
FC0003E0
FC0003E0
FC000000
FC000000
7E000000
3F800000
1FFF8000
0FFFFC00
1FFFFF00
3FC03F80
7E000FC0
7C0007E0
FC0003E0
FC0003E0
FC0003E0
FC0003E0
FC0003E0
7C0007E0
7E000FC0
3FC03F80
1FFFFF00
07FFFE00
003FFF80
00001FC0
00000FC0
000007E0
000003E0
FC0003E0
FC0003E0
FC0003E0
7E0007E0
3F801FC0
1FFFFF80
0FFFFF00
00FFF000
ENDCHAR
STARTCHAR 00A8
ENCODING 168
SWIDTH 414 0
DWIDTH 23 0
BBX 19 6 0 42
BITMAP
7001C0
F803E0
F803E0
F803E0
F803E0
300080
ENDCHAR
STARTCHAR 00A9
ENCODING 169
SWIDTH 558 0
DWIDTH 31 0
BBX 27 41 0 0
BITMAP
007FC000
03FFF800
0FFFFE00
1F801F00
3E000780
38040380
783F81C0
707FDDC0
70F8FCE0
E1E03CE0
E1E03CE0
E1E01CE0
E3C01C60
E3C01C60
E3C00060
E3C00060
E3C00060
E3C00060
E7C00060
E7C00060
E7C00060
E7C00060
E7C00060
E3C00060
E3C00060
E3C00060
E3C00060
E3C01C60
E3C01C60
E1E01CE0
E1E03CE0
E1E038E0
70F0F8E0
707FF1C0
783FC1C0
380403C0
3E000780
1F801F00
0FFFFE00
03FFF800
007FC000
ENDCHAR
STARTCHAR 00AA
ENCODING 170
SWIDTH 558 0
DWIDTH 31 0
BBX 27 30 0 16
BITMAP
03FFF000
0FFFFC00
1FC1FE00
3F003F00
3E001F00
7E001F80
00001F80
00001F80
00003F80
00007F80
000FFF80
07FFFF80
1FFF9F80
7F801F80
7E001F80
FC001F80
FC001F80
F8001F80
FC001F80
FC003F80
7E007F80
3FFFFBE0
1FFFF9E0
03FFC0E0
00000000
00000000
00000000
FFFFFFE0
FFFFFFE0
FFFFFFE0
ENDCHAR
STARTCHAR 00AB
ENCODING 171
SWIDTH 558 0
DWIDTH 31 0
BBX 27 21 0 10
BITMAP
000700E0
001E03C0
003C0780
00780F00
00F01E00
03F07C00
07E0FC00
0FC1F800
1F87F000
7F0FE000
FE1FC000
7F0FE000
1F87F000
0FC1F800
07E0FC00
03F07C00
00F01E00
00780F00
003C0780
001E03C0
000700E0
ENDCHAR
STARTCHAR 00AC
ENCODING 172
SWIDTH 522 0
DWIDTH 29 0
BBX 25 7 0 15
BITMAP
FFFFFF80
FFFFFF80
FFFFFF80
00000380
00000380
00000380
00000380
ENDCHAR
STARTCHAR 00AD
ENCODING 173
SWIDTH 522 0
DWIDTH 29 0
BBX 25 3 0 19
BITMAP
FFFFFF80
FFFFFF80
FFFFFF80
ENDCHAR
STARTCHAR 00AE
ENCODING 174
SWIDTH 576 0
DWIDTH 32 0
BBX 28 41 0 0
BITMAP
007FE000
03FFFC00
07FFFF00
1F801F80
1E0007C0
3FFE01C0
7BFFE1E0
73FFF0E0
70F0F8E0
E0F07C70
E0F03C70
E0F03C70
E0F03C70
E0F03E70
E0F03E70
E0F03C70
E0F03C70
E0F03C70
E0F07C70
E0FFF870
E0FFF870
E0FFE070
E0F78070
E0F7C070
E0F3C070
E0F3C070
E0F3E070
E0F1E070
E0F1E070
E0F1E070
E0F0F070
E0F0F070
60F0F060
73FBFEE0
73FBFEE0
3BFBFFC0
1C0003C0
1F000780
07C03F00
03FFFC00
007FE000
ENDCHAR
STARTCHAR 00AF
ENCODING 175
SWIDTH 468 0
DWIDTH 26 0
BBX 22 3 0 42
BITMAP
FFFFFC
FFFFFC
FFFFFC
ENDCHAR
STARTCHAR 00B0
ENCODING 176
SWIDTH 252 0
DWIDTH 14 0
BBX 10 10 0 31
BITMAP
3E00
7F80
FF80
E180
E1C0
E1C0
F380
7F80
7F00
0800
ENDCHAR
STARTCHAR 00B1
ENCODING 177
SWIDTH 522 0
DWIDTH 29 0
BBX 25 31 0 5
BITMAP
001C0000
001C0000
001C0000
001C0000
001C0000
001C0000
001C0000
001C0000
001C0000
001C0000
001C0000
FFFFFF80
FFFFFF80
FFFFFF80
001C0000
001C0000
001C0000
001C0000
001C0000
001C0000
001C0000
001C0000
001C0000
001C0000
001C0000
00000000
00000000
00000000
FFFFFF80
FFFFFF80
FFFFFF80
ENDCHAR
STARTCHAR 00B2
ENCODING 178
SWIDTH 468 0
DWIDTH 26 0
BBX 22 19 0 27
BITMAP
E1FFC0
E7FFF0
F783F8
FE00FC
FC00FC
FC00FC
0000FC
0003F8
07FFF0
1FFFC0
7FE000
7E0000
FC001C
FC003C
F8007C
F8007C
FFFFFC
FFFFFC
FFFFFC
ENDCHAR
STARTCHAR 00B3
ENCODING 179
SWIDTH 468 0
DWIDTH 26 0
BBX 22 19 0 27
BITMAP
FFFFFC
FFFFFC
F801F8
F803F0
F00FC0
E01F00
007E00
00FFE0
03FFF8
01E1F8
0080FC
0000FC
0000FC
F800FC
FC01F8
7E03F8
7FFFF0
1FFFC0
007800
ENDCHAR
STARTCHAR 00B4
ENCODING 180
SWIDTH 270 0
DWIDTH 15 0
BBX 10 7 0 42
BITMAP
0FC0
1F80
3F00
3C00
7800
7000
E000
ENDCHAR
STARTCHAR 00B5
ENCODING 181
SWIDTH 558 0
DWIDTH 31 0
BBX 27 32 0 -5
BITMAP
F8001F80
F8001F80
F8001F80
F8001F80
F8001F80
F8001F80
F8001F80
F8001F80
F8001F80
F8001F80
F8001F80
F8001F80
F8001F80
F8001F80
F8001F80
F8001F80
F8001F80
FC001F80
FC001F80
FC001F80
FC003F80
FA003F80
FA007B80
FB80FBC0
FBFFF1E0
F9FFE0E0
F87F0060
F8000000
F8000000
F8000000
F8000000
F8000000
ENDCHAR
STARTCHAR 00B6
ENCODING 182
SWIDTH 612 0
DWIDTH 34 0
BBX 29 41 0 0
BITMAP
01FFFFF8
0FFFFFF8
1FFFFFF8
3FFFC7E0
3FFFC7E0
7FFFC7E0
7FFFC7E0
FFFFC7E0
FFFFC7E0
FFFFC7E0
FFFFC7E0
FFFFC7E0
FFFFC7E0
FFFFC7E0
FFFFC7E0
FFFFC7E0
FFFFC7E0
7FFFC7E0
7FFFC7E0
7FFFC7E0
3FFFC7E0
1FFFC7E0
0FFFC7E0
07FFC7E0
007FC7E0
0007C7E0
0007C7E0
0007C7E0
0007C7E0
0007C7E0
0007C7E0
0007C7E0
0007C7E0
0007C7E0
0007C7E0
0007C7E0
0007C7E0
0007C7E0
007FFFF8
007FFFF8
007FFFF8
ENDCHAR
STARTCHAR 00B7
ENCODING 183
SWIDTH 216 0
DWIDTH 12 0
BBX 8 9 0 16
BITMAP
18
7E
FF
FF
FF
FF
FF
7E
18
ENDCHAR
STARTCHAR 00B8
ENCODING 184
SWIDTH 252 0
DWIDTH 14 0
BBX 10 11 0 -11
BITMAP
3800
7000
7000
FE00
FF80
61C0
00C0
00C0
03C0
0780
0400
ENDCHAR
STARTCHAR 00B9
ENCODING 185
SWIDTH 324 0
DWIDTH 18 0
BBX 14 19 0 27
BITMAP
01C0
07C0
1FC0
FFC0
FFC0
EFC0
8FC0
0FC0
0FC0
0FC0
0FC0
0FC0
0FC0
0FC0
0FC0
0FC0
FFFC
FFFC
FFFC
ENDCHAR
STARTCHAR 00BA
ENCODING 186
SWIDTH 558 0
DWIDTH 31 0
BBX 27 30 0 16
BITMAP
01FFF000
07FFFC00
0FE0FF00
1F803F80
3F000F80
7E000FC0
7C0007C0
7C0007E0
FC0003E0
FC0003E0
FC0003E0
F80003E0
F80003E0
FC0003E0
FC0003E0
FC0007E0
7C0007E0
7E0007C0
7E000FC0
3F001F80
1F803F00
0FFFFE00
07FFFC00
00FFE000
00000000
00000000
00000000
FFFFFFE0
FFFFFFE0
FFFFFFE0
ENDCHAR
STARTCHAR 00BB
ENCODING 187
SWIDTH 558 0
DWIDTH 31 0
BBX 27 21 0 10
BITMAP
F01E0000
780F0000
3C078000
1F03E000
0F81F000
07C0F800
03E07C00
01F83F00
00FC1F80
007E0FC0
003F0FE0
007E0FC0
00FC1F80
01F83F00
03E07C00
07C0F800
0F81F000
1F03C000
3C078000
780F0000
F01E0000
ENDCHAR
STARTCHAR 00BC
ENCODING 188
SWIDTH 558 0
DWIDTH 31 0
BBX 27 49 0 -4
BITMAP
00010000
00070000
003F0000
00FF0000
01FF0000
01FF0000
019F0000
001F0000
001F0000
001F0000
001F0000
001F0000
001F0000
001F0000
001F0000
001F0000
001F0000
001F0000
01FFF800
01FFF800
00000000
00000000
00000000
FFFFFFE0
FFFFFFE0
FFFFFFE0
00000000
00000000
00000000
00007800
0001F800
0003F800
0007F800
000FF800
001FF800
0079F800
00F1F800
01E1F800
03C1F800
0F81F800
1E01F800
1FFFFF80
1FFFFF80
1FFFFF80
0001F800
0001F800
001FFF80
001FFF80
001FFF80
ENDCHAR
STARTCHAR 00BD
ENCODING 189
SWIDTH 558 0
DWIDTH 31 0
BBX 27 49 0 -4
BITMAP
00010000
00070000
003F0000
00FF0000
01FF0000
01FF0000
019F0000
001F0000
001F0000
001F0000
001F0000
001F0000
001F0000
001F0000
001F0000
001F0000
001F0000
001F0000
01FFF800
01FFF800
00000000
00000000
00000000
FFFFFFE0
FFFFFFE0
FFFFFFE0
00000000
00000000
00000000
1C7FF800
1CFFFE00
1DF0FF00
1F803F00
1F801F80
1F001F80
00001F00
00003F00
0003FE00
01FFFC00
07FFF000
0FF00000
0FC00000
1F800380
1F000780
1F000F80
1F000F80
1FFFFF80
1FFFFF80
1FFFFF80
ENDCHAR
STARTCHAR 00BE
ENCODING 190
SWIDTH 558 0
DWIDTH 31 0
BBX 27 49 0 -4
BITMAP
1FFFFF80
1FFFFF80
1FFFFF80
1F00FE00
1E01F800
1C07F000
1C1FC000
003F0000
00FFF800
01FFFE00
01E0FF00
00803F00
00001F00
00001F80
00001F80
1F001F00
1F803F00
0FE1FF00
07FFFC00
01FFF000
00000000
00000000
00000000
FFFFFFE0
FFFFFFE0
FFFFFFE0
00000000
00000000
00000000
00007800
0001F800
0003F800
0007F800
000FF800
001FF800
0079F800
00F1F800
01E1F800
03C1F800
0F81F800
1E01F800
1FFFFF80
1FFFFF80
1FFFFF80
0001F800
0001F800
001FFF80
001FFF80
001FFF80
ENDCHAR
STARTCHAR 00BF
ENCODING 191
SWIDTH 558 0
DWIDTH 31 0
BBX 27 41 0 0
BITMAP
0007C000
000FE000
000FF000
000FF000
000FF000
000FF000
000FE000
0007C000
00000000
00000000
00000000
00000000
00038000
00038000
00038000
00038000
00038000
00070000
000F0000
03FE0000
0FFC0000
1FF00000
3F000000
7E000000
7C000000
7C000000
FC000000
FC000000
FC000000
F8000000
F8000000
FC0003E0
FC0003E0
FC0003E0
7C0007E0
7E0007E0
3F000FE0
1F803CE0
0FFFFCE0
07FFF0E0
00FFC0E0
ENDCHAR
STARTCHAR 00C0
ENCODING 192
SWIDTH 612 0
DWIDTH 34 0
BBX 30 49 0 0
BITMAP
03F00000
01F80000
00F80000
007C0000
001E0000
000E0000
00070000
00000000
00038000
00078000
00078000
00078000
0007C000
000FC000
000FC000
000FC000
000FE000
001FE000
001FE000
001BE000
001BF000
003BF000
0039F000
0031F000
0031F800
0071F800
0070F800
0070F800
0060FC00
00E0FC00
00E07C00
00E07C00
00C07E00
01C07E00
01C07E00
01C03E00
01803F00
03FFFF00
03FFFF00
03FFFF00
03001F80
07001F80
07000F80
07000F80
06000FC0
0E000FC0
FFE0FFFC
FFE0FFFC
FFE0FFFC
ENDCHAR
STARTCHAR 00C1
ENCODING 193
SWIDTH 612 0
DWIDTH 34 0
BBX 30 49 0 0
BITMAP
00003F00
00007E00
0000FC00
0000F000
0001E000
0001C000
00038000
00000000
00038000
00078000
00078000
00078000
0007C000
000FC000
000FC000
000FC000
000FE000
001FE000
001FE000
001BE000
001BF000
003BF000
0039F000
0031F000
0031F800
0071F800
0070F800
0070F800
0060FC00
00E0FC00
00E07C00
00E07C00
00C07E00
01C07E00
01C07E00
01C03E00
01803F00
03FFFF00
03FFFF00
03FFFF00
03001F80
07001F80
07000F80
07000F80
06000FC0
0E000FC0
FFE0FFFC
FFE0FFFC
FFE0FFFC
ENDCHAR
STARTCHAR 00C2
ENCODING 194
SWIDTH 612 0
DWIDTH 34 0
BBX 30 49 0 0
BITMAP
00020000
000F8000
003FE000
01FDFC00
07F03F00
03800E00
00000200
00000000
00038000
00078000
00078000
00078000
0007C000
000FC000
000FC000
000FC000
000FE000
001FE000
001FE000
001BE000
001BF000
003BF000
0039F000
0031F000
0031F800
0071F800
0070F800
0070F800
0060FC00
00E0FC00
00E07C00
00E07C00
00C07E00
01C07E00
01C07E00
01C03E00
01803F00
03FFFF00
03FFFF00
03FFFF00
03001F80
07001F80
07000F80
07000F80
06000FC0
0E000FC0
FFE0FFFC
FFE0FFFC
FFE0FFFC
ENDCHAR
STARTCHAR 00C3
ENCODING 195
SWIDTH 612 0
DWIDTH 34 0
BBX 30 50 0 0
BITMAP
00780000
01FC0000
03FE0000
07CF0600
03079F00
0003FE00
0001FC00
00006000
00000000
00038000
00078000
00078000
00078000
0007C000
000FC000
000FC000
000FC000
000FE000
001FE000
001FE000
001BE000
001BF000
003BF000
0039F000
0031F000
0031F800
0071F800
0070F800
0070F800
0060FC00
00E0FC00
00E07C00
00E07C00
00C07E00
01C07E00
01C07E00
01C03E00
01803F00
03FFFF00
03FFFF00
03FFFF00
03001F80
07001F80
07000F80
07000F80
06000FC0
0E000FC0
FFE0FFFC
FFE0FFFC
FFE0FFFC
ENDCHAR
STARTCHAR 00C4
ENCODING 196
SWIDTH 612 0
DWIDTH 34 0
BBX 30 48 0 0
BITMAP
03800E00
07C01F00
07C01F00
07C01F00
07C01F00
01800400
00000000
00038000
00078000
00078000
00078000
0007C000
000FC000
000FC000
000FC000
000FE000
001FE000
001FE000
001BE000
001BF000
003BF000
0039F000
0031F000
0031F800
0071F800
0070F800
0070F800
0060FC00
00E0FC00
00E07C00
00E07C00
00C07E00
01C07E00
01C07E00
01C03E00
01803F00
03FFFF00
03FFFF00
03FFFF00
03001F80
07001F80
07000F80
07000F80
06000FC0
0E000FC0
FFE0FFFC
FFE0FFFC
FFE0FFFC
ENDCHAR
STARTCHAR 00C5
ENCODING 197
SWIDTH 612 0
DWIDTH 34 0
BBX 30 50 0 0
BITMAP
00038000
000FC000
000EE000
000C6000
000C6000
000EE000
0007C000
00010000
00000000
00038000
00078000
00078000
00078000
0007C000
000FC000
000FC000
000FC000
000FE000
001FE000
001FE000
001BE000
001BF000
003BF000
0039F000
0031F000
0031F800
0071F800
0070F800
0070F800
0060FC00
00E0FC00
00E07C00
00E07C00
00C07E00
01C07E00
01C07E00
01C03E00
01803F00
03FFFF00
03FFFF00
03FFFF00
03001F80
07001F80
07000F80
07000F80
06000FC0
0E000FC0
FFE0FFFC
FFE0FFFC
FFE0FFFC
ENDCHAR
STARTCHAR 00C6
ENCODING 198
SWIDTH 864 0
DWIDTH 48 0
BBX 44 41 0 0
BITMAP
0000FFFFFFF0
0000FFFFFFF0
0000FFFFFFF0
00001FC000F0
00001FC000F0
00003FC00070
000037C00070
000077C00000
000067C00000
0000E7C00000
0000E7C00000
0000C7C00000
0001C7C00000
000187C00000
000387C00000
000387C00000
000707C00000
000707C00000
000607C00000
000E07FFF800
000C07FFF800
001C07FFF800
001C07C00000
003807C00000
003807C00000
003007C00000
007007C00000
007007C00000
00E007C00000
00FFFFC00000
01FFFFC00000
01FFFFC00000
018007C00000
038007C00000
030007C00070
070007C00070
070007C000F0
0E0007C000F0
FFE0FFFFFFF0
FFE0FFFFFFF0
FFE0FFFFFFF0
ENDCHAR
STARTCHAR 00C7
ENCODING 199
SWIDTH 558 0
DWIDTH 31 0
BBX 27 52 0 -11
BITMAP
003FC0E0
01FFF8E0
03FFFCE0
07E03EE0
0F801FE0
1F000FE0
1F0007E0
3E0007E0
3E0003E0
7E0003E0
7C0003E0
7C000000
7C000000
FC000000
FC000000
FC000000
FC000000
FC000000
F8000000
F8000000
F8000000
F8000000
F8000000
FC000000
FC000000
FC000000
FC000000
FC000000
7C000000
7C000000
7E000060
7E000060
3E0000E0
3F0000E0
1F0000E0
1F8001C0
0FC003C0
07E00F80
03FFFF00
01FFFC00
003FE000
00038000
00070000
00070000
000FE000
000FF800
00061C00
00000C00
00000C00
00003C00
00007800
00004000
ENDCHAR
STARTCHAR 00C8
ENCODING 200
SWIDTH 558 0
DWIDTH 31 0
BBX 27 49 0 0
BITMAP
00FC0000
007E0000
003E0000
001F0000
00078000
00038000
0001C000
00000000
FFFFFFE0
FFFFFFE0
FFFFFFE0
0FC000E0
0FC000E0
0FC000E0
0FC000E0
0FC00000
0FC00000
0FC00000
0FC00000
0FC00000
0FC00000
0FC00000
0FC00000
0FC00000
0FC00000
0FC00000
0FC00000
0FFFF800
0FFFF800
0FFFF800
0FC00000
0FC00000
0FC00000
0FC00000
0FC00000
0FC00000
0FC00000
0FC00000
0FC00000
0FC00000
0FC00000
0FC00000
0FC000E0
0FC000E0
0FC000E0
0FC001E0
FFFFFFE0
FFFFFFE0
FFFFFFE0
ENDCHAR
STARTCHAR 00C9
ENCODING 201
SWIDTH 558 0
DWIDTH 31 0
BBX 27 49 0 0
BITMAP
0001F800
0003F000
0007E000
00078000
000F0000
000E0000
001C0000
00000000
FFFFFFE0
FFFFFFE0
FFFFFFE0
0FC000E0
0FC000E0
0FC000E0
0FC000E0
0FC00000
0FC00000
0FC00000
0FC00000
0FC00000
0FC00000
0FC00000
0FC00000
0FC00000
0FC00000
0FC00000
0FC00000
0FFFF800
0FFFF800
0FFFF800
0FC00000
0FC00000
0FC00000
0FC00000
0FC00000
0FC00000
0FC00000
0FC00000
0FC00000
0FC00000
0FC00000
0FC00000
0FC000E0
0FC000E0
0FC000E0
0FC001E0
FFFFFFE0
FFFFFFE0
FFFFFFE0
ENDCHAR
STARTCHAR 00CA
ENCODING 202
SWIDTH 558 0
DWIDTH 31 0
BBX 27 49 0 0
BITMAP
00020000
000F8000
003FE000
01FDFC00
07F03F00
03800E00
00000200
00000000
FFFFFFE0
FFFFFFE0
FFFFFFE0
0FC000E0
0FC000E0
0FC000E0
0FC000E0
0FC00000
0FC00000
0FC00000
0FC00000
0FC00000
0FC00000
0FC00000
0FC00000
0FC00000
0FC00000
0FC00000
0FC00000
0FFFF800
0FFFF800
0FFFF800
0FC00000
0FC00000
0FC00000
0FC00000
0FC00000
0FC00000
0FC00000
0FC00000
0FC00000
0FC00000
0FC00000
0FC00000
0FC000E0
0FC000E0
0FC000E0
0FC001E0
FFFFFFE0
FFFFFFE0
FFFFFFE0
ENDCHAR
STARTCHAR 00CB
ENCODING 203
SWIDTH 558 0
DWIDTH 31 0
BBX 27 48 0 0
BITMAP
03800E00
07C01F00
07C01F00
07C01F00
07C01F00
01800400
00000000
FFFFFFE0
FFFFFFE0
FFFFFFE0
0FC000E0
0FC000E0
0FC000E0
0FC000E0
0FC00000
0FC00000
0FC00000
0FC00000
0FC00000
0FC00000
0FC00000
0FC00000
0FC00000
0FC00000
0FC00000
0FC00000
0FFFF800
0FFFF800
0FFFF800
0FC00000
0FC00000
0FC00000
0FC00000
0FC00000
0FC00000
0FC00000
0FC00000
0FC00000
0FC00000
0FC00000
0FC00000
0FC000E0
0FC000E0
0FC000E0
0FC001E0
FFFFFFE0
FFFFFFE0
FFFFFFE0
ENDCHAR
STARTCHAR 00CC
ENCODING 204
SWIDTH 324 0
DWIDTH 18 0
BBX 15 49 1 0
BITMAP
FC00
7E00
3E00
1F00
0F00
0380
01C0
0000
3FFE
3FFE
3FFE
03E0
03E0
03E0
03E0
03E0
03E0
03E0
03E0
03E0
03E0
03E0
03E0
03E0
03E0
03E0
03E0
03E0
03E0
03E0
03E0
03E0
03E0
03E0
03E0
03E0
03E0
03E0
03E0
03E0
03E0
03E0
03E0
03E0
03E0
03E0
3FFE
3FFE
3FFE
ENDCHAR
STARTCHAR 00CD
ENCODING 205
SWIDTH 324 0
DWIDTH 18 0
BBX 15 49 0 0
BITMAP
007E
00FC
01F8
01E0
03C0
0380
0700
0000
FFFC
FFFC
FFFC
0FC0
0FC0
0FC0
0FC0
0FC0
0FC0
0FC0
0FC0
0FC0
0FC0
0FC0
0FC0
0FC0
0FC0
0FC0
0FC0
0FC0
0FC0
0FC0
0FC0
0FC0
0FC0
0FC0
0FC0
0FC0
0FC0
0FC0
0FC0
0FC0
0FC0
0FC0
0FC0
0FC0
0FC0
0FC0
FFFC
FFFC
FFFC
ENDCHAR
STARTCHAR 00CE
ENCODING 206
SWIDTH 324 0
DWIDTH 18 0
BBX 19 48 0 1
BITMAP
01F000
07FC00
3FBF00
FC0FE0
F001C0
400000
000000
1FFF00
1FFF00
1FFF00
01F000
01F000
01F000
01F000
01F000
01F000
01F000
01F000
01F000
01F000
01F000
01F000
01F000
01F000
01F000
01F000
01F000
01F000
01F000
01F000
01F000
01F000
01F000
01F000
01F000
01F000
01F000
01F000
01F000
01F000
01F000
01F000
01F000
01F000
01F000
1FFF00
1FFF00
1FFF00
ENDCHAR
STARTCHAR 00CF
ENCODING 207
SWIDTH 324 0
DWIDTH 18 0
BBX 19 48 0 0
BITMAP
7001C0
F803E0
F807E0
F807E0
F803E0
200180
000000
1FFF00
1FFF00
1FFF00
01F000
01F000
01F000
01F000
01F000
01F000
01F000
01F000
01F000
01F000
01F000
01F000
01F000
01F000
01F000
01F000
01F000
01F000
01F000
01F000
01F000
01F000
01F000
01F000
01F000
01F000
01F000
01F000
01F000
01F000
01F000
01F000
01F000
01F000
01F000
1FFF00
1FFF00
1FFF00
ENDCHAR
STARTCHAR 00D0
ENCODING 208
SWIDTH 558 0
DWIDTH 31 0
BBX 27 41 0 0
BITMAP
FFFFC000
FFFFF000
FFFFFC00
0FC07E00
0FC03E00
0FC01F00
0FC01F80
0FC00F80
0FC00FC0
0FC007C0
0FC007C0
0FC007C0
0FC007E0
0FC007E0
0FC003E0
0FC003E0
0FC003E0
0FC003E0
0FC003E0
FFFC03E0
FFFC03E0
FFFC03E0
0FC003E0
0FC003E0
0FC003E0
0FC003E0
0FC003E0
0FC007E0
0FC007E0
0FC007C0
0FC007C0
0FC007C0
0FC00FC0
0FC00F80
0FC01F80
0FC01F00
0FC03E00
0FC07E00
FFFFFC00
FFFFF000
FFFFC000
ENDCHAR
STARTCHAR 00D1
ENCODING 209
SWIDTH 612 0
DWIDTH 34 0
BBX 30 50 0 0
BITMAP
00780000
01FC0000
03FE0000
07CF0600
03079F00
0003FE00
0001FC00
00006000
00000000
FFC01FFC
FFC01FFC
FFE01FFC
0FE001C0
0FF001C0
0FF001C0
0FF801C0
0FF801C0
0FFC01C0
0FFC01C0
0EFE01C0
0EFE01C0
0E7F01C0
0E7F01C0
0E3F81C0
0E3F81C0
0E1FC1C0
0E1FC1C0
0E0FC1C0
0E0FE1C0
0E0FE1C0
0E07F1C0
0E07F1C0
0E03F9C0
0E03F9C0
0E01FDC0
0E01FDC0
0E00FFC0
0E00FFC0
0E007FC0
0E007FC0
0E003FC0
0E003FC0
0E003FC0
0E001FC0
0E001FC0
0E000FC0
0E000FC0
FFE007C0
FFE007C0
FFE003C0
ENDCHAR
STARTCHAR 00D2
ENCODING 210
SWIDTH 558 0
DWIDTH 31 0
BBX 27 49 0 0
BITMAP
07E00000
03F00000
01F00000
00F80000
003C0000
001C0000
000E0000
00000000
003FC000
01FFF000
03FFFC00
07E07E00
0F803E00
1F001F00
1F001F80
3E000F80
3E000FC0
7E0007C0
7C0007C0
7C0007C0
7C0007E0
FC0007E0
FC0003E0
FC0003E0
FC0003E0
FC0003E0
F80003E0
F80003E0
F80003E0
F80003E0
F80003E0
FC0003E0
FC0003E0
FC0003E0
FC0003E0
FC0007E0
7C0007E0
7C0007C0
7C0007C0
7E0007C0
3E000FC0
3E000F80
1F001F80
1F001F00
0F803E00
07E07E00
03FFFC00
01FFF000
003FC000
ENDCHAR
STARTCHAR 00D3
ENCODING 211
SWIDTH 558 0
DWIDTH 31 0
BBX 27 49 0 0
BITMAP
0000FC00
0001F800
0003F000
0003C000
00078000
00070000
000E0000
00000000
003FC000
01FFF000
03FFFC00
07E07E00
0F803E00
1F001F00
1F001F80
3E000F80
3E000FC0
7E0007C0
7C0007C0
7C0007C0
7C0007E0
FC0007E0
FC0003E0
FC0003E0
FC0003E0
FC0003E0
F80003E0
F80003E0
F80003E0
F80003E0
F80003E0
FC0003E0
FC0003E0
FC0003E0
FC0003E0
FC0007E0
7C0007E0
7C0007C0
7C0007C0
7E0007C0
3E000FC0
3E000F80
1F001F80
1F001F00
0F803E00
07E07E00
03FFFC00
01FFF000
003FC000
ENDCHAR
STARTCHAR 00D4
ENCODING 212
SWIDTH 558 0
DWIDTH 31 0
BBX 27 49 0 0
BITMAP
00040000
001F0000
007FC000
03FBF800
0FE07E00
07001C00
00000400
00000000
003FC000
01FFF000
03FFFC00
07E07E00
0F803E00
1F001F00
1F001F80
3E000F80
3E000FC0
7E0007C0
7C0007C0
7C0007C0
7C0007E0
FC0007E0
FC0003E0
FC0003E0
FC0003E0
FC0003E0
F80003E0
F80003E0
F80003E0
F80003E0
F80003E0
FC0003E0
FC0003E0
FC0003E0
FC0003E0
FC0007E0
7C0007E0
7C0007C0
7C0007C0
7E0007C0
3E000FC0
3E000F80
1F001F80
1F001F00
0F803E00
07E07E00
03FFFC00
01FFF000
003FC000
ENDCHAR
STARTCHAR 00D5
ENCODING 213
SWIDTH 558 0
DWIDTH 31 0
BBX 27 50 0 0
BITMAP
00F00000
03F80000
07FC0000
0F9E0C00
060F3E00
0007FC00
0003F800
0000C000
00000000
003FC000
01FFF000
03FFFC00
07E07E00
0F803E00
1F001F00
1F001F80
3E000F80
3E000FC0
7E0007C0
7C0007C0
7C0007C0
7C0007E0
FC0007E0
FC0003E0
FC0003E0
FC0003E0
FC0003E0
F80003E0
F80003E0
F80003E0
F80003E0
F80003E0
FC0003E0
FC0003E0
FC0003E0
FC0003E0
FC0007E0
7C0007E0
7C0007C0
7C0007C0
7E0007C0
3E000FC0
3E000F80
1F001F80
1F001F00
0F803E00
07E07E00
03FFFC00
01FFF000
003FC000
ENDCHAR
STARTCHAR 00D6
ENCODING 214
SWIDTH 558 0
DWIDTH 31 0
BBX 27 48 0 0
BITMAP
07001C00
0F803E00
0F803E00
0F803E00
0F803E00
03000800
00000000
003FC000
01FFF000
03FFFC00
07E07E00
0F803E00
1F001F00
1F001F80
3E000F80
3E000FC0
7E0007C0
7C0007C0
7C0007C0
7C0007E0
FC0007E0
FC0003E0
FC0003E0
FC0003E0
FC0003E0
F80003E0
F80003E0
F80003E0
F80003E0
F80003E0
FC0003E0
FC0003E0
FC0003E0
FC0003E0
FC0007E0
7C0007E0
7C0007C0
7C0007C0
7E0007C0
3E000FC0
3E000F80
1F001F80
1F001F00
0F803E00
07E07E00
03FFFC00
01FFF000
003FC000
ENDCHAR
STARTCHAR 00D7
ENCODING 215
SWIDTH 432 0
DWIDTH 24 0
BBX 19 19 0 11
BITMAP
600040
F000E0
7801E0
3C03C0
1E0780
0F0F00
079E00
03FC00
01F800
00F000
01F800
03FC00
079E00
0F0F00
1E0780
3C03C0
7801E0
F000E0
600040
ENDCHAR
STARTCHAR 00D8
ENCODING 216
SWIDTH 558 0
DWIDTH 31 0
BBX 27 41 0 0
BITMAP
003FC0E0
01FFF1C0
03FFFFC0
07E07F80
0F803F80
1F001F00
1F001F80
3E000F80
3E001FC0
7E003FC0
7C003FC0
7C007FC0
7C0077E0
FC00E7E0
FC01E3E0
FC01C3E0
FC03C3E0
FC0383E0
F80783E0
F80703E0
F80E03E0
F81E03E0
F81C03E0
FC3C03E0
FC3803E0
FC7003E0
FCF003E0
FCE007E0
7DE007E0
7DC007C0
7FC007C0
7F8007C0
3F000FC0
3F000F80
1F001F80
1F001F00
1F803E00
3FE07E00
7BFFFC00
71FFF000
F03FC000
ENDCHAR
STARTCHAR 00D9
ENCODING 217
SWIDTH 594 0
DWIDTH 33 0
BBX 29 49 0 0
BITMAP
03F00000
01F80000
00F80000
007C0000
001E0000
000E0000
00070000
00000000
FFFC3FF8
FFFC3FF8
FFFC3FF8
0FC00380
0FC00380
0FC00380
0FC00380
0FC00380
0FC00380
0FC00380
0FC00380
0FC00380
0FC00380
0FC00380
0FC00380
0FC00380
0FC00380
0FC00380
0FC00380
0FC00380
0FC00380
0FC00380
0FC00380
0FC00380
0FC00380
0FC00380
0FC00380
0FC00380
0FC00380
0FC00380
0FC00380
0FC00380
0FC00380
0FC00380
0FC00300
0FC00700
07E00700
07F01E00
03FFFE00
01FFF800
003FE000
ENDCHAR
STARTCHAR 00DA
ENCODING 218
SWIDTH 594 0
DWIDTH 33 0
BBX 29 49 0 0
BITMAP
00003F00
00007E00
0000FC00
0000F000
0001E000
0001C000
00038000
00000000
FFFC3FF8
FFFC3FF8
FFFC3FF8
0FC00380
0FC00380
0FC00380
0FC00380
0FC00380
0FC00380
0FC00380
0FC00380
0FC00380
0FC00380
0FC00380
0FC00380
0FC00380
0FC00380
0FC00380
0FC00380
0FC00380
0FC00380
0FC00380
0FC00380
0FC00380
0FC00380
0FC00380
0FC00380
0FC00380
0FC00380
0FC00380
0FC00380
0FC00380
0FC00380
0FC00380
0FC00300
0FC00700
07E00700
07F01E00
03FFFE00
01FFF800
003FE000
ENDCHAR
STARTCHAR 00DB
ENCODING 219
SWIDTH 594 0
DWIDTH 33 0
BBX 29 49 0 0
BITMAP
00020000
000F8000
003FE000
01FDFC00
07F03F00
03800E00
00000200
00000000
FFFC3FF8
FFFC3FF8
FFFC3FF8
0FC00380
0FC00380
0FC00380
0FC00380
0FC00380
0FC00380
0FC00380
0FC00380
0FC00380
0FC00380
0FC00380
0FC00380
0FC00380
0FC00380
0FC00380
0FC00380
0FC00380
0FC00380
0FC00380
0FC00380
0FC00380
0FC00380
0FC00380
0FC00380
0FC00380
0FC00380
0FC00380
0FC00380
0FC00380
0FC00380
0FC00380
0FC00300
0FC00700
07E00700
07F01E00
03FFFE00
01FFF800
003FE000
ENDCHAR
STARTCHAR 00DC
ENCODING 220
SWIDTH 594 0
DWIDTH 33 0
BBX 29 48 0 0
BITMAP
03800E00
07C01F00
07C01F00
07C01F00
07C01F00
01800400
00000000
FFFC3FF8
FFFC3FF8
FFFC3FF8
0FC00380
0FC00380
0FC00380
0FC00380
0FC00380
0FC00380
0FC00380
0FC00380
0FC00380
0FC00380
0FC00380
0FC00380
0FC00380
0FC00380
0FC00380
0FC00380
0FC00380
0FC00380
0FC00380
0FC00380
0FC00380
0FC00380
0FC00380
0FC00380
0FC00380
0FC00380
0FC00380
0FC00380
0FC00380
0FC00380
0FC00380
0FC00300
0FC00700
07E00700
07F01E00
03FFFE00
01FFF800
003FE000
ENDCHAR
STARTCHAR 00DD
ENCODING 221
SWIDTH 558 0
DWIDTH 31 0
BBX 27 49 0 0
BITMAP
0000FC00
0001F800
0003F000
0003C000
00078000
00070000
000E0000
00000000
FFFCFFE0
FFFCFFE0
FFFCFFE0
0FC00E00
07C00E00
07C00C00
07E01C00
03E01C00
03E01800
03F01800
01F03800
01F03800
01F03000
01F87000
00F87000
00F86000
00FC6000
007CE000
007CC000
007CC000
003FC000
003F8000
003F8000
001F8000
001F0000
001F0000
001F0000
001F0000
001F0000
001F0000
001F0000
001F0000
001F0000
001F0000
001F0000
001F0000
001F0000
001F0000
01FFF800
01FFF800
01FFF800
ENDCHAR
STARTCHAR 00DE
ENCODING 222
SWIDTH 558 0
DWIDTH 31 0
BBX 27 41 0 0
BITMAP
FFFC0000
FFFC0000
FFFC0000
0FC00000
0FC00000
0FC00000
0FC00000
0FC00000
0FFF8000
0FFFF800
0FFFFE00
0FC07F00
0FC01F80
0FC00FC0
0FC007C0
0FC007E0
0FC007E0
0FC003E0
0FC003E0
0FC003E0
0FC003E0
0FC003E0
0FC003E0
0FC003E0
0FC007E0
0FC007E0
0FC007C0
0FC00FC0
0FC01F80
0FC07F00
0FFFFE00
0FFFF800
0FFFC000
0FC00000
0FC00000
0FC00000
0FC00000
0FC00000
FFFC0000
FFFC0000
FFFC0000
ENDCHAR
STARTCHAR 00DF
ENCODING 223
SWIDTH 576 0
DWIDTH 32 0
BBX 27 41 0 0
BITMAP
001FF000
007FFC00
01FFFF00
03F03F80
03E00FC0
07E007C0
07C007E0
07C007E0
0FC003E0
0FC003E0
0FC003E0
0FC003E0
0FC003E0
0FC003E0
0FC003E0
0FC007E0
0FC007C0
0FC00FC0
0FC03F80
0FCFFF00
0FCFE000
0FCFFE00
0FC07F80
0FC01FC0
0FC00FC0
0FC007E0
0FC007E0
0FC003E0
0FC003E0
0FC003E0
0FC003E0
0FC003E0
0FC003E0
FFC003E0
FFC007E0
FFC007C0
0FC00FC0
0FC03F80
0FCFFF00
0FCFFC00
0FCFE000
ENDCHAR
STARTCHAR 00E0
ENCODING 224
SWIDTH 558 0
DWIDTH 31 0
BBX 27 38 0 0
BITMAP
0FC00000
07E00000
03E00000
01F00000
00780000
00380000
001C0000
00000000
00000000
00000000
00000000
03FFE000
0FFFFC00
1FE3FE00
3F003F00
3E001F00
3E001F80
7E001F80
00001F80
00001F80
00001F80
00001F80
00007F80
01FFFF80
0FFFFF80
3FFE1F80
7F001F80
7E001F80
FC001F80
FC001F80
FC001F80
F8001F80
FC003F80
FC007F80
7F00FF80
3FFFFBE0
1FFFF1E0
01FF80E0
ENDCHAR
STARTCHAR 00E1
ENCODING 225
SWIDTH 558 0
DWIDTH 31 0
BBX 27 38 0 0
BITMAP
0001F800
0003F000
0007E000
00078000
000F0000
000E0000
001C0000
00000000
00000000
00000000
00000000
03FFE000
0FFFFC00
1FE3FE00
3F003F00
3E001F00
3E001F80
7E001F80
00001F80
00001F80
00001F80
00001F80
00007F80
01FFFF80
0FFFFF80
3FFE1F80
7F001F80
7E001F80
FC001F80
FC001F80
FC001F80
F8001F80
FC003F80
FC007F80
7F00FF80
3FFFFBE0
1FFFF1E0
01FF80E0
ENDCHAR
STARTCHAR 00E2
ENCODING 226
SWIDTH 558 0
DWIDTH 31 0
BBX 27 38 0 0
BITMAP
00080000
003E0000
00FF8000
07F7F000
1FC0FC00
0E003800
00000800
00000000
00000000
00000000
00000000
03FFE000
0FFFFC00
1FE3FE00
3F003F00
3E001F00
3E001F80
7E001F80
00001F80
00001F80
00001F80
00001F80
00007F80
01FFFF80
0FFFFF80
3FFE1F80
7F001F80
7E001F80
FC001F80
FC001F80
FC001F80
F8001F80
FC003F80
FC007F80
7F00FF80
3FFFFBE0
1FFFF1E0
01FF80E0
ENDCHAR
STARTCHAR 00E3
ENCODING 227
SWIDTH 558 0
DWIDTH 31 0
BBX 27 39 0 0
BITMAP
01E00000
07F00000
0FF80000
1F3C1800
0C1E7C00
000FF800
0007F000
00018000
00000000
00000000
00000000
00000000
03FFE000
0FFFFC00
1FE3FE00
3F003F00
3E001F00
3E001F80
7E001F80
00001F80
00001F80
00001F80
00001F80
00007F80
01FFFF80
0FFFFF80
3FFE1F80
7F001F80
7E001F80
FC001F80
FC001F80
FC001F80
F8001F80
FC003F80
FC007F80
7F00FF80
3FFFFBE0
1FFFF1E0
01FF80E0
ENDCHAR
STARTCHAR 00E4
ENCODING 228
SWIDTH 558 0
DWIDTH 31 0
BBX 27 37 0 0
BITMAP
0E003800
1F007C00
1F007C00
1F007C00
1F007C00
06001000
00000000
00000000
00000000
00000000
03FFE000
0FFFFC00
1FE3FE00
3F003F00
3E001F00
3E001F80
7E001F80
00001F80
00001F80
00001F80
00001F80
00007F80
01FFFF80
0FFFFF80
3FFE1F80
7F001F80
7E001F80
FC001F80
FC001F80
FC001F80
F8001F80
FC003F80
FC007F80
7F00FF80
3FFFFBE0
1FFFF1E0
01FF80E0
ENDCHAR
STARTCHAR 00E5
ENCODING 229
SWIDTH 558 0
DWIDTH 31 0
BBX 27 39 0 0
BITMAP
000E0000
003F0000
003B8000
00318000
00318000
003B8000
001F0000
00040000
00000000
00000000
00000000
00000000
03FFE000
0FFFFC00
1FE3FE00
3F003F00
3E001F00
3E001F80
7E001F80
00001F80
00001F80
00001F80
00001F80
00007F80
01FFFF80
0FFFFF80
3FFE1F80
7F001F80
7E001F80
FC001F80
FC001F80
FC001F80
F8001F80
FC003F80
FC007F80
7F00FF80
3FFFFBE0
1FFFF1E0
01FF80E0
ENDCHAR
STARTCHAR 00E6
ENCODING 230
SWIDTH 918 0
DWIDTH 51 0
BBX 46 27 0 0
BITMAP
03FFC03FFE00
0FFFF0FFFF80
1FE3F9FE3FE0
3F003FF007F0
3E001FE001F8
3E001FC001F8
7E001FC000FC
00001F8000FC
00001F80007C
00001F80007C
00001F80007C
00007F80007C
01FFFFFFFFFC
0FFFFFFFFFFC
3FFE1FFFFFFC
7F001F800000
7E001F800000
FC001F800000
FC001F800000
FC001F80000C
F8001FC0001C
FC003FE0001C
FC007FF0003C
7F00FFFC00F8
3FFFF9FFFFF0
1FFFF0FFFFC0
01FF801FFE00
ENDCHAR
STARTCHAR 00E7
ENCODING 231
SWIDTH 558 0
DWIDTH 31 0
BBX 27 38 0 -11
BITMAP
00FFE0E0
07FFF8E0
0FF1FCE0
1F801EE0
3F0007E0
3E0007E0
7E0003E0
7C0003E0
7C000000
FC000000
FC000000
FC000000
F8000000
F8000000
F8000000
FC000000
FC000000
FC000000
7C000000
7E000060
7E0000E0
3F0000E0
3F8001C0
1FE007C0
0FFFFF80
03FFFE00
007FF000
00070000
000E0000
000E0000
001FC000
001FF000
000C3800
00001800
00001800
00007800
0000F000
00008000
ENDCHAR
STARTCHAR 00E8
ENCODING 232
SWIDTH 558 0
DWIDTH 31 0
BBX 27 38 0 0
BITMAP
07E00000
03F00000
01F00000
00F80000
003C0000
001C0000
000E0000
00000000
00000000
00000000
00000000
00FFF000
07FFFC00
0FF1FF00
1F803F80
3F000F80
3E000FC0
7C0007C0
7C0007E0
7C0003E0
FC0003E0
FC0003E0
F80003E0
FFFFFFE0
FFFFFFE0
FFFFFFE0
F8000000
FC000000
FC000000
7C000000
7C000060
7E0000E0
3E0000E0
3F8001C0
1FC007C0
0FFFFF80
03FFFE00
007FF000
ENDCHAR
STARTCHAR 00E9
ENCODING 233
SWIDTH 558 0
DWIDTH 31 0
BBX 27 38 0 0
BITMAP
0001F800
0003F000
0007E000
00078000
000F0000
000E0000
001C0000
00000000
00000000
00000000
00000000
00FFF000
07FFFC00
0FF1FF00
1F803F80
3F000F80
3E000FC0
7C0007C0
7C0007E0
7C0003E0
FC0003E0
FC0003E0
F80003E0
FFFFFFE0
FFFFFFE0
FFFFFFE0
F8000000
FC000000
FC000000
7C000000
7C000060
7E0000E0
3E0000E0
3F8001C0
1FC007C0
0FFFFF80
03FFFE00
007FF000
ENDCHAR
STARTCHAR 00EA
ENCODING 234
SWIDTH 558 0
DWIDTH 31 0
BBX 27 38 0 0
BITMAP
00040000
001F0000
007FC000
03FBF800
0FE07E00
07001C00
00000400
00000000
00000000
00000000
00000000
00FFF000
07FFFC00
0FF1FF00
1F803F80
3F000F80
3E000FC0
7C0007C0
7C0007E0
7C0003E0
FC0003E0
FC0003E0
F80003E0
FFFFFFE0
FFFFFFE0
FFFFFFE0
F8000000
FC000000
FC000000
7C000000
7C000060
7E0000E0
3E0000E0
3F8001C0
1FC007C0
0FFFFF80
03FFFE00
007FF000
ENDCHAR
STARTCHAR 00EB
ENCODING 235
SWIDTH 558 0
DWIDTH 31 0
BBX 27 37 0 0
BITMAP
07001C00
0F803E00
0F803E00
0F803E00
0F803E00
03000800
00000000
00000000
00000000
00000000
00FFF000
07FFFC00
0FF1FF00
1F803F80
3F000F80
3E000FC0
7C0007C0
7C0007E0
7C0003E0
FC0003E0
FC0003E0
F80003E0
FFFFFFE0
FFFFFFE0
FFFFFFE0
F8000000
FC000000
FC000000
7C000000
7C000060
7E0000E0
3E0000E0
3F8001C0
1FC007C0
0FFFFF80
03FFFE00
007FF000
ENDCHAR
STARTCHAR 00EC
ENCODING 236
SWIDTH 324 0
DWIDTH 18 0
BBX 15 38 1 0
BITMAP
FC00
7E00
3E00
1F00
0F00
0380
01C0
0000
0000
0000
0000
3FE0
3FE0
03E0
03E0
03E0
03E0
03E0
03E0
03E0
03E0
03E0
03E0
03E0
03E0
03E0
03E0
03E0
03E0
03E0
03E0
03E0
03E0
03E0
03E0
3FFE
3FFE
3FFE
ENDCHAR
STARTCHAR 00ED
ENCODING 237
SWIDTH 324 0
DWIDTH 18 0
BBX 15 38 0 0
BITMAP
007E
00FC
01F8
01E0
03C0
0380
0700
0000
0000
0000
0000
FFC0
FFC0
0FC0
0FC0
0FC0
0FC0
0FC0
0FC0
0FC0
0FC0
0FC0
0FC0
0FC0
0FC0
0FC0
0FC0
0FC0
0FC0
0FC0
0FC0
0FC0
0FC0
0FC0
0FC0
FFFC
FFFC
FFFC
ENDCHAR
STARTCHAR 00EE
ENCODING 238
SWIDTH 324 0
DWIDTH 18 0
BBX 14 37 0 1
BITMAP
0780
0FE0
3EF8
F87C
601C
0000
0000
0000
0000
0000
FFC0
FFC0
0FC0
0FC0
0FC0
0FC0
0FC0
0FC0
0FC0
0FC0
0FC0
0FC0
0FC0
0FC0
0FC0
0FC0
0FC0
0FC0
0FC0
0FC0
0FC0
0FC0
0FC0
0FC0
FFFC
FFFC
FFFC
ENDCHAR
STARTCHAR 00EF
ENCODING 239
SWIDTH 324 0
DWIDTH 18 0
BBX 19 37 0 0
BITMAP
7001C0
F803E0
F807E0
F807E0
F803E0
200180
000000
000000
000000
000000
1FF000
1FF000
01F000
01F000
01F000
01F000
01F000
01F000
01F000
01F000
01F000
01F000
01F000
01F000
01F000
01F000
01F000
01F000
01F000
01F000
01F000
01F000
01F000
01F000
1FFF00
1FFF00
1FFF00
ENDCHAR
STARTCHAR 00F0
ENCODING 240
SWIDTH 558 0
DWIDTH 31 0
BBX 27 41 0 0
BITMAP
78000000
7F800000
7FE00C00
03FC1E00
007F7C00
001FF000
0007E000
000FF000
003EF800
00787C00
00303E00
00001F00
00001F00
00000F80
00FF8FC0
07FFE7C0
0FF1F7C0
1F803FE0
3F001FE0
3E000FE0
7E000FE0
7C0007E0
7C0007E0
FC0007E0
FC0003E0
FC0003E0
F80003E0
F80003E0
F80003E0
FC0003E0
FC0003E0
FC0003E0
7C0007E0
7C0007C0
7E0007C0
3E000F80
3F001F80
1FC03F00
0FFFFE00
03FFF800
007FC000
ENDCHAR
STARTCHAR 00F1
ENCODING 241
SWIDTH 666 0
DWIDTH 37 0
BBX 33 39 0 0
BITMAP
0078000000
01FC000000
03FE000000
07CF060000
03079F0000
0003FE0000
0001FC0000
0000600000
0000000000
0000000000
0000000000
0000000000
FFC3FF0000
FFCFFF8000
0FDE3FC000
0FF00FE000
0FE003F000
0FE003F000
0FC001F000
0FC001F000
0FC001F800
0FC001F800
0FC001F800
0FC001F800
0FC001F800
0FC001F800
0FC001F800
0FC001F800
0FC001F800
0FC001F800
0FC001F800
0FC001F800
0FC001F800
0FC001F800
0FC001F800
0FC001F800
FFFC1FFF80
FFFC1FFF80
FFFC1FFF80
ENDCHAR
STARTCHAR 00F2
ENCODING 242
SWIDTH 558 0
DWIDTH 31 0
BBX 27 38 0 0
BITMAP
07E00000
03F00000
01F00000
00F80000
003C0000
001C0000
000E0000
00000000
00000000
00000000
00000000
00FFF000
07FFFC00
0FF1FE00
1F803F00
3F001F80
3E000FC0
7E0007C0
7C0007E0
7C0007E0
FC0003E0
FC0003E0
FC0003E0
F80003E0
F80003E0
F80003E0
FC0003E0
FC0003E0
FC0007E0
7C0007E0
7C0007C0
7E000FC0
3E000FC0
3F001F80
1FC07F00
0FFFFE00
03FFF800
007FC000
ENDCHAR
STARTCHAR 00F3
ENCODING 243
SWIDTH 558 0
DWIDTH 31 0
BBX 27 38 0 0
BITMAP
0000FC00
0001F800
0003F000
0003C000
00078000
00070000
000E0000
00000000
00000000
00000000
00000000
00FFF000
07FFFC00
0FF1FE00
1F803F00
3F001F80
3E000FC0
7E0007C0
7C0007E0
7C0007E0
FC0003E0
FC0003E0
FC0003E0
F80003E0
F80003E0
F80003E0
FC0003E0
FC0003E0
FC0007E0
7C0007E0
7C0007C0
7E000FC0
3E000FC0
3F001F80
1FC07F00
0FFFFE00
03FFF800
007FC000
ENDCHAR
STARTCHAR 00F4
ENCODING 244
SWIDTH 558 0
DWIDTH 31 0
BBX 27 38 0 0
BITMAP
00040000
001F0000
007FC000
03FBF800
0FE07E00
07001C00
00000400
00000000
00000000
00000000
00000000
00FFF000
07FFFC00
0FF1FE00
1F803F00
3F001F80
3E000FC0
7E0007C0
7C0007E0
7C0007E0
FC0003E0
FC0003E0
FC0003E0
F80003E0
F80003E0
F80003E0
FC0003E0
FC0003E0
FC0007E0
7C0007E0
7C0007C0
7E000FC0
3E000FC0
3F001F80
1FC07F00
0FFFFE00
03FFF800
007FC000
ENDCHAR
STARTCHAR 00F5
ENCODING 245
SWIDTH 558 0
DWIDTH 31 0
BBX 27 39 0 0
BITMAP
00F00000
03F80000
07FC0000
0F9E0C00
060F3E00
0007FC00
0003F800
0000C000
00000000
00000000
00000000
00000000
00FFF000
07FFFC00
0FF1FE00
1F803F00
3F001F80
3E000FC0
7E0007C0
7C0007E0
7C0007E0
FC0003E0
FC0003E0
FC0003E0
F80003E0
F80003E0
F80003E0
FC0003E0
FC0003E0
FC0007E0
7C0007E0
7C0007C0
7E000FC0
3E000FC0
3F001F80
1FC07F00
0FFFFE00
03FFF800
007FC000
ENDCHAR
STARTCHAR 00F6
ENCODING 246
SWIDTH 558 0
DWIDTH 31 0
BBX 27 37 0 0
BITMAP
07001C00
0F803E00
0F803E00
0F803E00
0F803E00
03000800
00000000
00000000
00000000
00000000
00FFF000
07FFFC00
0FF1FE00
1F803F00
3F001F80
3E000FC0
7E0007C0
7C0007E0
7C0007E0
FC0003E0
FC0003E0
FC0003E0
F80003E0
F80003E0
F80003E0
FC0003E0
FC0003E0
FC0007E0
7C0007E0
7C0007C0
7E000FC0
3E000FC0
3F001F80
1FC07F00
0FFFFE00
03FFF800
007FC000
ENDCHAR
STARTCHAR 00F7
ENCODING 247
SWIDTH 522 0
DWIDTH 29 0
BBX 25 25 0 8
BITMAP
001C0000
003E0000
003E0000
003E0000
003E0000
001C0000
00000000
00000000
00000000
00000000
00000000
FFFFFF80
FFFFFF80
FFFFFF80
00000000
00000000
00000000
00000000
00000000
001C0000
003E0000
003E0000
003E0000
003E0000
001C0000
ENDCHAR
STARTCHAR 00F8
ENCODING 248
SWIDTH 558 0
DWIDTH 31 0
BBX 27 27 0 0
BITMAP
00FFF1E0
07FFFFC0
0FF1FF80
1F803F00
3F001F80
3E001FC0
7E003FC0
7C007FE0
7C00F7E0
FC01E3E0
FC03C3E0
FC0383E0
F80703E0
F80E03E0
F81C03E0
FC3803E0
FC7803E0
FCF007E0
7DE007E0
7DC007C0
7F800FC0
3F000FC0
3F001F80
1FC07F00
3FFFFE00
7BFFF800
F07FC000
ENDCHAR
STARTCHAR 00F9
ENCODING 249
SWIDTH 666 0
DWIDTH 37 0
BBX 33 38 0 0
BITMAP
03F0000000
01F8000000
00F8000000
007C000000
001E000000
000E000000
0007000000
0000000000
0000000000
0000000000
0000000000
FFC01FF800
FFC01FF800
0FC001F800
0FC001F800
0FC001F800
0FC001F800
0FC001F800
0FC001F800
0FC001F800
0FC001F800
0FC001F800
0FC001F800
0FC001F800
0FC001F800
0FC001F800
0FC001F800
0FC001F800
0FC001F800
0FC001F800
0FC001F800
07C001F800
07E003F800
07F007F800
03F80DF800
01FFFDFF80
00FFF9FF80
003FC1FF80
ENDCHAR
STARTCHAR 00FA
ENCODING 250
SWIDTH 666 0
DWIDTH 37 0
BBX 33 38 0 0
BITMAP
00003F0000
00007E0000
0000FC0000
0000F00000
0001E00000
0001C00000
0003800000
0000000000
0000000000
0000000000
0000000000
FFC01FF800
FFC01FF800
0FC001F800
0FC001F800
0FC001F800
0FC001F800
0FC001F800
0FC001F800
0FC001F800
0FC001F800
0FC001F800
0FC001F800
0FC001F800
0FC001F800
0FC001F800
0FC001F800
0FC001F800
0FC001F800
0FC001F800
0FC001F800
07C001F800
07E003F800
07F007F800
03F80DF800
01FFFDFF80
00FFF9FF80
003FC1FF80
ENDCHAR
STARTCHAR 00FB
ENCODING 251
SWIDTH 666 0
DWIDTH 37 0
BBX 33 38 0 0
BITMAP
0001000000
0007C00000
001FF00000
00FEFE0000
03F81F8000
01C0070000
0000010000
0000000000
0000000000
0000000000
0000000000
FFC01FF800
FFC01FF800
0FC001F800
0FC001F800
0FC001F800
0FC001F800
0FC001F800
0FC001F800
0FC001F800
0FC001F800
0FC001F800
0FC001F800
0FC001F800
0FC001F800
0FC001F800
0FC001F800
0FC001F800
0FC001F800
0FC001F800
0FC001F800
07C001F800
07E003F800
07F007F800
03F80DF800
01FFFDFF80
00FFF9FF80
003FC1FF80
ENDCHAR
STARTCHAR 00FC
ENCODING 252
SWIDTH 666 0
DWIDTH 37 0
BBX 33 37 0 0
BITMAP
00E0038000
01F007C000
01F007C000
01F007C000
01F007C000
0060010000
0000000000
0000000000
0000000000
0000000000
FFC01FF800
FFC01FF800
0FC001F800
0FC001F800
0FC001F800
0FC001F800
0FC001F800
0FC001F800
0FC001F800
0FC001F800
0FC001F800
0FC001F800
0FC001F800
0FC001F800
0FC001F800
0FC001F800
0FC001F800
0FC001F800
0FC001F800
0FC001F800
07C001F800
07E003F800
07F007F800
03F80DF800
01FFFDFF80
00FFF9FF80
003FC1FF80
ENDCHAR
STARTCHAR 00FD
ENCODING 253
SWIDTH 558 0
DWIDTH 31 0
BBX 27 49 0 -11
BITMAP
0001F800
0003F000
0007E000
00078000
000F0000
000E0000
001C0000
00000000
00000000
00000000
00000000
FFFCFFE0
FFFCFFE0
0FC00E00
0FC00E00
07C00E00
07E00C00
07E01C00
03E01C00
03F01800
03F03800
01F03800
01F83000
01F83000
00F87000
00FC7000
00FC6000
007CE000
007EE000
007EC000
003EC000
003FC000
003F8000
001F8000
001F8000
001F0000
000F0000
000F0000
000F0000
000E0000
000E0000
001E0000
001C0000
003C0000
00380000
00F00000
07E00000
07C00000
07000000
ENDCHAR
STARTCHAR 00FE
ENCODING 254
SWIDTH 612 0
DWIDTH 34 0
BBX 30 52 0 -11
BITMAP
FFC00000
FFC00000
FFC00000
0FC00000
0FC00000
0FC00000
0FC00000
0FC00000
0FC00000
0FC00000
0FC00000
0FC00000
0FC00000
0FC00000
0FC7FF00
0FDFFFC0
0FFF3FE0
0FF807F0
0FE003F0
0FE001F8
0FC001F8
0FC000F8
0FC000FC
0FC000FC
0FC000FC
0FC0007C
0FC0007C
0FC0007C
0FC0007C
0FC000FC
0FC000FC
0FC000FC
0FC000FC
0FC000F8
0FC001F8
0FE001F8
0FF003F0
0FF807F0
0FDFFFE0
0FCFFFC0
0FC1FE00
0FC00000
0FC00000
0FC00000
0FC00000
0FC00000
0FC00000
0FC00000
0FC00000
FFFC0000
FFFC0000
FFFC0000
ENDCHAR
STARTCHAR 00FF
ENCODING 255
SWIDTH 558 0
DWIDTH 31 0
BBX 27 48 0 -11
BITMAP
07001C00
0F803E00
0F803E00
0F803E00
0F803E00
03000800
00000000
00000000
00000000
00000000
FFFCFFE0
FFFCFFE0
0FC00E00
0FC00E00
07C00E00
07E00C00
07E01C00
03E01C00
03F01800
03F03800
01F03800
01F83000
01F83000
00F87000
00FC7000
00FC6000
007CE000
007EE000
007EC000
003EC000
003FC000
003F8000
001F8000
001F8000
001F0000
000F0000
000F0000
000F0000
000E0000
000E0000
001E0000
001C0000
003C0000
00380000
00F00000
07E00000
07C00000
07000000
ENDCHAR
STARTCHAR 0100
ENCODING 256
SWIDTH 612 0
DWIDTH 34 0
BBX 30 45 0 0
BITMAP
0FFFFFC0
0FFFFFC0
0FFFFFC0
00000000
00038000
00078000
00078000
00078000
0007C000
000FC000
000FC000
000FC000
000FE000
001FE000
001FE000
001BE000
001BF000
003BF000
0039F000
0031F000
0031F800
0071F800
0070F800
0070F800
0060FC00
00E0FC00
00E07C00
00E07C00
00C07E00
01C07E00
01C07E00
01C03E00
01803F00
03FFFF00
03FFFF00
03FFFF00
03001F80
07001F80
07000F80
07000F80
06000FC0
0E000FC0
FFE0FFFC
FFE0FFFC
FFE0FFFC
ENDCHAR
STARTCHAR 0101
ENCODING 257
SWIDTH 558 0
DWIDTH 31 0
BBX 27 34 0 0
BITMAP
3FFFFF00
3FFFFF00
3FFFFF00
00000000
00000000
00000000
00000000
03FFE000
0FFFFC00
1FE3FE00
3F003F00
3E001F00
3E001F80
7E001F80
00001F80
00001F80
00001F80
00001F80
00007F80
01FFFF80
0FFFFF80
3FFE1F80
7F001F80
7E001F80
FC001F80
FC001F80
FC001F80
F8001F80
FC003F80
FC007F80
7F00FF80
3FFFFBE0
1FFFF1E0
01FF80E0
ENDCHAR
STARTCHAR 0102
ENCODING 258
SWIDTH 612 0
DWIDTH 34 0
BBX 30 49 0 0
BITMAP
07000700
07000700
07800F00
03FFFE00
01FFFE00
00FFF800
00070000
00000000
00038000
00078000
00078000
00078000
0007C000
000FC000
000FC000
000FC000
000FE000
001FE000
001FE000
001BE000
001BF000
003BF000
0039F000
0031F000
0031F800
0071F800
0070F800
0070F800
0060FC00
00E0FC00
00E07C00
00E07C00
00C07E00
01C07E00
01C07E00
01C03E00
01803F00
03FFFF00
03FFFF00
03FFFF00
03001F80
07001F80
07000F80
07000F80
06000FC0
0E000FC0
FFE0FFFC
FFE0FFFC
FFE0FFFC
ENDCHAR
STARTCHAR 0103
ENCODING 259
SWIDTH 558 0
DWIDTH 31 0
BBX 27 38 0 0
BITMAP
1C001C00
1C001C00
1E003C00
0FFFF800
07FFF800
03FFE000
001C0000
00000000
00000000
00000000
00000000
03FFE000
0FFFFC00
1FE3FE00
3F003F00
3E001F00
3E001F80
7E001F80
00001F80
00001F80
00001F80
00001F80
00007F80
01FFFF80
0FFFFF80
3FFE1F80
7F001F80
7E001F80
FC001F80
FC001F80
FC001F80
F8001F80
FC003F80
FC007F80
7F00FF80
3FFFFBE0
1FFFF1E0
01FF80E0
ENDCHAR
STARTCHAR 0104
ENCODING 260
SWIDTH 648 0
DWIDTH 36 0
BBX 30 49 0 -8
BITMAP
00038000
00078000
00078000
00078000
0007C000
000FC000
000FC000
000FC000
000FE000
001FE000
001FE000
001BE000
001BF000
003BF000
0039F000
0031F000
0031F800
0071F800
0070F800
0070F800
0060FC00
00E0FC00
00E07C00
00E07C00
00C07E00
01C07E00
01C07E00
01C03E00
01803F00
03FFFF00
03FFFF00
03FFFF00
03001F80
07001F80
07000F80
07000F80
06000FC0
0E000FC0
FFE0FFFC
FFE0FFFC
FFE0FFFC
00000380
00000700
00000F00
00000F80
00000F80
000007C0
000007E0
000003F8
ENDCHAR
STARTCHAR 0105
ENCODING 261
SWIDTH 558 0
DWIDTH 31 0
BBX 27 35 0 -8
BITMAP
03FFE000
0FFFFC00
1FE3FE00
3F003F00
3E001F00
3E001F80
7E001F80
00001F80
00001F80
00001F80
00001F80
00007F80
01FFFF80
0FFFFF80
3FFE1F80
7F001F80
7E001F80
FC001F80
FC001F80
FC001F80
F8001F80
FC003F80
FC007F80
7F00FF80
3FFFFBE0
1FFFF1E0
01FF80E0
001C0000
00380000
00780000
007C0000
007C0000
003E0000
003F0000
001FC000
ENDCHAR
STARTCHAR 0106
ENCODING 262
SWIDTH 558 0
DWIDTH 31 0
BBX 27 49 0 0
BITMAP
0000FC00
0001F800
0003F000
0003C000
00078000
00070000
000E0000
00000000
003FC0E0
01FFF8E0
03FFFCE0
07E03EE0
0F801FE0
1F000FE0
1F0007E0
3E0007E0
3E0003E0
7E0003E0
7C0003E0
7C000000
7C000000
FC000000
FC000000
FC000000
FC000000
FC000000
F8000000
F8000000
F8000000
F8000000
F8000000
FC000000
FC000000
FC000000
FC000000
FC000000
7C000000
7C000000
7E000060
7E000060
3E0000E0
3F0000E0
1F0000E0
1F8001C0
0FC003C0
07E00F80
03FFFF00
01FFFC00
003FE000
ENDCHAR
STARTCHAR 0107
ENCODING 263
SWIDTH 558 0
DWIDTH 31 0
BBX 27 38 0 0
BITMAP
0000FC00
0001F800
0003F000
0003C000
00078000
00070000
000E0000
00000000
00000000
00000000
00000000
00FFE0E0
07FFF8E0
0FF1FCE0
1F801EE0
3F0007E0
3E0007E0
7E0003E0
7C0003E0
7C000000
FC000000
FC000000
FC000000
F8000000
F8000000
F8000000
FC000000
FC000000
FC000000
7C000000
7E000060
7E0000E0
3F0000E0
3F8001C0
1FE007C0
0FFFFF80
03FFFE00
007FF000
ENDCHAR
STARTCHAR 0108
ENCODING 264
SWIDTH 558 0
DWIDTH 31 0
BBX 27 49 0 0
BITMAP
00020000
000F8000
003FE000
01FDFC00
07F03F00
03800E00
00000200
00000000
003FC0E0
01FFF8E0
03FFFCE0
07E03EE0
0F801FE0
1F000FE0
1F0007E0
3E0007E0
3E0003E0
7E0003E0
7C0003E0
7C000000
7C000000
FC000000
FC000000
FC000000
FC000000
FC000000
F8000000
F8000000
F8000000
F8000000
F8000000
FC000000
FC000000
FC000000
FC000000
FC000000
7C000000
7C000000
7E000060
7E000060
3E0000E0
3F0000E0
1F0000E0
1F8001C0
0FC003C0
07E00F80
03FFFF00
01FFFC00
003FE000
ENDCHAR
STARTCHAR 0109
ENCODING 265
SWIDTH 558 0
DWIDTH 31 0
BBX 27 38 0 0
BITMAP
00040000
001F0000
007FC000
03FBF800
0FE07E00
07001C00
00000400
00000000
00000000
00000000
00000000
00FFE0E0
07FFF8E0
0FF1FCE0
1F801EE0
3F0007E0
3E0007E0
7E0003E0
7C0003E0
7C000000
FC000000
FC000000
FC000000
F8000000
F8000000
F8000000
FC000000
FC000000
FC000000
7C000000
7E000060
7E0000E0
3F0000E0
3F8001C0
1FE007C0
0FFFFF80
03FFFE00
007FF000
ENDCHAR
STARTCHAR 010A
ENCODING 266
SWIDTH 558 0
DWIDTH 31 0
BBX 27 48 0 0
BITMAP
000F0000
001F8000
001F8000
001F8000
001F8000
00060000
00000000
003FC0E0
01FFF8E0
03FFFCE0
07E03EE0
0F801FE0
1F000FE0
1F0007E0
3E0007E0
3E0003E0
7E0003E0
7C0003E0
7C000000
7C000000
FC000000
FC000000
FC000000
FC000000
FC000000
F8000000
F8000000
F8000000
F8000000
F8000000
FC000000
FC000000
FC000000
FC000000
FC000000
7C000000
7C000000
7E000060
7E000060
3E0000E0
3F0000E0
1F0000E0
1F8001C0
0FC003C0
07E00F80
03FFFF00
01FFFC00
003FE000
ENDCHAR
STARTCHAR 010B
ENCODING 267
SWIDTH 558 0
DWIDTH 31 0
BBX 27 37 0 0
BITMAP
000F0000
001F8000
001F8000
001F8000
001F8000
00060000
00000000
00000000
00000000
00000000
00FFE0E0
07FFF8E0
0FF1FCE0
1F801EE0
3F0007E0
3E0007E0
7E0003E0
7C0003E0
7C000000
FC000000
FC000000
FC000000
F8000000
F8000000
F8000000
FC000000
FC000000
FC000000
7C000000
7E000060
7E0000E0
3F0000E0
3F8001C0
1FE007C0
0FFFFF80
03FFFE00
007FF000
ENDCHAR
STARTCHAR 010C
ENCODING 268
SWIDTH 558 0
DWIDTH 31 0
BBX 27 49 0 0
BITMAP
03003000
03C07800
07E1F800
01FBE000
007F8000
001E0000
00000000
00000000
003FC0E0
01FFF8E0
03FFFCE0
07E03EE0
0F801FE0
1F000FE0
1F0007E0
3E0007E0
3E0003E0
7E0003E0
7C0003E0
7C000000
7C000000
FC000000
FC000000
FC000000
FC000000
FC000000
F8000000
F8000000
F8000000
F8000000
F8000000
FC000000
FC000000
FC000000
FC000000
FC000000
7C000000
7C000000
7E000060
7E000060
3E0000E0
3F0000E0
1F0000E0
1F8001C0
0FC003C0
07E00F80
03FFFF00
01FFFC00
003FE000
ENDCHAR
STARTCHAR 010D
ENCODING 269
SWIDTH 558 0
DWIDTH 31 0
BBX 27 38 0 0
BITMAP
03003000
03C07800
07E1F800
01FBE000
007F8000
001E0000
00000000
00000000
00000000
00000000
00000000
00FFE0E0
07FFF8E0
0FF1FCE0
1F801EE0
3F0007E0
3E0007E0
7E0003E0
7C0003E0
7C000000
FC000000
FC000000
FC000000
F8000000
F8000000
F8000000
FC000000
FC000000
FC000000
7C000000
7E000060
7E0000E0
3F0000E0
3F8001C0
1FE007C0
0FFFFF80
03FFFE00
007FF000
ENDCHAR
STARTCHAR 010E
ENCODING 270
SWIDTH 558 0
DWIDTH 31 0
BBX 27 49 0 0
BITMAP
03003000
03C07800
07E1F800
01FBE000
007F8000
001E0000
00000000
00000000
FFFFC000
FFFFF000
FFFFFC00
0FC07E00
0FC03E00
0FC01F00
0FC01F80
0FC00F80
0FC00FC0
0FC007C0
0FC007C0
0FC007C0
0FC007E0
0FC007E0
0FC003E0
0FC003E0
0FC003E0
0FC003E0
0FC003E0
0FC003E0
0FC003E0
0FC003E0
0FC003E0
0FC003E0
0FC003E0
0FC003E0
0FC003E0
0FC007E0
0FC007E0
0FC007C0
0FC007C0
0FC007C0
0FC00FC0
0FC00F80
0FC01F80
0FC01F00
0FC03E00
0FC07E00
FFFFFC00
FFFFF000
FFFFC000
ENDCHAR
STARTCHAR 010F
ENCODING 271
SWIDTH 684 0
DWIDTH 38 0
BBX 34 44 0 0
BITMAP
0000000F00
0000001FC0
0000003FC0
0001FFBFC0
0001FFBFC0
0001FFBFC0
00001F9FC0
00001F9FC0
00001F81C0
00001F81C0
00001F81C0
00001F8380
00001F8F00
00001F8800
00001F8000
00001F8000
00001F8000
03FF1F8000
0FFF9F8000
1FE3DF8000
3F80FF8000
3F007F8000
7E003F8000
7C001F8000
7C001F8000
FC001F8000
FC001F8000
FC001F8000
FC001F8000
F8001F8000
F8001F8000
F8001F8000
FC001F8000
FC001F8000
FC001F8000
FC001F8000
7C001F8000
7E003F8000
7E003F8000
3F007F8000
1F80DF8000
0FFFDFF800
07FF9FF800
01FE1FF800
ENDCHAR
STARTCHAR 0110
ENCODING 272
SWIDTH 558 0
DWIDTH 31 0
BBX 27 41 0 0
BITMAP
FFFFC000
FFFFF000
FFFFFC00
0FC07E00
0FC03E00
0FC01F00
0FC01F80
0FC00F80
0FC00FC0
0FC007C0
0FC007C0
0FC007C0
0FC007E0
0FC007E0
0FC003E0
0FC003E0
0FC003E0
0FC003E0
0FC003E0
FFFC03E0
FFFC03E0
FFFC03E0
0FC003E0
0FC003E0
0FC003E0
0FC003E0
0FC003E0
0FC007E0
0FC007E0
0FC007C0
0FC007C0
0FC007C0
0FC00FC0
0FC00F80
0FC01F80
0FC01F00
0FC03E00
0FC07E00
FFFFFC00
FFFFF000
FFFFC000
ENDCHAR
STARTCHAR 0111
ENCODING 273
SWIDTH 594 0
DWIDTH 33 0
BBX 29 41 0 0
BITMAP
0001FF80
0001FF80
0001FF80
00001F80
00001F80
0001FFF8
0001FFF8
0001FFF8
00001F80
00001F80
00001F80
00001F80
00001F80
00001F80
03FF1F80
0FFF9F80
1FE3DF80
3F80FF80
3F007F80
7E003F80
7C001F80
7C001F80
FC001F80
FC001F80
FC001F80
FC001F80
F8001F80
F8001F80
F8001F80
FC001F80
FC001F80
FC001F80
FC001F80
7C001F80
7E003F80
7E003F80
3F007F80
1F80DF80
0FFFDFF8
07FF9FF8
01FE1FF8
ENDCHAR
STARTCHAR 0112
ENCODING 274
SWIDTH 558 0
DWIDTH 31 0
BBX 27 45 0 0
BITMAP
1FFFFF80
1FFFFF80
1FFFFF80
00000000
FFFFFFE0
FFFFFFE0
FFFFFFE0
0FC000E0
0FC000E0
0FC000E0
0FC000E0
0FC00000
0FC00000
0FC00000
0FC00000
0FC00000
0FC00000
0FC00000
0FC00000
0FC00000
0FC00000
0FC00000
0FC00000
0FFFF800
0FFFF800
0FFFF800
0FC00000
0FC00000
0FC00000
0FC00000
0FC00000
0FC00000
0FC00000
0FC00000
0FC00000
0FC00000
0FC00000
0FC00000
0FC000E0
0FC000E0
0FC000E0
0FC001E0
FFFFFFE0
FFFFFFE0
FFFFFFE0
ENDCHAR
STARTCHAR 0113
ENCODING 275
SWIDTH 558 0
DWIDTH 31 0
BBX 27 34 0 0
BITMAP
1FFFFF80
1FFFFF80
1FFFFF80
00000000
00000000
00000000
00000000
00FFF000
07FFFC00
0FF1FF00
1F803F80
3F000F80
3E000FC0
7C0007C0
7C0007E0
7C0003E0
FC0003E0
FC0003E0
F80003E0
FFFFFFE0
FFFFFFE0
FFFFFFE0
F8000000
FC000000
FC000000
7C000000
7C000060
7E0000E0
3E0000E0
3F8001C0
1FC007C0
0FFFFF80
03FFFE00
007FF000
ENDCHAR
STARTCHAR 0114
ENCODING 276
SWIDTH 558 0
DWIDTH 31 0
BBX 27 49 0 0
BITMAP
07000700
07000700
07800F00
03FFFE00
01FFFE00
00FFF800
00070000
00000000
FFFFFFE0
FFFFFFE0
FFFFFFE0
0FC000E0
0FC000E0
0FC000E0
0FC000E0
0FC00000
0FC00000
0FC00000
0FC00000
0FC00000
0FC00000
0FC00000
0FC00000
0FC00000
0FC00000
0FC00000
0FC00000
0FFFF800
0FFFF800
0FFFF800
0FC00000
0FC00000
0FC00000
0FC00000
0FC00000
0FC00000
0FC00000
0FC00000
0FC00000
0FC00000
0FC00000
0FC00000
0FC000E0
0FC000E0
0FC000E0
0FC001E0
FFFFFFE0
FFFFFFE0
FFFFFFE0
ENDCHAR
STARTCHAR 0115
ENCODING 277
SWIDTH 558 0
DWIDTH 31 0
BBX 27 38 0 0
BITMAP
0E000E00
0E000E00
0F001E00
07FFFC00
03FFFC00
01FFF000
000E0000
00000000
00000000
00000000
00000000
00FFF000
07FFFC00
0FF1FF00
1F803F80
3F000F80
3E000FC0
7C0007C0
7C0007E0
7C0003E0
FC0003E0
FC0003E0
F80003E0
FFFFFFE0
FFFFFFE0
FFFFFFE0
F8000000
FC000000
FC000000
7C000000
7C000060
7E0000E0
3E0000E0
3F8001C0
1FC007C0
0FFFFF80
03FFFE00
007FF000
ENDCHAR
STARTCHAR 0116
ENCODING 278
SWIDTH 558 0
DWIDTH 31 0
BBX 27 48 0 0
BITMAP
000F0000
001F8000
001F8000
001F8000
001F8000
00060000
00000000
FFFFFFE0
FFFFFFE0
FFFFFFE0
0FC000E0
0FC000E0
0FC000E0
0FC000E0
0FC00000
0FC00000
0FC00000
0FC00000
0FC00000
0FC00000
0FC00000
0FC00000
0FC00000
0FC00000
0FC00000
0FC00000
0FFFF800
0FFFF800
0FFFF800
0FC00000
0FC00000
0FC00000
0FC00000
0FC00000
0FC00000
0FC00000
0FC00000
0FC00000
0FC00000
0FC00000
0FC00000
0FC000E0
0FC000E0
0FC000E0
0FC001E0
FFFFFFE0
FFFFFFE0
FFFFFFE0
ENDCHAR
STARTCHAR 0117
ENCODING 279
SWIDTH 558 0
DWIDTH 31 0
BBX 27 37 0 0
BITMAP
000F0000
001F8000
001F8000
001F8000
001F8000
00060000
00000000
00000000
00000000
00000000
00FFF000
07FFFC00
0FF1FF00
1F803F80
3F000F80
3E000FC0
7C0007C0
7C0007E0
7C0003E0
FC0003E0
FC0003E0
F80003E0
FFFFFFE0
FFFFFFE0
FFFFFFE0
F8000000
FC000000
FC000000
7C000000
7C000060
7E0000E0
3E0000E0
3F8001C0
1FC007C0
0FFFFF80
03FFFE00
007FF000
ENDCHAR
STARTCHAR 0118
ENCODING 280
SWIDTH 558 0
DWIDTH 31 0
BBX 27 49 0 -8
BITMAP
FFFFFFE0
FFFFFFE0
FFFFFFE0
0FC000E0
0FC000E0
0FC000E0
0FC000E0
0FC00000
0FC00000
0FC00000
0FC00000
0FC00000
0FC00000
0FC00000
0FC00000
0FC00000
0FC00000
0FC00000
0FC00000
0FFFF800
0FFFF800
0FFFF800
0FC00000
0FC00000
0FC00000
0FC00000
0FC00000
0FC00000
0FC00000
0FC00000
0FC00000
0FC00000
0FC00000
0FC00000
0FC000E0
0FC000E0
0FC000E0
0FC001E0
FFFFFFE0
FFFFFFE0
FFFFFFE0
001C0000
00380000
00780000
007C0000
007C0000
003E0000
003F0000
001FC000
ENDCHAR
STARTCHAR 0119
ENCODING 281
SWIDTH 558 0
DWIDTH 31 0
BBX 27 35 0 -8
BITMAP
00FFF000
07FFFC00
0FF1FF00
1F803F80
3F000F80
3E000FC0
7C0007C0
7C0007E0
7C0003E0
FC0003E0
FC0003E0
F80003E0
FFFFFFE0
FFFFFFE0
FFFFFFE0
F8000000
FC000000
FC000000
7C000000
7C000060
7E0000E0
3E0000E0
3F8001C0
1FC007C0
0FFFFF80
03FFFE00
007FF000
000E0000
001C0000
003C0000
003E0000
003E0000
001F0000
001F8000
000FE000
ENDCHAR
STARTCHAR 011A
ENCODING 282
SWIDTH 558 0
DWIDTH 31 0
BBX 27 49 0 0
BITMAP
03003000
03C07800
07E1F800
01FBE000
007F8000
001E0000
00000000
00000000
FFFFFFE0
FFFFFFE0
FFFFFFE0
0FC000E0
0FC000E0
0FC000E0
0FC000E0
0FC00000
0FC00000
0FC00000
0FC00000
0FC00000
0FC00000
0FC00000
0FC00000
0FC00000
0FC00000
0FC00000
0FC00000
0FFFF800
0FFFF800
0FFFF800
0FC00000
0FC00000
0FC00000
0FC00000
0FC00000
0FC00000
0FC00000
0FC00000
0FC00000
0FC00000
0FC00000
0FC00000
0FC000E0
0FC000E0
0FC000E0
0FC001E0
FFFFFFE0
FFFFFFE0
FFFFFFE0
ENDCHAR
STARTCHAR 011B
ENCODING 283
SWIDTH 558 0
DWIDTH 31 0
BBX 27 38 0 0
BITMAP
03003000
03C07800
07E1F800
01FBE000
007F8000
001E0000
00000000
00000000
00000000
00000000
00000000
00FFF000
07FFFC00
0FF1FF00
1F803F80
3F000F80
3E000FC0
7C0007C0
7C0007E0
7C0003E0
FC0003E0
FC0003E0
F80003E0
FFFFFFE0
FFFFFFE0
FFFFFFE0
F8000000
FC000000
FC000000
7C000000
7C000060
7E0000E0
3E0000E0
3F8001C0
1FC007C0
0FFFFF80
03FFFE00
007FF000
ENDCHAR
STARTCHAR 011C
ENCODING 284
SWIDTH 558 0
DWIDTH 31 0
BBX 27 49 0 0
BITMAP
00040000
001F0000
007FC000
03FBF800
0FE07E00
07001C00
00000400
00000000
003FC0E0
01FFF8E0
03FFFCE0
07E03EE0
0F801FE0
1F000FE0
1F0007E0
3E0007E0
3E0003E0
7E0003E0
7C0003E0
7C000000
7C000000
FC000000
FC000000
FC000000
FC000000
FC000000
F8000000
F80FFFE0
F80FFFE0
F80FFFE0
F80003E0
FC0003E0
FC0003E0
FC0003E0
FC0003E0
FC0003E0
7C0003E0
7C0003E0
7C0003E0
7E0007E0
3E0007E0
3E0007C0
1F000FC0
1F000FC0
0F801F80
07E07F00
03FFFE00
01FFF800
003FC000
ENDCHAR
STARTCHAR 011D
ENCODING 285
SWIDTH 522 0
DWIDTH 29 0
BBX 26 48 0 -10
BITMAP
003E0000
01FF8000
07F7E000
1F81FC00
1E003800
08000000
00003E00
00007E00
0000FC00
0000E000
01FFE000
07FFF000
0FF7F800
1F80FC00
1F007C00
3F007E00
3E003E00
3E003E00
3E003E00
3E003E00
3E003F00
3E003E00
3E003E00
3F003E00
3F007E00
1F007C00
1F80FC00
0FFFF800
03FFF000
07FF8000
0F000000
1F000000
1F800000
0FE00000
07FF0000
07FFFC00
1FFFFF00
7F807F80
7E000FC0
FC000FC0
FC0007C0
FC0007C0
FC000FC0
7E000FC0
7F003F80
3FFFFF00
0FFFFC00
01FFE000
ENDCHAR
STARTCHAR 011E
ENCODING 286
SWIDTH 558 0
DWIDTH 31 0
BBX 27 49 0 0
BITMAP
0E000E00
0E000E00
0F001E00
07FFFC00
03FFFC00
01FFF000
000E0000
00000000
003FC0E0
01FFF8E0
03FFFCE0
07E03EE0
0F801FE0
1F000FE0
1F0007E0
3E0007E0
3E0003E0
7E0003E0
7C0003E0
7C000000
7C000000
FC000000
FC000000
FC000000
FC000000
FC000000
F8000000
F80FFFE0
F80FFFE0
F80FFFE0
F80003E0
FC0003E0
FC0003E0
FC0003E0
FC0003E0
FC0003E0
7C0003E0
7C0003E0
7C0003E0
7E0007E0
3E0007E0
3E0007C0
1F000FC0
1F000FC0
0F801F80
07E07F00
03FFFE00
01FFF800
003FC000
ENDCHAR
STARTCHAR 011F
ENCODING 287
SWIDTH 522 0
DWIDTH 29 0
BBX 26 49 0 -11
BITMAP
18001C00
1C001C00
1E007800
1FFFF800
0FFFF000
03FFE000
00180000
00003E00
00007E00
0000FC00
0000E000
01FFE000
07FFF000
0FF7F800
1F80FC00
1F007C00
3F007E00
3E003E00
3E003E00
3E003E00
3E003E00
3E003F00
3E003E00
3E003E00
3F003E00
3F007E00
1F007C00
1F80FC00
0FFFF800
03FFF000
07FF8000
0F000000
1F000000
1F800000
0FE00000
07FF0000
07FFFC00
1FFFFF00
7F807F80
7E000FC0
FC000FC0
FC0007C0
FC0007C0
FC000FC0
7E000FC0
7F003F80
3FFFFF00
0FFFFC00
01FFE000
ENDCHAR
STARTCHAR 0120
ENCODING 288
SWIDTH 558 0
DWIDTH 31 0
BBX 27 48 0 0
BITMAP
000F0000
001F8000
001F8000
001F8000
001F8000
00060000
00000000
003FC0E0
01FFF8E0
03FFFCE0
07E03EE0
0F801FE0
1F000FE0
1F0007E0
3E0007E0
3E0003E0
7E0003E0
7C0003E0
7C000000
7C000000
FC000000
FC000000
FC000000
FC000000
FC000000
F8000000
F80FFFE0
F80FFFE0
F80FFFE0
F80003E0
FC0003E0
FC0003E0
FC0003E0
FC0003E0
FC0003E0
7C0003E0
7C0003E0
7C0003E0
7E0007E0
3E0007E0
3E0007C0
1F000FC0
1F000FC0
0F801F80
07E07F00
03FFFE00
01FFF800
003FC000
ENDCHAR
STARTCHAR 0121
ENCODING 289
SWIDTH 522 0
DWIDTH 29 0
BBX 26 48 0 -11
BITMAP
003E0000
003F0000
003F0000
003F0000
003E0000
00080000
00003E00
00007E00
0000FC00
0000E000
01FFE000
07FFF000
0FF7F800
1F80FC00
1F007C00
3F007E00
3E003E00
3E003E00
3E003E00
3E003E00
3E003F00
3E003E00
3E003E00
3F003E00
3F007E00
1F007C00
1F80FC00
0FFFF800
03FFF000
07FF8000
0F000000
1F000000
1F800000
0FE00000
07FF0000
07FFFC00
1FFFFF00
7F807F80
7E000FC0
FC000FC0
FC0007C0
FC0007C0
FC000FC0
7E000FC0
7F003F80
3FFFFF00
0FFFFC00
01FFE000
ENDCHAR
STARTCHAR 0122
ENCODING 290
SWIDTH 558 0
DWIDTH 31 0
BBX 27 52 0 -11
BITMAP
003FC0E0
01FFF8E0
03FFFCE0
07E03EE0
0F801FE0
1F000FE0
1F0007E0
3E0007E0
3E0003E0
7E0003E0
7C0003E0
7C000000
7C000000
FC000000
FC000000
FC000000
FC000000
FC000000
F8000000
F80FFFE0
F80FFFE0
F80FFFE0
F80003E0
FC0003E0
FC0003E0
FC0003E0
FC0003E0
FC0003E0
7C0003E0
7C0003E0
7C0003E0
7E0007E0
3E0007E0
3E0007C0
1F000FC0
1F000FC0
0F801F80
07E07F00
03FFFE00
01FFF800
003FC000
00070000
000E0000
000E0000
001FC000
001FF000
000C3800
00001800
00001800
00007800
0000F000
00008000
ENDCHAR
STARTCHAR 0123
ENCODING 291
SWIDTH 522 0
DWIDTH 29 0
BBX 26 55 0 -11
BITMAP
001C0000
00780000
00E00000
00E00000
00C00000
00C00000
00FE0000
00FE0000
00FF0000
00FF0000
00FF0000
00FF0000
007E0000
00183E00
00007E00
0000FC00
0000E000
01FFE000
07FFF000
0FF7F800
1F80FC00
1F007C00
3F007E00
3E003E00
3E003E00
3E003E00
3E003E00
3E003F00
3E003E00
3E003E00
3F003E00
3F007E00
1F007C00
1F80FC00
0FFFF800
03FFF000
07FF8000
0F000000
1F000000
1F800000
0FE00000
07FF0000
07FFFC00
1FFFFF00
7F807F80
7E000FC0
FC000FC0
FC0007C0
FC0007C0
FC000FC0
7E000FC0
7F003F80
3FFFFF00
0FFFFC00
01FFE000
ENDCHAR
STARTCHAR 0124
ENCODING 292
SWIDTH 648 0
DWIDTH 36 0
BBX 31 49 0 0
BITMAP
00010000
0007C000
001FF000
00FEFE00
03F81F80
01C00700
00000100
00000000
FFFC3FFE
FFFC3FFE
FFFC3FFE
0FC003E0
0FC003E0
0FC003E0
0FC003E0
0FC003E0
0FC003E0
0FC003E0
0FC003E0
0FC003E0
0FC003E0
0FC003E0
0FC003E0
0FC003E0
0FC003E0
0FC003E0
0FC003E0
0FFFFFE0
0FFFFFE0
0FFFFFE0
0FC003E0
0FC003E0
0FC003E0
0FC003E0
0FC003E0
0FC003E0
0FC003E0
0FC003E0
0FC003E0
0FC003E0
0FC003E0
0FC003E0
0FC003E0
0FC003E0
0FC003E0
0FC003E0
FFFC3FFE
FFFC3FFE
FFFC3FFE
ENDCHAR
STARTCHAR 0125
ENCODING 293
SWIDTH 666 0
DWIDTH 37 0
BBX 33 49 0 0
BITMAP
0002000000
000F800000
003FE00000
01FDFC0000
07F03F0000
03800E0000
0000020000
0000000000
FFC0000000
FFC0000000
FFC0000000
0FC0000000
0FC0000000
0FC0000000
0FC0000000
0FC0000000
0FC0000000
0FC0000000
0FC0000000
0FC0000000
0FC0000000
0FC0000000
0FC3FF0000
0FCFFF8000
0FDE3FC000
0FF00FE000
0FE003F000
0FE003F000
0FC001F000
0FC001F000
0FC001F800
0FC001F800
0FC001F800
0FC001F800
0FC001F800
0FC001F800
0FC001F800
0FC001F800
0FC001F800
0FC001F800
0FC001F800
0FC001F800
0FC001F800
0FC001F800
0FC001F800
0FC001F800
FFFC1FFF80
FFFC1FFF80
FFFC1FFF80
ENDCHAR
STARTCHAR 0126
ENCODING 294
SWIDTH 648 0
DWIDTH 36 0
BBX 31 41 0 0
BITMAP
FFFC3FFE
FFFC3FFE
FFFC3FFE
0FC003E0
0FC003E0
FFFFFFFE
FFFFFFFE
FFFFFFFE
0FC003E0
0FC003E0
0FC003E0
0FC003E0
0FC003E0
0FC003E0
0FC003E0
0FC003E0
0FC003E0
0FC003E0
0FC003E0
0FFFFFE0
0FFFFFE0
0FFFFFE0
0FC003E0
0FC003E0
0FC003E0
0FC003E0
0FC003E0
0FC003E0
0FC003E0
0FC003E0
0FC003E0
0FC003E0
0FC003E0
0FC003E0
0FC003E0
0FC003E0
0FC003E0
0FC003E0
FFFC3FFE
FFFC3FFE
FFFC3FFE
ENDCHAR
STARTCHAR 0127
ENCODING 295
SWIDTH 666 0
DWIDTH 37 0
BBX 33 41 0 0
BITMAP
FFC0000000
FFC0000000
FFC0000000
0FC0000000
0FC0000000
FFFC000000
FFFC000000
FFFC000000
0FC0000000
0FC0000000
0FC0000000
0FC0000000
0FC0000000
0FC0000000
0FC3FF0000
0FCFFF8000
0FDE3FC000
0FF00FE000
0FE003F000
0FE003F000
0FC001F000
0FC001F000
0FC001F800
0FC001F800
0FC001F800
0FC001F800
0FC001F800
0FC001F800
0FC001F800
0FC001F800
0FC001F800
0FC001F800
0FC001F800
0FC001F800
0FC001F800
0FC001F800
0FC001F800
0FC001F800
FFFC1FFF80
FFFC1FFF80
FFFC1FFF80
ENDCHAR
STARTCHAR 0128
ENCODING 296
SWIDTH 324 0
DWIDTH 18 0
BBX 19 50 0 0
BITMAP
0F0000
3F8000
7FC000
FBE1C0
60F3E0
407FC0
003F80
000C00
000000
1FFF00
1FFF00
1FFF00
01F000
01F000
01F000
01F000
01F000
01F000
01F000
01F000
01F000
01F000
01F000
01F000
01F000
01F000
01F000
01F000
01F000
01F000
01F000
01F000
01F000
01F000
01F000
01F000
01F000
01F000
01F000
01F000
01F000
01F000
01F000
01F000
01F000
01F000
01F000
1FFF00
1FFF00
1FFF00
ENDCHAR
STARTCHAR 0129
ENCODING 297
SWIDTH 324 0
DWIDTH 18 0
BBX 18 39 1 0
BITMAP
1E0000
7F8000
FFC080
F3C180
E0F7C0
40FFC0
007F00
000800
000000
000000
000000
000000
3FF000
3FF000
01F000
01F000
01F000
01F000
01F000
01F000
01F000
01F000
01F000
01F000
01F000
01F000
01F000
01F000
01F000
01F000
01F000
01F000
01F000
01F000
01F000
01F000
3FFF00
3FFF00
3FFF00
ENDCHAR
STARTCHAR 012A
ENCODING 298
SWIDTH 324 0
DWIDTH 18 0
BBX 14 45 0 0
BITMAP
FFFC
FFFC
FFFC
0000
FFFC
FFFC
FFFC
0FC0
0FC0
0FC0
0FC0
0FC0
0FC0
0FC0
0FC0
0FC0
0FC0
0FC0
0FC0
0FC0
0FC0
0FC0
0FC0
0FC0
0FC0
0FC0
0FC0
0FC0
0FC0
0FC0
0FC0
0FC0
0FC0
0FC0
0FC0
0FC0
0FC0
0FC0
0FC0
0FC0
0FC0
0FC0
FFFC
FFFC
FFFC
ENDCHAR
STARTCHAR 012B
ENCODING 299
SWIDTH 324 0
DWIDTH 18 0
BBX 14 34 0 0
BITMAP
FFFC
FFFC
FFFC
0000
0000
0000
0000
FFC0
FFC0
0FC0
0FC0
0FC0
0FC0
0FC0
0FC0
0FC0
0FC0
0FC0
0FC0
0FC0
0FC0
0FC0
0FC0
0FC0
0FC0
0FC0
0FC0
0FC0
0FC0
0FC0
0FC0
FFFC
FFFC
FFFC
ENDCHAR
STARTCHAR 012C
ENCODING 300
SWIDTH 324 0
DWIDTH 18 0
BBX 19 49 0 0
BITMAP
C000E0
E000E0
F003E0
7FFFC0
7FFF80
1FFF00
00E000
000000
1FFF00
1FFF00
1FFF00
01F000
01F000
01F000
01F000
01F000
01F000
01F000
01F000
01F000
01F000
01F000
01F000
01F000
01F000
01F000
01F000
01F000
01F000
01F000
01F000
01F000
01F000
01F000
01F000
01F000
01F000
01F000
01F000
01F000
01F000
01F000
01F000
01F000
01F000
01F000
1FFF00
1FFF00
1FFF00
ENDCHAR
STARTCHAR 012D
ENCODING 301
SWIDTH 324 0
DWIDTH 18 0
BBX 19 38 0 0
BITMAP
C000E0
E000E0
F003E0
7FFFC0
7FFF80
1FFF00
00E000
000000
000000
000000
000000
1FF000
1FF000
01F000
01F000
01F000
01F000
01F000
01F000
01F000
01F000
01F000
01F000
01F000
01F000
01F000
01F000
01F000
01F000
01F000
01F000
01F000
01F000
01F000
01F000
1FFF00
1FFF00
1FFF00
ENDCHAR
STARTCHAR 012E
ENCODING 302
SWIDTH 324 0
DWIDTH 18 0
BBX 14 49 0 -8
BITMAP
FFFC
FFFC
FFFC
0FC0
0FC0
0FC0
0FC0
0FC0
0FC0
0FC0
0FC0
0FC0
0FC0
0FC0
0FC0
0FC0
0FC0
0FC0
0FC0
0FC0
0FC0
0FC0
0FC0
0FC0
0FC0
0FC0
0FC0
0FC0
0FC0
0FC0
0FC0
0FC0
0FC0
0FC0
0FC0
0FC0
0FC0
0FC0
FFFC
FFFC
FFFC
0700
0E00
1E00
1F00
1F00
0F80
0FC0
07F0
ENDCHAR
STARTCHAR 012F
ENCODING 303
SWIDTH 324 0
DWIDTH 18 0
BBX 14 49 0 -8
BITMAP
0F80
1FC0
1FE0
1FE0
1FE0
1FE0
1FC0
0F80
0000
0000
0000
0000
0000
0000
FFC0
FFC0
0FC0
0FC0
0FC0
0FC0
0FC0
0FC0
0FC0
0FC0
0FC0
0FC0
0FC0
0FC0
0FC0
0FC0
0FC0
0FC0
0FC0
0FC0
0FC0
0FC0
0FC0
0FC0
FFFC
FFFC
FFFC
0700
0E00
1E00
1F00
1F00
0F80
0FC0
07F0
ENDCHAR
STARTCHAR 0130
ENCODING 304
SWIDTH 324 0
DWIDTH 18 0
BBX 14 48 0 0
BITMAP
0780
0FC0
0FC0
0FC0
0FC0
0300
0000
FFFC
FFFC
FFFC
0FC0
0FC0
0FC0
0FC0
0FC0
0FC0
0FC0
0FC0
0FC0
0FC0
0FC0
0FC0
0FC0
0FC0
0FC0
0FC0
0FC0
0FC0
0FC0
0FC0
0FC0
0FC0
0FC0
0FC0
0FC0
0FC0
0FC0
0FC0
0FC0
0FC0
0FC0
0FC0
0FC0
0FC0
0FC0
FFFC
FFFC
FFFC
ENDCHAR
STARTCHAR 0131
ENCODING 305
SWIDTH 324 0
DWIDTH 18 0
BBX 14 27 0 0
BITMAP
FFC0
FFC0
0FC0
0FC0
0FC0
0FC0
0FC0
0FC0
0FC0
0FC0
0FC0
0FC0
0FC0
0FC0
0FC0
0FC0
0FC0
0FC0
0FC0
0FC0
0FC0
0FC0
0FC0
0FC0
FFFC
FFFC
FFFC
ENDCHAR
STARTCHAR 0132
ENCODING 306
SWIDTH 810 0
DWIDTH 45 0
BBX 41 41 0 0
BITMAP
FFFC000FFF80
FFFC000FFF80
FFFC000FFF80
0FC00000F800
0FC00000F800
0FC00000F800
0FC00000F800
0FC00000F800
0FC00000F800
0FC00000F800
0FC00000F800
0FC00000F800
0FC00000F800
0FC00000F800
0FC00000F800
0FC00000F800
0FC00000F800
0FC00000F800
0FC00000F800
0FC00000F800
0FC00000F800
0FC00000F800
0FC00000F800
0FC00000F800
0FC00000F800
0FC00000F800
0FC00000F800
0FC00000F800
0FC00000F800
0FC00000F800
0FC3E000F800
0FC3F000F800
0FC3F000F800
0FC3F001F800
0FC1F001F800
0FC1F801F000
0FC1F803F000
0FC0FC07E000
FFFC7FFFC000
FFFC1FFF8000
FFFC07FC0000
ENDCHAR
STARTCHAR 0133
ENCODING 307
SWIDTH 540 0
DWIDTH 30 0
BBX 27 52 0 -11
BITMAP
0F800F80
1FC01FC0
1FE01FE0
1FE01FE0
1FE01FE0
1FE01FE0
1FC01FC0
0F800F80
00000000
00000000
00000000
00000000
00000000
00000000
FFC0FFC0
FFC0FFC0
0FC00FC0
0FC00FC0
0FC00FC0
0FC00FC0
0FC00FC0
0FC00FC0
0FC00FC0
0FC00FC0
0FC00FC0
0FC00FC0
0FC00FC0
0FC00FC0
0FC00FC0
0FC00FC0
0FC00FC0
0FC00FC0
0FC00FC0
0FC00FC0
0FC00FC0
0FC00FC0
0FC00FC0
0FC00FC0
FFFC0FC0
FFFC0FC0
FFFC0FC0
00000FC0
00000FC0
00000FC0
00000FC0
00000F80
00000F80
00001F80
00003F00
0001FE00
0001FC00
0001E000
ENDCHAR
STARTCHAR 0134
ENCODING 308
SWIDTH 558 0
DWIDTH 31 0
BBX 27 49 0 0
BITMAP
00080000
003E0000
00FF8000
07F7F000
1FC0FC00
0E003800
00000800
00000000
0003FFE0
0003FFE0
0003FFE0
00003E00
00003E00
00003E00
00003E00
00003E00
00003E00
00003E00
00003E00
00003E00
00003E00
00003E00
00003E00
00003E00
00003E00
00003E00
00003E00
00003E00
00003E00
00003E00
00003E00
00003E00
00003E00
00003E00
00003E00
00003E00
00003E00
00003E00
F8003E00
FC003E00
FC003E00
FC007E00
7C007E00
7E007C00
7E00FC00
3F01F800
1FFFF000
07FFE000
01FF0000
ENDCHAR
STARTCHAR 0135
ENCODING 309
SWIDTH 270 0
DWIDTH 15 0
BBX 19 48 0 -10
BITMAP
01F000
07FC00
3FBF00
FC0FE0
F001C0
400000
000000
000000
000000
000000
1FF000
1FF000
01F000
01F000
01F000
01F000
01F000
01F000
01F000
01F000
01F000
01F000
01F000
01F000
01F000
01F000
01F000
01F000
01F000
01F000
01F000
01F000
01F000
01F000
01F000
01F000
01F000
01F000
01F000
01F000
01F000
01F000
03F000
03F000
07E000
7FC000
7F8000
7C0000
ENDCHAR
STARTCHAR 0136
ENCODING 310
SWIDTH 558 0
DWIDTH 31 0
BBX 27 52 0 -11
BITMAP
FFF0FFE0
FFF0FFE0
FFF0FFE0
1F801E00
1F801C00
1F803800
1F807800
1F807000
1F80E000
1F81C000
1F83C000
1F838000
1F870000
1F8F0000
1F8E0000
1F9C0000
1FBC0000
1FF80000
1FF80000
1FFC0000
1FFC0000
1FFE0000
1FFE0000
1FFF0000
1FBF0000
1F9F8000
1F9FC000
1F8FC000
1F8FE000
1F87E000
1F87F000
1F83F800
1F81F800
1F81FC00
1F80FC00
1F80FE00
1F807F00
1F807F00
FFF1FFE0
FFF1FFE0
FFF1FFE0
00000000
000E0000
001F0000
001F8000
001F8000
001F8000
000F8000
00018000
00030000
00030000
000C0000
ENDCHAR
STARTCHAR 0137
ENCODING 311
SWIDTH 576 0
DWIDTH 32 0
BBX 28 52 0 -11
BITMAP
FFC00000
FFC00000
FFC00000
0FC00000
0FC00000
0FC00000
0FC00000
0FC00000
0FC00000
0FC00000
0FC00000
0FC00000
0FC00000
0FC00000
0FC0FFF0
0FC0FFF0
0FC00F00
0FC01E00
0FC01C00
0FC03800
0FC07000
0FC0E000
0FC1C000
0FC38000
0FC7C000
0FCFC000
0FDFE000
0FDBE000
0FF1F000
0FE1F000
0FC0F800
0FC0F800
0FC0FC00
0FC07C00
0FC07E00
0FC03E00
0FC03F00
0FC01F00
FFF8FFF0
FFF8FFF0
FFF8FFF0
00000000
000E0000
001F0000
001F8000
001F8000
001F8000
000F8000
00018000
00030000
00030000
000C0000
ENDCHAR
STARTCHAR 0138
ENCODING 312
SWIDTH 576 0
DWIDTH 32 0
BBX 28 27 0 0
BITMAP
FFF8FFF0
FFF8FFF0
0FC00F00
0FC00E00
0FC01C00
0FC03C00
0FC03800
0FC07000
0FC0F000
0FC0E000
0FC1C000
0FC3C000
0FFFC000
0FFFC000
0FFFE000
0FC3F000
0FC1F000
0FC1F800
0FC0F800
0FC07C00
0FC07C00
0FC03E00
0FC03F00
0FC01F00
FFF8FFF0
FFF8FFF0
FFF8FFF0
ENDCHAR
STARTCHAR 0139
ENCODING 313
SWIDTH 558 0
DWIDTH 31 0
BBX 27 49 0 0
BITMAP
007E0000
00FC0000
01F80000
01E00000
03C00000
03800000
07000000
00000000
FFFC0000
FFFC0000
FFFC0000
0FC00000
0FC00000
0FC00000
0FC00000
0FC00000
0FC00000
0FC00000
0FC00000
0FC00000
0FC00000
0FC00000
0FC00000
0FC00000
0FC00000
0FC00000
0FC00000
0FC00000
0FC00000
0FC00000
0FC00000
0FC00000
0FC00000
0FC00000
0FC00000
0FC00000
0FC00000
0FC00000
0FC00000
0FC00000
0FC00000
0FC00000
0FC000E0
0FC000E0
0FC000E0
0FC001E0
FFFFFFE0
FFFFFFE0
FFFFFFE0
ENDCHAR
STARTCHAR 013A
ENCODING 314
SWIDTH 324 0
DWIDTH 18 0
BBX 15 49 0 0
BITMAP
007E
00FC
01F8
01E0
03C0
0380
0700
0000
FFC0
FFC0
FFC0
0FC0
0FC0
0FC0
0FC0
0FC0
0FC0
0FC0
0FC0
0FC0
0FC0
0FC0
0FC0
0FC0
0FC0
0FC0
0FC0
0FC0
0FC0
0FC0
0FC0
0FC0
0FC0
0FC0
0FC0
0FC0
0FC0
0FC0
0FC0
0FC0
0FC0
0FC0
0FC0
0FC0
0FC0
0FC0
FFFC
FFFC
FFFC
ENDCHAR
STARTCHAR 013B
ENCODING 315
SWIDTH 558 0
DWIDTH 31 0
BBX 27 52 0 -11
BITMAP
FFFC0000
FFFC0000
FFFC0000
0FC00000
0FC00000
0FC00000
0FC00000
0FC00000
0FC00000
0FC00000
0FC00000
0FC00000
0FC00000
0FC00000
0FC00000
0FC00000
0FC00000
0FC00000
0FC00000
0FC00000
0FC00000
0FC00000
0FC00000
0FC00000
0FC00000
0FC00000
0FC00000
0FC00000
0FC00000
0FC00000
0FC00000
0FC00000
0FC00000
0FC00000
0FC000E0
0FC000E0
0FC000E0
0FC001E0
FFFFFFE0
FFFFFFE0
FFFFFFE0
00000000
000E0000
001F0000
001F8000
001F8000
001F8000
000F8000
00018000
00030000
00030000
000C0000
ENDCHAR
STARTCHAR 013C
ENCODING 316
SWIDTH 324 0
DWIDTH 18 0
BBX 14 52 0 -11
BITMAP
FFC0
FFC0
FFC0
0FC0
0FC0
0FC0
0FC0
0FC0
0FC0
0FC0
0FC0
0FC0
0FC0
0FC0
0FC0
0FC0
0FC0
0FC0
0FC0
0FC0
0FC0
0FC0
0FC0
0FC0
0FC0
0FC0
0FC0
0FC0
0FC0
0FC0
0FC0
0FC0
0FC0
0FC0
0FC0
0FC0
0FC0
0FC0
FFFC
FFFC
FFFC
0000
0700
0F80
0FC0
0FC0
0FC0
07C0
00C0
0180
0180
0600
ENDCHAR
STARTCHAR 013D
ENCODING 317
SWIDTH 558 0
DWIDTH 31 0
BBX 27 44 0 0
BITMAP
00003C00
00007F00
0000FF00
FFFCFF00
FFFCFF00
FFFCFF00
0FC07F00
0FC07F00
0FC00700
0FC00700
0FC00700
0FC00E00
0FC03C00
0FC02000
0FC00000
0FC00000
0FC00000
0FC00000
0FC00000
0FC00000
0FC00000
0FC00000
0FC00000
0FC00000
0FC00000
0FC00000
0FC00000
0FC00000
0FC00000
0FC00000
0FC00000
0FC00000
0FC00000
0FC00000
0FC00000
0FC00000
0FC00000
0FC000E0
0FC000E0
0FC000E0
0FC001E0
FFFFFFE0
FFFFFFE0
FFFFFFE0
ENDCHAR
STARTCHAR 013E
ENCODING 318
SWIDTH 450 0
DWIDTH 25 0
BBX 20 44 0 0
BITMAP
0003C0
0007F0
000FF0
FFCFF0
FFCFF0
FFCFF0
0FC7F0
0FC7F0
0FC070
0FC070
0FC070
0FC0E0
0FC3C0
0FC200
0FC000
0FC000
0FC000
0FC000
0FC000
0FC000
0FC000
0FC000
0FC000
0FC000
0FC000
0FC000
0FC000
0FC000
0FC000
0FC000
0FC000
0FC000
0FC000
0FC000
0FC000
0FC000
0FC000
0FC000
0FC000
0FC000
0FC000
FFFC00
FFFC00
FFFC00
ENDCHAR
STARTCHAR 013F
ENCODING 319
SWIDTH 558 0
DWIDTH 31 0
BBX 27 41 0 0
BITMAP
FFFC0000
FFFC0000
FFFC0000
0FC00000
0FC00000
0FC00000
0FC00000
0FC00000
0FC00000
0FC00000
0FC00000
0FC00000
0FC00000
0FC00000
0FC00000
0FC00000
0FC00000
0FC00000
0FC07800
0FC0FC00
0FC0FC00
0FC0FC00
0FC0FC00
0FC03000
0FC00000
0FC00000
0FC00000
0FC00000
0FC00000
0FC00000
0FC00000
0FC00000
0FC00000
0FC00000
0FC000E0
0FC000E0
0FC000E0
0FC001E0
FFFFFFE0
FFFFFFE0
FFFFFFE0
ENDCHAR
STARTCHAR 0140
ENCODING 320
SWIDTH 432 0
DWIDTH 24 0
BBX 20 41 0 0
BITMAP
FFC000
FFC000
FFC000
0FC000
0FC000
0FC000
0FC000
0FC000
0FC000
0FC000
0FC000
0FC000
0FC000
0FC000
0FC000
0FC000
0FC000
0FC000
0FC1E0
0FC3F0
0FC3F0
0FC3F0
0FC3F0
0FC0C0
0FC000
0FC000
0FC000
0FC000
0FC000
0FC000
0FC000
0FC000
0FC000
0FC000
0FC000
0FC000
0FC000
0FC000
FFFC00
FFFC00
FFFC00
ENDCHAR
STARTCHAR 0141
ENCODING 321
SWIDTH 558 0
DWIDTH 31 0
BBX 28 41 -1 0
BITMAP
7FFE0000
7FFE0000
7FFE0000
07E00000
07E00000
07E00000
07E00000
07E00000
07E00000
07E00000
07E00000
07E00000
07E00000
07E00000
07E00000
07E00000
07E60000
07FE0000
07FE0000
07F80000
07E00000
1FE00000
FFE00000
FFE00000
67E00000
07E00000
07E00000
07E00000
07E00000
07E00000
07E00000
07E00000
07E00000
07E00000
07E00070
07E00070
07E00070
07E000F0
7FFFFFF0
7FFFFFF0
7FFFFFF0
ENDCHAR
STARTCHAR 0142
ENCODING 322
SWIDTH 324 0
DWIDTH 18 0
BBX 15 41 -1 0
BITMAP
7FE0
7FE0
7FE0
07E0
07E0
07E0
07E0
07E0
07E0
07E0
07E0
07E0
07E0
07E0
07E0
07E0
07E6
07FE
07FE
07F8
07E0
1FE0
FFE0
FFE0
67E0
07E0
07E0
07E0
07E0
07E0
07E0
07E0
07E0
07E0
07E0
07E0
07E0
07E0
7FFE
7FFE
7FFE
ENDCHAR
STARTCHAR 0143
ENCODING 323
SWIDTH 612 0
DWIDTH 34 0
BBX 30 49 0 0
BITMAP
00003F00
00007E00
0000FC00
0000F000
0001E000
0001C000
00038000
00000000
FFC01FFC
FFC01FFC
FFE01FFC
0FE001C0
0FF001C0
0FF001C0
0FF801C0
0FF801C0
0FFC01C0
0FFC01C0
0EFE01C0
0EFE01C0
0E7F01C0
0E7F01C0
0E3F81C0
0E3F81C0
0E1FC1C0
0E1FC1C0
0E0FC1C0
0E0FE1C0
0E0FE1C0
0E07F1C0
0E07F1C0
0E03F9C0
0E03F9C0
0E01FDC0
0E01FDC0
0E00FFC0
0E00FFC0
0E007FC0
0E007FC0
0E003FC0
0E003FC0
0E003FC0
0E001FC0
0E001FC0
0E000FC0
0E000FC0
FFE007C0
FFE007C0
FFE003C0
ENDCHAR
STARTCHAR 0144
ENCODING 324
SWIDTH 666 0
DWIDTH 37 0
BBX 33 38 0 0
BITMAP
00003F0000
00007E0000
0000FC0000
0000F00000
0001E00000
0001C00000
0003800000
0000000000
0000000000
0000000000
0000000000
FFC3FF0000
FFCFFF8000
0FDE3FC000
0FF00FE000
0FE003F000
0FE003F000
0FC001F000
0FC001F000
0FC001F800
0FC001F800
0FC001F800
0FC001F800
0FC001F800
0FC001F800
0FC001F800
0FC001F800
0FC001F800
0FC001F800
0FC001F800
0FC001F800
0FC001F800
0FC001F800
0FC001F800
0FC001F800
FFFC1FFF80
FFFC1FFF80
FFFC1FFF80
ENDCHAR
STARTCHAR 0145
ENCODING 325
SWIDTH 612 0
DWIDTH 34 0
BBX 30 52 0 -11
BITMAP
FFC01FFC
FFC01FFC
FFE01FFC
0FE001C0
0FF001C0
0FF001C0
0FF801C0
0FF801C0
0FFC01C0
0FFC01C0
0EFE01C0
0EFE01C0
0E7F01C0
0E7F01C0
0E3F81C0
0E3F81C0
0E1FC1C0
0E1FC1C0
0E0FC1C0
0E0FE1C0
0E0FE1C0
0E07F1C0
0E07F1C0
0E03F9C0
0E03F9C0
0E01FDC0
0E01FDC0
0E00FFC0
0E00FFC0
0E007FC0
0E007FC0
0E003FC0
0E003FC0
0E003FC0
0E001FC0
0E001FC0
0E000FC0
0E000FC0
FFE007C0
FFE007C0
FFE003C0
00000000
000E0000
001F0000
001F8000
001F8000
001F8000
000F8000
00018000
00030000
00030000
000C0000
ENDCHAR
STARTCHAR 0146
ENCODING 326
SWIDTH 666 0
DWIDTH 37 0
BBX 33 38 0 -11
BITMAP
FFC3FF0000
FFCFFF8000
0FDE3FC000
0FF00FE000
0FE003F000
0FE003F000
0FC001F000
0FC001F000
0FC001F800
0FC001F800
0FC001F800
0FC001F800
0FC001F800
0FC001F800
0FC001F800
0FC001F800
0FC001F800
0FC001F800
0FC001F800
0FC001F800
0FC001F800
0FC001F800
0FC001F800
0FC001F800
FFFC1FFF80
FFFC1FFF80
FFFC1FFF80
0000000000
0001C00000
0003E00000
0003F00000
0003F00000
0003F00000
0001F00000
0000300000
0000600000
0000600000
0001800000
ENDCHAR
STARTCHAR 0147
ENCODING 327
SWIDTH 612 0
DWIDTH 34 0
BBX 30 49 0 0
BITMAP
03003000
03C07800
07E1F800
01FBE000
007F8000
001E0000
00000000
00000000
FFC01FFC
FFC01FFC
FFE01FFC
0FE001C0
0FF001C0
0FF001C0
0FF801C0
0FF801C0
0FFC01C0
0FFC01C0
0EFE01C0
0EFE01C0
0E7F01C0
0E7F01C0
0E3F81C0
0E3F81C0
0E1FC1C0
0E1FC1C0
0E0FC1C0
0E0FE1C0
0E0FE1C0
0E07F1C0
0E07F1C0
0E03F9C0
0E03F9C0
0E01FDC0
0E01FDC0
0E00FFC0
0E00FFC0
0E007FC0
0E007FC0
0E003FC0
0E003FC0
0E003FC0
0E001FC0
0E001FC0
0E000FC0
0E000FC0
FFE007C0
FFE007C0
FFE003C0
ENDCHAR
STARTCHAR 0148
ENCODING 328
SWIDTH 666 0
DWIDTH 37 0
BBX 33 38 0 0
BITMAP
0060060000
00780F0000
00FC3F0000
003F7C0000
000FF00000
0003C00000
0000000000
0000000000
0000000000
0000000000
0000000000
FFC3FF0000
FFCFFF8000
0FDE3FC000
0FF00FE000
0FE003F000
0FE003F000
0FC001F000
0FC001F000
0FC001F800
0FC001F800
0FC001F800
0FC001F800
0FC001F800
0FC001F800
0FC001F800
0FC001F800
0FC001F800
0FC001F800
0FC001F800
0FC001F800
0FC001F800
0FC001F800
0FC001F800
0FC001F800
FFFC1FFF80
FFFC1FFF80
FFFC1FFF80
ENDCHAR
STARTCHAR 0149
ENCODING 329
SWIDTH 810 0
DWIDTH 45 0
BBX 41 41 0 0
BITMAP
3C0000000000
7F0000000000
FF0000000000
FF0000000000
FF0000000000
FF0000000000
7F0000000000
7F0000000000
070000000000
070000000000
070000000000
0E0000000000
3C0000000000
200000000000
00FFC3FF0000
00FFCFFF8000
000FDE3FC000
000FF00FE000
000FE003F000
000FE003F000
000FC001F000
000FC001F000
000FC001F800
000FC001F800
000FC001F800
000FC001F800
000FC001F800
000FC001F800
000FC001F800
000FC001F800
000FC001F800
000FC001F800
000FC001F800
000FC001F800
000FC001F800
000FC001F800
000FC001F800
000FC001F800
00FFFC1FFF80
00FFFC1FFF80
00FFFC1FFF80
ENDCHAR
STARTCHAR 014A
ENCODING 330
SWIDTH 612 0
DWIDTH 34 0
BBX 30 52 0 -11
BITMAP
FFC01FFC
FFC01FFC
FFE01FFC
0FE001C0
0FF001C0
0FF001C0
0FF801C0
0FF801C0
0FFC01C0
0FFC01C0
0EFE01C0
0EFE01C0
0E7F01C0
0E7F01C0
0E3F81C0
0E3F81C0
0E1FC1C0
0E1FC1C0
0E0FC1C0
0E0FE1C0
0E0FE1C0
0E07F1C0
0E07F1C0
0E03F9C0
0E03F9C0
0E01FDC0
0E01FDC0
0E00FFC0
0E00FFC0
0E007FC0
0E007FC0
0E003FC0
0E003FC0
0E003FC0
0E001FC0
0E001FC0
0E000FC0
0E000FC0
FFE007C0
FFE007C0
FFE003C0
000003C0
000003C0
000003C0
000007C0
00000780
00000F80
00001F00
0000FE00
001FFC00
001FF000
001F0000
ENDCHAR
STARTCHAR 014B
ENCODING 331
SWIDTH 594 0
DWIDTH 33 0
BBX 29 38 0 -11
BITMAP
FFC3FF00
FFCFFF80
0FDE3FC0
0FF00FE0
0FE003F0
0FE003F0
0FC001F0
0FC001F0
0FC001F8
0FC001F8
0FC001F8
0FC001F8
0FC001F8
0FC001F8
0FC001F8
0FC001F8
0FC001F8
0FC001F8
0FC001F8
0FC001F8
0FC001F8
0FC001F8
0FC001F8
0FC001F8
FFFC01F8
FFFC01F8
FFFC01F8
000001F8
000001F8
000001F0
000001F0
000003F0
000007E0
00000FE0
00003FC0
000FFF00
000FFC00
000FC000
ENDCHAR
STARTCHAR 014C
ENCODING 332
SWIDTH 558 0
DWIDTH 31 0
BBX 27 45 0 0
BITMAP
1FFFFF80
1FFFFF80
1FFFFF80
00000000
003FC000
01FFF000
03FFFC00
07E07E00
0F803E00
1F001F00
1F001F80
3E000F80
3E000FC0
7E0007C0
7C0007C0
7C0007C0
7C0007E0
FC0007E0
FC0003E0
FC0003E0
FC0003E0
FC0003E0
F80003E0
F80003E0
F80003E0
F80003E0
F80003E0
FC0003E0
FC0003E0
FC0003E0
FC0003E0
FC0007E0
7C0007E0
7C0007C0
7C0007C0
7E0007C0
3E000FC0
3E000F80
1F001F80
1F001F00
0F803E00
07E07E00
03FFFC00
01FFF000
003FC000
ENDCHAR
STARTCHAR 014D
ENCODING 333
SWIDTH 558 0
DWIDTH 31 0
BBX 27 34 0 0
BITMAP
1FFFFF80
1FFFFF80
1FFFFF80
00000000
00000000
00000000
00000000
00FFF000
07FFFC00
0FF1FE00
1F803F00
3F001F80
3E000FC0
7E0007C0
7C0007E0
7C0007E0
FC0003E0
FC0003E0
FC0003E0
F80003E0
F80003E0
F80003E0
FC0003E0
FC0003E0
FC0007E0
7C0007E0
7C0007C0
7E000FC0
3E000FC0
3F001F80
1FC07F00
0FFFFE00
03FFF800
007FC000
ENDCHAR
STARTCHAR 014E
ENCODING 334
SWIDTH 558 0
DWIDTH 31 0
BBX 27 49 0 0
BITMAP
0E000E00
0E000E00
0F001E00
07FFFC00
03FFFC00
01FFF000
000E0000
00000000
003FC000
01FFF000
03FFFC00
07E07E00
0F803E00
1F001F00
1F001F80
3E000F80
3E000FC0
7E0007C0
7C0007C0
7C0007C0
7C0007E0
FC0007E0
FC0003E0
FC0003E0
FC0003E0
FC0003E0
F80003E0
F80003E0
F80003E0
F80003E0
F80003E0
FC0003E0
FC0003E0
FC0003E0
FC0003E0
FC0007E0
7C0007E0
7C0007C0
7C0007C0
7E0007C0
3E000FC0
3E000F80
1F001F80
1F001F00
0F803E00
07E07E00
03FFFC00
01FFF000
003FC000
ENDCHAR
STARTCHAR 014F
ENCODING 335
SWIDTH 558 0
DWIDTH 31 0
BBX 27 38 0 0
BITMAP
0E000E00
0E000E00
0F001E00
07FFFC00
03FFFC00
01FFF000
000E0000
00000000
00000000
00000000
00000000
00FFF000
07FFFC00
0FF1FE00
1F803F00
3F001F80
3E000FC0
7E0007C0
7C0007E0
7C0007E0
FC0003E0
FC0003E0
FC0003E0
F80003E0
F80003E0
F80003E0
FC0003E0
FC0003E0
FC0007E0
7C0007E0
7C0007C0
7E000FC0
3E000FC0
3F001F80
1FC07F00
0FFFFE00
03FFF800
007FC000
ENDCHAR
STARTCHAR 0150
ENCODING 336
SWIDTH 558 0
DWIDTH 31 0
BBX 27 49 0 0
BITMAP
007E0FC0
00FC1F80
01F83F00
01E03C00
03C07800
03807000
0700E000
00000000
003FC000
01FFF000
03FFFC00
07E07E00
0F803E00
1F001F00
1F001F80
3E000F80
3E000FC0
7E0007C0
7C0007C0
7C0007C0
7C0007E0
FC0007E0
FC0003E0
FC0003E0
FC0003E0
FC0003E0
F80003E0
F80003E0
F80003E0
F80003E0
F80003E0
FC0003E0
FC0003E0
FC0003E0
FC0003E0
FC0007E0
7C0007E0
7C0007C0
7C0007C0
7E0007C0
3E000FC0
3E000F80
1F001F80
1F001F00
0F803E00
07E07E00
03FFFC00
01FFF000
003FC000
ENDCHAR
STARTCHAR 0151
ENCODING 337
SWIDTH 558 0
DWIDTH 31 0
BBX 27 38 0 0
BITMAP
007E0FC0
00FC1F80
01F83F00
01E03C00
03C07800
03807000
0700E000
00000000
00000000
00000000
00000000
00FFF000
07FFFC00
0FF1FE00
1F803F00
3F001F80
3E000FC0
7E0007C0
7C0007E0
7C0007E0
FC0003E0
FC0003E0
FC0003E0
F80003E0
F80003E0
F80003E0
FC0003E0
FC0003E0
FC0007E0
7C0007E0
7C0007C0
7E000FC0
3E000FC0
3F001F80
1FC07F00
0FFFFE00
03FFF800
007FC000
ENDCHAR
STARTCHAR 0152
ENCODING 338
SWIDTH 882 0
DWIDTH 49 0
BBX 45 41 0 0
BITMAP
003FC3FFFFF8
01FFF3FFFFF8
03FFFFFFFFF8
07E07FE00078
0F803FE00038
1F001FE00038
1F001FE00038
3E000FE00000
3E000FE00000
7E0007E00000
7C0007E00000
7C0007E00000
7C0007E00000
FC0007E00000
FC0003E00000
FC0003E00000
FC0003E00000
FC0003E00000
F80003E00000
F80003FFFC00
F80003FFFC00
F80003FFFC00
F80003E00000
FC0003E00000
FC0003E00000
FC0003E00000
FC0003E00000
FC0007E00000
7C0007E00000
7C0007E00000
7C0007E00000
7E0007E00000
3E000FE00000
3E000FE00000
1F001FE00038
1F001FE00038
0F803FE00038
07E07FE00078
03FFFFFFFFF8
01FFF3FFFFF8
003FC3FFFFF8
ENDCHAR
STARTCHAR 0153
ENCODING 339
SWIDTH 954 0
DWIDTH 53 0
BBX 49 27 0 0
BITMAP
00FFE003FFC000
07FFFC1FFFF000
0FF1FE3FC7FC00
1F803F7E00FE00
3F001FFC007E00
3E000FF8003F00
7E0007F0001F00
7C0007F0001F80
7C0007F0001F80
FC0003F0000F80
FC0003E0000F80
FC0003E0000F80
F80003FFFFFF80
F80003FFFFFF80
F80003FFFFFF80
FC0003E0000000
FC0003E0000000
FC0007F0000000
7C0007F0000000
7C0007F0000380
7E000FF8000380
3E000FF8000380
3F001FFC000700
1FC07F7F001F00
0FFFFE3FFFFC00
03FFF80FFFF800
007FC001FFC000
ENDCHAR
STARTCHAR 0154
ENCODING 340
SWIDTH 558 0
DWIDTH 31 0
BBX 27 49 0 0
BITMAP
0001F800
0003F000
0007E000
00078000
000F0000
000E0000
001C0000
00000000
FFFFE000
FFFFFC00
FFFFFF00
0FC03F80
0FC01FC0
0FC00FC0
0FC007E0
0FC007E0
0FC003E0
0FC003E0
0FC003E0
0FC003E0
0FC003E0
0FC003E0
0FC007E0
0FC007E0
0FC00FC0
0FC01FC0
0FC03F80
0FFFFF00
0FFFFE00
0FFFF000
0FCF8000
0FCFC000
0FC7C000
0FC7E000
0FC3E000
0FC3F000
0FC3F000
0FC1F800
0FC1F800
0FC0FC00
0FC0FC00
0FC0FC00
0FC07E00
0FC07E00
0FC03F00
0FC03F00
FFFCFFE0
FFFCFFE0
FFFCFFE0
ENDCHAR
STARTCHAR 0155
ENCODING 341
SWIDTH 558 0
DWIDTH 31 0
BBX 27 38 0 0
BITMAP
0001F800
0003F000
0007E000
00078000
000F0000
000E0000
001C0000
00000000
00000000
00000000
00000000
FFCFFC00
FFDFFF00
0FFE7F80
0FF00FC0
0FE007E0
0FE003E0
0FC003E0
0FC003E0
0FC00000
0FC00000
0FC00000
0FC00000
0FC00000
0FC00000
0FC00000
0FC00000
0FC00000
0FC00000
0FC00000
0FC00000
0FC00000
0FC00000
0FC00000
0FC00000
FFFC0000
FFFC0000
FFFC0000
ENDCHAR
STARTCHAR 0156
ENCODING 342
SWIDTH 558 0
DWIDTH 31 0
BBX 27 52 0 -11
BITMAP
FFFFE000
FFFFFC00
FFFFFF00
0FC03F80
0FC01FC0
0FC00FC0
0FC007E0
0FC007E0
0FC003E0
0FC003E0
0FC003E0
0FC003E0
0FC003E0
0FC003E0
0FC007E0
0FC007E0
0FC00FC0
0FC01FC0
0FC03F80
0FFFFF00
0FFFFE00
0FFFF000
0FCF8000
0FCFC000
0FC7C000
0FC7E000
0FC3E000
0FC3F000
0FC3F000
0FC1F800
0FC1F800
0FC0FC00
0FC0FC00
0FC0FC00
0FC07E00
0FC07E00
0FC03F00
0FC03F00
FFFCFFE0
FFFCFFE0
FFFCFFE0
00000000
000E0000
001F0000
001F8000
001F8000
001F8000
000F8000
00018000
00030000
00030000
000C0000
ENDCHAR
STARTCHAR 0157
ENCODING 343
SWIDTH 558 0
DWIDTH 31 0
BBX 27 38 0 -11
BITMAP
FFCFFC00
FFDFFF00
0FFE7F80
0FF00FC0
0FE007E0
0FE003E0
0FC003E0
0FC003E0
0FC00000
0FC00000
0FC00000
0FC00000
0FC00000
0FC00000
0FC00000
0FC00000
0FC00000
0FC00000
0FC00000
0FC00000
0FC00000
0FC00000
0FC00000
0FC00000
FFFC0000
FFFC0000
FFFC0000
00000000
000E0000
001F0000
001F8000
001F8000
001F8000
000F8000
00018000
00030000
00030000
000C0000
ENDCHAR
STARTCHAR 0158
ENCODING 344
SWIDTH 558 0
DWIDTH 31 0
BBX 27 49 0 0
BITMAP
03003000
03C07800
07E1F800
01FBE000
007F8000
001E0000
00000000
00000000
FFFFE000
FFFFFC00
FFFFFF00
0FC03F80
0FC01FC0
0FC00FC0
0FC007E0
0FC007E0
0FC003E0
0FC003E0
0FC003E0
0FC003E0
0FC003E0
0FC003E0
0FC007E0
0FC007E0
0FC00FC0
0FC01FC0
0FC03F80
0FFFFF00
0FFFFE00
0FFFF000
0FCF8000
0FCFC000
0FC7C000
0FC7E000
0FC3E000
0FC3F000
0FC3F000
0FC1F800
0FC1F800
0FC0FC00
0FC0FC00
0FC0FC00
0FC07E00
0FC07E00
0FC03F00
0FC03F00
FFFCFFE0
FFFCFFE0
FFFCFFE0
ENDCHAR
STARTCHAR 0159
ENCODING 345
SWIDTH 558 0
DWIDTH 31 0
BBX 27 38 0 0
BITMAP
03003000
03C07800
07E1F800
01FBE000
007F8000
001E0000
00000000
00000000
00000000
00000000
00000000
FFCFFC00
FFDFFF00
0FFE7F80
0FF00FC0
0FE007E0
0FE003E0
0FC003E0
0FC003E0
0FC00000
0FC00000
0FC00000
0FC00000
0FC00000
0FC00000
0FC00000
0FC00000
0FC00000
0FC00000
0FC00000
0FC00000
0FC00000
0FC00000
0FC00000
0FC00000
FFFC0000
FFFC0000
FFFC0000
ENDCHAR
STARTCHAR 015A
ENCODING 346
SWIDTH 558 0
DWIDTH 31 0
BBX 27 49 0 0
BITMAP
0000FC00
0001F800
0003F000
0003C000
00078000
00070000
000E0000
00000000
007FC0E0
03FFF0E0
0FFFF9E0
1FC03DE0
1F001DE0
3E000FE0
7E000FE0
7C0007E0
7C0007E0
7C0007E0
7C0007E0
7C000000
7C000000
7E000000
7E000000
7F000000
7F800000
3FF00000
3FFFF000
1FFFFC00
0FFFFF00
03FFFF80
00FFFFC0
0000FFC0
00001FE0
00000FE0
000007E0
000007E0
000003E0
000003E0
F80003E0
FC0003E0
FC0003E0
FC0003E0
FC0007C0
FE0007C0
FF000F80
F7803F80
E3FFFE00
E1FFFC00
E07FE000
ENDCHAR
STARTCHAR 015B
ENCODING 347
SWIDTH 558 0
DWIDTH 31 0
BBX 27 38 0 0
BITMAP
0000FC00
0001F800
0003F000
0003C000
00078000
00070000
000E0000
00000000
00000000
00000000
00000000
01FFC1C0
07FFF1C0
1FF1F9C0
1F003BC0
3E001FC0
3E000FC0
7E000FC0
7E000FC0
7E000000
3F000000
3FF80000
3FFFF800
1FFFFF00
0FFFFF80
07FFFFC0
00FFFFE0
00003FE0
00000FE0
000007E0
FC0003E0
FC0003E0
FC0003E0
FE0007C0
F7801FC0
E3FFFF80
E1FFFE00
E07FF000
ENDCHAR
STARTCHAR 015C
ENCODING 348
SWIDTH 558 0
DWIDTH 31 0
BBX 27 49 0 0
BITMAP
00040000
001F0000
007FC000
03FBF800
0FE07E00
07001C00
00000400
00000000
007FC0E0
03FFF0E0
0FFFF9E0
1FC03DE0
1F001DE0
3E000FE0
7E000FE0
7C0007E0
7C0007E0
7C0007E0
7C0007E0
7C000000
7C000000
7E000000
7E000000
7F000000
7F800000
3FF00000
3FFFF000
1FFFFC00
0FFFFF00
03FFFF80
00FFFFC0
0000FFC0
00001FE0
00000FE0
000007E0
000007E0
000003E0
000003E0
F80003E0
FC0003E0
FC0003E0
FC0003E0
FC0007C0
FE0007C0
FF000F80
F7803F80
E3FFFE00
E1FFFC00
E07FE000
ENDCHAR
STARTCHAR 015D
ENCODING 349
SWIDTH 558 0
DWIDTH 31 0
BBX 27 38 0 0
BITMAP
00040000
001F0000
007FC000
03FBF800
0FE07E00
07001C00
00000400
00000000
00000000
00000000
00000000
01FFC1C0
07FFF1C0
1FF1F9C0
1F003BC0
3E001FC0
3E000FC0
7E000FC0
7E000FC0
7E000000
3F000000
3FF80000
3FFFF800
1FFFFF00
0FFFFF80
07FFFFC0
00FFFFE0
00003FE0
00000FE0
000007E0
FC0003E0
FC0003E0
FC0003E0
FE0007C0
F7801FC0
E3FFFF80
E1FFFE00
E07FF000
ENDCHAR
STARTCHAR 015E
ENCODING 350
SWIDTH 558 0
DWIDTH 31 0
BBX 27 52 0 -11
BITMAP
007FC0E0
03FFF0E0
0FFFF9E0
1FC03DE0
1F001DE0
3E000FE0
7E000FE0
7C0007E0
7C0007E0
7C0007E0
7C0007E0
7C000000
7C000000
7E000000
7E000000
7F000000
7F800000
3FF00000
3FFFF000
1FFFFC00
0FFFFF00
03FFFF80
00FFFFC0
0000FFC0
00001FE0
00000FE0
000007E0
000007E0
000003E0
000003E0
F80003E0
FC0003E0
FC0003E0
FC0003E0
FC0007C0
FE0007C0
FF000F80
F7803F80
E3FFFE00
E1FFFC00
E07FE000
00070000
000E0000
000E0000
001FC000
001FF000
000C3800
00001800
00001800
00007800
0000F000
00008000
ENDCHAR
STARTCHAR 015F
ENCODING 351
SWIDTH 558 0
DWIDTH 31 0
BBX 27 38 0 -11
BITMAP
01FFC1C0
07FFF1C0
1FF1F9C0
1F003BC0
3E001FC0
3E000FC0
7E000FC0
7E000FC0
7E000000
3F000000
3FF80000
3FFFF800
1FFFFF00
0FFFFF80
07FFFFC0
00FFFFE0
00003FE0
00000FE0
000007E0
FC0003E0
FC0003E0
FC0003E0
FE0007C0
F7801FC0
E3FFFF80
E1FFFE00
E07FF000
00070000
000E0000
000E0000
001FC000
001FF000
000C3800
00001800
00001800
00007800
0000F000
00008000
ENDCHAR
STARTCHAR 0160
ENCODING 352
SWIDTH 558 0
DWIDTH 31 0
BBX 27 49 0 0
BITMAP
03003000
03C07800
07E1F800
01FBE000
007F8000
001E0000
00000000
00000000
007FC0E0
03FFF0E0
0FFFF9E0
1FC03DE0
1F001DE0
3E000FE0
7E000FE0
7C0007E0
7C0007E0
7C0007E0
7C0007E0
7C000000
7C000000
7E000000
7E000000
7F000000
7F800000
3FF00000
3FFFF000
1FFFFC00
0FFFFF00
03FFFF80
00FFFFC0
0000FFC0
00001FE0
00000FE0
000007E0
000007E0
000003E0
000003E0
F80003E0
FC0003E0
FC0003E0
FC0003E0
FC0007C0
FE0007C0
FF000F80
F7803F80
E3FFFE00
E1FFFC00
E07FE000
ENDCHAR
STARTCHAR 0161
ENCODING 353
SWIDTH 558 0
DWIDTH 31 0
BBX 27 38 0 0
BITMAP
03003000
03C07800
07E1F800
01FBE000
007F8000
001E0000
00000000
00000000
00000000
00000000
00000000
01FFC1C0
07FFF1C0
1FF1F9C0
1F003BC0
3E001FC0
3E000FC0
7E000FC0
7E000FC0
7E000000
3F000000
3FF80000
3FFFF800
1FFFFF00
0FFFFF80
07FFFFC0
00FFFFE0
00003FE0
00000FE0
000007E0
FC0003E0
FC0003E0
FC0003E0
FE0007C0
F7801FC0
E3FFFF80
E1FFFE00
E07FF000
ENDCHAR
STARTCHAR 0162
ENCODING 354
SWIDTH 558 0
DWIDTH 31 0
BBX 27 52 0 -11
BITMAP
FFFFFFE0
FFFFFFE0
FFFFFFE0
F01F00E0
F01F00E0
E01F00E0
E01F00E0
001F0000
001F0000
001F0000
001F0000
001F0000
001F0000
001F0000
001F0000
001F0000
001F0000
001F0000
001F0000
001F0000
001F0000
001F0000
001F0000
001F0000
001F0000
001F0000
001F0000
001F0000
001F0000
001F0000
001F0000
001F0000
001F0000
001F0000
001F0000
001F0000
001F0000
001F0000
01FFF800
01FFF800
01FFF800
000E0000
001C0000
001C0000
003F8000
003FE000
00187000
00003000
00003000
0000F000
0001E000
00010000
ENDCHAR
STARTCHAR 0163
ENCODING 355
SWIDTH 324 0
DWIDTH 18 0
BBX 23 49 0 -11
BITMAP
002000
006000
00E000
01E000
03E000
07E000
07E000
07E000
07E000
07E000
07E000
FFFF00
FFFF00
07E000
07E000
07E000
07E000
07E000
07E000
07E000
07E000
07E000
07E000
07E000
07E000
07E000
07E000
07E000
07E000
07E000
07E000
03E000
03E000
03F000
01FC00
00FFC0
007FC0
000FC0
0001C0
000380
000380
0007F0
0007FC
00030E
000006
000006
00001E
00003C
000020
ENDCHAR
STARTCHAR 0164
ENCODING 356
SWIDTH 558 0
DWIDTH 31 0
BBX 27 49 0 0
BITMAP
03003000
03C07800
07E1F800
01FBE000
007F8000
001E0000
00000000
00000000
FFFFFFE0
FFFFFFE0
FFFFFFE0
F01F00E0
F01F00E0
E01F00E0
E01F00E0
001F0000
001F0000
001F0000
001F0000
001F0000
001F0000
001F0000
001F0000
001F0000
001F0000
001F0000
001F0000
001F0000
001F0000
001F0000
001F0000
001F0000
001F0000
001F0000
001F0000
001F0000
001F0000
001F0000
001F0000
001F0000
001F0000
001F0000
001F0000
001F0000
001F0000
001F0000
01FFF800
01FFF800
01FFF800
ENDCHAR
STARTCHAR 0165
ENCODING 357
SWIDTH 468 0
DWIDTH 26 0
BBX 22 44 0 0
BITMAP
0000F0
0001FC
0003FC
0003FC
0003FC
0003FC
0021FC
0061FC
00E01C
01E01C
03E01C
07E038
07E0F0
07E080
07E000
07E000
07E000
FFFF00
FFFF00
07E000
07E000
07E000
07E000
07E000
07E000
07E000
07E000
07E000
07E000
07E000
07E000
07E000
07E000
07E000
07E000
07E000
07E000
03E000
03E000
03F000
01FC00
00FFC0
007FC0
000FC0
ENDCHAR
STARTCHAR 0166
ENCODING 358
SWIDTH 558 0
DWIDTH 31 0
BBX 27 41 0 0
BITMAP
FFFFFFE0
FFFFFFE0
FFFFFFE0
F01F00E0
F01F00E0
E01F00E0
E01F00E0
001F0000
001F0000
001F0000
001F0000
001F0000
001F0000
001F0000
001F0000
001F0000
001F0000
001F0000
001F0000
01FFF800
01FFF800
01FFF800
001F0000
001F0000
001F0000
001F0000
001F0000
001F0000
001F0000
001F0000
001F0000
001F0000
001F0000
001F0000
001F0000
001F0000
001F0000
001F0000
01FFF800
01FFF800
01FFF800
ENDCHAR
STARTCHAR 0167
ENCODING 359
SWIDTH 396 0
DWIDTH 22 0
BBX 18 38 0 0
BITMAP
002000
006000
00E000
01E000
03E000
07E000
07E000
07E000
07E000
07E000
07E000
FFFF00
FFFF00
07E000
07E000
07E000
07E000
07E000
07E000
07E000
07E000
07E000
07E000
FFFF00
FFFF00
FFFF00
07E000
07E000
07E000
07E000
07E000
03E000
03E000
03F000
01FC00
00FFC0
007FC0
000FC0
ENDCHAR
STARTCHAR 0168
ENCODING 360
SWIDTH 594 0
DWIDTH 33 0
BBX 29 50 0 0
BITMAP
00780000
01FC0000
03FE0000
07CF0600
03079F00
0003FE00
0001FC00
00006000
00000000
FFFC3FF8
FFFC3FF8
FFFC3FF8
0FC00380
0FC00380
0FC00380
0FC00380
0FC00380
0FC00380
0FC00380
0FC00380
0FC00380
0FC00380
0FC00380
0FC00380
0FC00380
0FC00380
0FC00380
0FC00380
0FC00380
0FC00380
0FC00380
0FC00380
0FC00380
0FC00380
0FC00380
0FC00380
0FC00380
0FC00380
0FC00380
0FC00380
0FC00380
0FC00380
0FC00380
0FC00300
0FC00700
07E00700
07F01E00
03FFFE00
01FFF800
003FE000
ENDCHAR
STARTCHAR 0169
ENCODING 361
SWIDTH 666 0
DWIDTH 37 0
BBX 33 39 0 0
BITMAP
0078000000
01FC000000
03FE000000
07CF060000
03079F0000
0003FE0000
0001FC0000
0000600000
0000000000
0000000000
0000000000
0000000000
FFC01FF800
FFC01FF800
0FC001F800
0FC001F800
0FC001F800
0FC001F800
0FC001F800
0FC001F800
0FC001F800
0FC001F800
0FC001F800
0FC001F800
0FC001F800
0FC001F800
0FC001F800
0FC001F800
0FC001F800
0FC001F800
0FC001F800
0FC001F800
07C001F800
07E003F800
07F007F800
03F80DF800
01FFFDFF80
00FFF9FF80
003FC1FF80
ENDCHAR
STARTCHAR 016A
ENCODING 362
SWIDTH 594 0
DWIDTH 33 0
BBX 29 45 0 0
BITMAP
1FFFFF80
1FFFFF80
1FFFFF80
00000000
FFFC3FF8
FFFC3FF8
FFFC3FF8
0FC00380
0FC00380
0FC00380
0FC00380
0FC00380
0FC00380
0FC00380
0FC00380
0FC00380
0FC00380
0FC00380
0FC00380
0FC00380
0FC00380
0FC00380
0FC00380
0FC00380
0FC00380
0FC00380
0FC00380
0FC00380
0FC00380
0FC00380
0FC00380
0FC00380
0FC00380
0FC00380
0FC00380
0FC00380
0FC00380
0FC00380
0FC00300
0FC00700
07E00700
07F01E00
03FFFE00
01FFF800
003FE000
ENDCHAR
STARTCHAR 016B
ENCODING 363
SWIDTH 666 0
DWIDTH 37 0
BBX 33 34 0 0
BITMAP
07FFFFE000
07FFFFE000
07FFFFE000
0000000000
0000000000
0000000000
0000000000
FFC01FF800
FFC01FF800
0FC001F800
0FC001F800
0FC001F800
0FC001F800
0FC001F800
0FC001F800
0FC001F800
0FC001F800
0FC001F800
0FC001F800
0FC001F800
0FC001F800
0FC001F800
0FC001F800
0FC001F800
0FC001F800
0FC001F800
0FC001F800
07C001F800
07E003F800
07F007F800
03F80DF800
01FFFDFF80
00FFF9FF80
003FC1FF80
ENDCHAR
STARTCHAR 016C
ENCODING 364
SWIDTH 594 0
DWIDTH 33 0
BBX 29 49 0 0
BITMAP
07000700
07000700
07800F00
03FFFE00
01FFFE00
00FFF800
00070000
00000000
FFFC3FF8
FFFC3FF8
FFFC3FF8
0FC00380
0FC00380
0FC00380
0FC00380
0FC00380
0FC00380
0FC00380
0FC00380
0FC00380
0FC00380
0FC00380
0FC00380
0FC00380
0FC00380
0FC00380
0FC00380
0FC00380
0FC00380
0FC00380
0FC00380
0FC00380
0FC00380
0FC00380
0FC00380
0FC00380
0FC00380
0FC00380
0FC00380
0FC00380
0FC00380
0FC00380
0FC00300
0FC00700
07E00700
07F01E00
03FFFE00
01FFF800
003FE000
ENDCHAR
STARTCHAR 016D
ENCODING 365
SWIDTH 666 0
DWIDTH 37 0
BBX 33 38 0 0
BITMAP
01C001C000
01C001C000
01E003C000
00FFFF8000
007FFF8000
003FFE0000
0001C00000
0000000000
0000000000
0000000000
0000000000
FFC01FF800
FFC01FF800
0FC001F800
0FC001F800
0FC001F800
0FC001F800
0FC001F800
0FC001F800
0FC001F800
0FC001F800
0FC001F800
0FC001F800
0FC001F800
0FC001F800
0FC001F800
0FC001F800
0FC001F800
0FC001F800
0FC001F800
0FC001F800
07C001F800
07E003F800
07F007F800
03F80DF800
01FFFDFF80
00FFF9FF80
003FC1FF80
ENDCHAR
STARTCHAR 016E
ENCODING 366
SWIDTH 594 0
DWIDTH 33 0
BBX 29 50 0 0
BITMAP
00070000
001F8000
001DC000
0018C000
0018C000
001DC000
000F8000
00020000
00000000
FFFC3FF8
FFFC3FF8
FFFC3FF8
0FC00380
0FC00380
0FC00380
0FC00380
0FC00380
0FC00380
0FC00380
0FC00380
0FC00380
0FC00380
0FC00380
0FC00380
0FC00380
0FC00380
0FC00380
0FC00380
0FC00380
0FC00380
0FC00380
0FC00380
0FC00380
0FC00380
0FC00380
0FC00380
0FC00380
0FC00380
0FC00380
0FC00380
0FC00380
0FC00380
0FC00380
0FC00300
0FC00700
07E00700
07F01E00
03FFFE00
01FFF800
003FE000
ENDCHAR
STARTCHAR 016F
ENCODING 367
SWIDTH 666 0
DWIDTH 37 0
BBX 33 39 0 0
BITMAP
0003800000
000FC00000
000EE00000
000C600000
000C600000
000EE00000
0007C00000
0001000000
0000000000
0000000000
0000000000
0000000000
FFC01FF800
FFC01FF800
0FC001F800
0FC001F800
0FC001F800
0FC001F800
0FC001F800
0FC001F800
0FC001F800
0FC001F800
0FC001F800
0FC001F800
0FC001F800
0FC001F800
0FC001F800
0FC001F800
0FC001F800
0FC001F800
0FC001F800
0FC001F800
07C001F800
07E003F800
07F007F800
03F80DF800
01FFFDFF80
00FFF9FF80
003FC1FF80
ENDCHAR
STARTCHAR 0170
ENCODING 368
SWIDTH 594 0
DWIDTH 33 0
BBX 29 49 0 0
BITMAP
007E0FC0
00FC1F80
01F83F00
01E03C00
03C07800
03807000
0700E000
00000000
FFFC3FF8
FFFC3FF8
FFFC3FF8
0FC00380
0FC00380
0FC00380
0FC00380
0FC00380
0FC00380
0FC00380
0FC00380
0FC00380
0FC00380
0FC00380
0FC00380
0FC00380
0FC00380
0FC00380
0FC00380
0FC00380
0FC00380
0FC00380
0FC00380
0FC00380
0FC00380
0FC00380
0FC00380
0FC00380
0FC00380
0FC00380
0FC00380
0FC00380
0FC00380
0FC00380
0FC00300
0FC00700
07E00700
07F01E00
03FFFE00
01FFF800
003FE000
ENDCHAR
STARTCHAR 0171
ENCODING 369
SWIDTH 666 0
DWIDTH 37 0
BBX 33 38 0 0
BITMAP
001F83F000
003F07E000
007E0FC000
00780F0000
00F01E0000
00E01C0000
01C0380000
0000000000
0000000000
0000000000
0000000000
FFC01FF800
FFC01FF800
0FC001F800
0FC001F800
0FC001F800
0FC001F800
0FC001F800
0FC001F800
0FC001F800
0FC001F800
0FC001F800
0FC001F800
0FC001F800
0FC001F800
0FC001F800
0FC001F800
0FC001F800
0FC001F800
0FC001F800
0FC001F800
07C001F800
07E003F800
07F007F800
03F80DF800
01FFFDFF80
00FFF9FF80
003FC1FF80
ENDCHAR
STARTCHAR 0172
ENCODING 370
SWIDTH 594 0
DWIDTH 33 0
BBX 29 49 0 -8
BITMAP
FFFC3FF8
FFFC3FF8
FFFC3FF8
0FC00380
0FC00380
0FC00380
0FC00380
0FC00380
0FC00380
0FC00380
0FC00380
0FC00380
0FC00380
0FC00380
0FC00380
0FC00380
0FC00380
0FC00380
0FC00380
0FC00380
0FC00380
0FC00380
0FC00380
0FC00380
0FC00380
0FC00380
0FC00380
0FC00380
0FC00380
0FC00380
0FC00380
0FC00380
0FC00380
0FC00380
0FC00300
0FC00700
07E00700
07F01E00
03FFFE00
01FFF800
003FE000
00038000
00070000
000F0000
000F8000
000F8000
0007C000
0007E000
0003F800
ENDCHAR
STARTCHAR 0173
ENCODING 371
SWIDTH 666 0
DWIDTH 37 0
BBX 33 35 0 -8
BITMAP
FFC01FF800
FFC01FF800
0FC001F800
0FC001F800
0FC001F800
0FC001F800
0FC001F800
0FC001F800
0FC001F800
0FC001F800
0FC001F800
0FC001F800
0FC001F800
0FC001F800
0FC001F800
0FC001F800
0FC001F800
0FC001F800
0FC001F800
0FC001F800
07C001F800
07E003F800
07F007F800
03F80DF800
01FFFDFF80
00FFF9FF80
003FC1FF80
0003800000
0007000000
000F000000
000F800000
000F800000
0007C00000
0007E00000
0003F80000
ENDCHAR
STARTCHAR 0174
ENCODING 372
SWIDTH 774 0
DWIDTH 43 0
BBX 39 49 0 0
BITMAP
0000080000
00003E0000
0000FF8000
0007F7F000
001FC0FC00
000E003800
0000000800
0000000000
FFFC3E0FFE
FFFC3E0FFE
FFFC3E0FFE
0FC03E00E0
0FC03F00C0
07C03F00C0
07C07F01C0
07C07F01C0
07C07F01C0
07E07F81C0
07E07F81C0
03E06F81C0
03E0EF8180
03E0EF8180
03E0EFC180
03E0EFC380
03E0C7C380
03F0C7C380
01F1C7C380
01F1C7E380
01F1C7E300
01F183E300
01F183E300
01F183E300
00FB83F300
00FB83F700
00FB81F700
00FB01F700
00FB01F600
00FB01FE00
007F01FE00
007F00FE00
007E00FE00
007E00FE00
007E00FE00
007E00FE00
003E007C00
003E007C00
003C007C00
003C007C00
003C007C00
ENDCHAR
STARTCHAR 0175
ENCODING 373
SWIDTH 774 0
DWIDTH 43 0
BBX 39 38 0 0
BITMAP
0000080000
00003E0000
0000FF8000
0007F7F000
001FC0FC00
000E003800
0000000800
0000000000
0000000000
0000000000
0000000000
FFFC3E0FFE
FFFC3E0FFE
0FC03F00E0
0FC07F00C0
07C07F01C0
07C07F81C0
07E07F81C0
07E0EF81C0
03E0CFC180
03E0CFC180
03F0C7C380
03F1C7C380
01F187E380
01F183E300
01F983E300
01FB83F700
00FB83F700
00FB01F700
00FF01FE00
00FF01FE00
007F00FE00
007E00FE00
007E00FE00
007E007E00
003E007C00
003C007C00
003C007C00
ENDCHAR
STARTCHAR 0176
ENCODING 374
SWIDTH 558 0
DWIDTH 31 0
BBX 27 49 0 0
BITMAP
00040000
001F0000
007FC000
03FBF800
0FE07E00
07001C00
00000400
00000000
FFFCFFE0
FFFCFFE0
FFFCFFE0
0FC00E00
07C00E00
07C00C00
07E01C00
03E01C00
03E01800
03F01800
01F03800
01F03800
01F03000
01F87000
00F87000
00F86000
00FC6000
007CE000
007CC000
007CC000
003FC000
003F8000
003F8000
001F8000
001F0000
001F0000
001F0000
001F0000
001F0000
001F0000
001F0000
001F0000
001F0000
001F0000
001F0000
001F0000
001F0000
001F0000
01FFF800
01FFF800
01FFF800
ENDCHAR
STARTCHAR 0177
ENCODING 375
SWIDTH 558 0
DWIDTH 31 0
BBX 27 49 0 -11
BITMAP
00020000
000F8000
003FE000
01FDFC00
07F03F00
03800E00
00000200
00000000
00000000
00000000
00000000
FFFCFFE0
FFFCFFE0
0FC00E00
0FC00E00
07C00E00
07E00C00
07E01C00
03E01C00
03F01800
03F03800
01F03800
01F83000
01F83000
00F87000
00FC7000
00FC6000
007CE000
007EE000
007EC000
003EC000
003FC000
003F8000
001F8000
001F8000
001F0000
000F0000
000F0000
000F0000
000E0000
000E0000
001E0000
001C0000
003C0000
00380000
00F00000
07E00000
07C00000
07000000
ENDCHAR
STARTCHAR 0178
ENCODING 376
SWIDTH 558 0
DWIDTH 31 0
BBX 27 48 0 0
BITMAP
07001C00
0F803E00
0F803E00
0F803E00
0F803E00
03000800
00000000
FFFCFFE0
FFFCFFE0
FFFCFFE0
0FC00E00
07C00E00
07C00C00
07E01C00
03E01C00
03E01800
03F01800
01F03800
01F03800
01F03000
01F87000
00F87000
00F86000
00FC6000
007CE000
007CC000
007CC000
003FC000
003F8000
003F8000
001F8000
001F0000
001F0000
001F0000
001F0000
001F0000
001F0000
001F0000
001F0000
001F0000
001F0000
001F0000
001F0000
001F0000
001F0000
01FFF800
01FFF800
01FFF800
ENDCHAR
STARTCHAR 0179
ENCODING 377
SWIDTH 468 0
DWIDTH 26 0
BBX 22 49 0 0
BITMAP
000FC0
001F80
003F00
003C00
007800
007000
00E000
000000
FFFFFC
FFFFFC
FFFFFC
F000FC
F000F8
E001F8
E001F0
0003F0
0003E0
0007E0
0007C0
000FC0
000F80
001F80
001F00
003F00
003F00
003E00
007E00
007C00
00FC00
00F800
01F800
01F000
03F000
03E000
07E000
07C000
0FC000
0FC000
0F8000
1F8000
1F0000
3F0000
3E001C
7E001C
7C003C
FC003C
FFFFFC
FFFFFC
FFFFFC
ENDCHAR
STARTCHAR 017A
ENCODING 378
SWIDTH 468 0
DWIDTH 26 0
BBX 22 38 0 0
BITMAP
0003F0
0007E0
000FC0
000F00
001E00
001C00
003800
000000
000000
000000
000000
FFFFFC
FFFFFC
F001FC
F003F8
E003F0
E007F0
000FE0
000FC0
001FC0
003F80
007F00
007F00
00FE00
01FC00
01FC00
03F800
07F000
07F000
0FE000
1FC000
1F801C
3F801C
7F003C
7E003C
FFFFFC
FFFFFC
FFFFFC
ENDCHAR
STARTCHAR 017B
ENCODING 379
SWIDTH 468 0
DWIDTH 26 0
BBX 22 48 0 0
BITMAP
007800
00FC00
00FC00
00FC00
00FC00
003000
000000
FFFFFC
FFFFFC
FFFFFC
F000FC
F000F8
E001F8
E001F0
0003F0
0003E0
0007E0
0007C0
000FC0
000F80
001F80
001F00
003F00
003F00
003E00
007E00
007C00
00FC00
00F800
01F800
01F000
03F000
03E000
07E000
07C000
0FC000
0FC000
0F8000
1F8000
1F0000
3F0000
3E001C
7E001C
7C003C
FC003C
FFFFFC
FFFFFC
FFFFFC
ENDCHAR
STARTCHAR 017C
ENCODING 380
SWIDTH 468 0
DWIDTH 26 0
BBX 22 37 0 0
BITMAP
007800
00FC00
00FC00
00FC00
00FC00
003000
000000
000000
000000
000000
FFFFFC
FFFFFC
F001FC
F003F8
E003F0
E007F0
000FE0
000FC0
001FC0
003F80
007F00
007F00
00FE00
01FC00
01FC00
03F800
07F000
07F000
0FE000
1FC000
1F801C
3F801C
7F003C
7E003C
FFFFFC
FFFFFC
FFFFFC
ENDCHAR
STARTCHAR 017D
ENCODING 381
SWIDTH 468 0
DWIDTH 26 0
BBX 22 49 0 0
BITMAP
0C00C0
0F01E0
1F87E0
07EF80
01FE00
007800
000000
000000
FFFFFC
FFFFFC
FFFFFC
F000FC
F000F8
E001F8
E001F0
0003F0
0003E0
0007E0
0007C0
000FC0
000F80
001F80
001F00
003F00
003F00
003E00
007E00
007C00
00FC00
00F800
01F800
01F000
03F000
03E000
07E000
07C000
0FC000
0FC000
0F8000
1F8000
1F0000
3F0000
3E001C
7E001C
7C003C
FC003C
FFFFFC
FFFFFC
FFFFFC
ENDCHAR
STARTCHAR 017E
ENCODING 382
SWIDTH 468 0
DWIDTH 26 0
BBX 22 38 0 0
BITMAP
0C00C0
0F01E0
1F87E0
07EF80
01FE00
007800
000000
000000
000000
000000
000000
FFFFFC
FFFFFC
F001FC
F003F8
E003F0
E007F0
000FE0
000FC0
001FC0
003F80
007F00
007F00
00FE00
01FC00
01FC00
03F800
07F000
07F000
0FE000
1FC000
1F801C
3F801C
7F003C
7E003C
FFFFFC
FFFFFC
FFFFFC
ENDCHAR
STARTCHAR 017F
ENCODING 383
SWIDTH 324 0
DWIDTH 18 0
BBX 15 41 0 0
BITMAP
003E
01FE
03FE
07E0
0FC0
0FC0
0FC0
0FC0
0FC0
0FC0
0FC0
0FC0
0FC0
0FC0
FFC0
FFC0
0FC0
0FC0
0FC0
0FC0
0FC0
0FC0
0FC0
0FC0
0FC0
0FC0
0FC0
0FC0
0FC0
0FC0
0FC0
0FC0
0FC0
0FC0
0FC0
0FC0
0FC0
0FC0
FFFC
FFFC
FFFC
ENDCHAR
STARTCHAR 0180
ENCODING 384
SWIDTH 594 0
DWIDTH 33 0
BBX 29 41 0 0
BITMAP
FFC00000
FFC00000
FFC00000
0FC00000
0FC00000
FFFC0000
FFFC0000
FFFC0000
0FC00000
0FC00000
0FC00000
0FC00000
0FC00000
0FC00000
0FC7FE00
0FDFFF00
0FDE7F80
0FF00FC0
0FE007E0
0FE003E0
0FC003F0
0FC001F0
0FC001F0
0FC001F0
0FC001F8
0FC001F8
0FC001F8
0FC001F8
0FC001F8
0FC001F8
0FC001F8
0FC001F0
0FC001F0
0FC001F0
0FC003F0
0FE003E0
0FE007E0
0F700FC0
0E3C1F80
0E1FFF00
0E03FC00
ENDCHAR
STARTCHAR 0181
ENCODING 385
SWIDTH 612 0
DWIDTH 34 0
BBX 30 41 0 0
BITMAP
0FFFF800
3FFFFF00
7FFFFFC0
79F00FE0
F1F003E0
F1F003F0
F1F001F0
01F001F8
01F001F8
01F001F8
01F001F8
01F001F8
01F001F0
01F003F0
01F003F0
01F00FE0
01FFFFC0
01FFFF00
01FFFFC0
01F01FE0
01F007F0
01F001F8
01F001F8
01F000F8
01F000FC
01F000FC
01F000FC
01F0007C
01F0007C
01F0007C
01F000FC
01F000FC
01F000FC
01F000F8
01F001F8
01F001F8
01F003F0
01F00FE0
1FFFFFC0
1FFFFF00
1FFFF800
ENDCHAR
STARTCHAR 0182
ENCODING 386
SWIDTH 558 0
DWIDTH 31 0
BBX 27 41 0 0
BITMAP
FFFFFFC0
FFFFFFC0
FFFFFFC0
0FC003C0
0FC003C0
0FC001C0
0FC001C0
0FC00000
0FC00000
0FC00000
0FC00000
0FC00000
0FC00000
0FC00000
0FC00000
0FC00000
0FFE0000
0FFFF800
0FFFFE00
0FC0FF00
0FC01F80
0FC00FC0
0FC00FC0
0FC007E0
0FC007E0
0FC003E0
0FC003E0
0FC003E0
0FC003E0
0FC003E0
0FC003E0
0FC003E0
0FC007E0
0FC007E0
0FC007C0
0FC00FC0
0FC01F80
0FC03F00
FFFFFE00
FFFFFC00
FFFFE000
ENDCHAR
STARTCHAR 0183
ENCODING 387
SWIDTH 522 0
DWIDTH 29 0
BBX 25 41 0 0
BITMAP
FFFFFE00
FFFFFE00
FFFFFE00
F8001E00
F8000E00
F8000E00
F8000E00
F8000000
F8000000
F8000000
F8000000
F8000000
F8000000
F8000000
F87FC000
F9FFF000
FBE7F800
FB00FC00
FA007E00
FC003E00
FC003F00
FC003F00
FC001F00
FC001F00
F8001F00
F8001F80
F8001F80
F8001F80
F8001F80
F8001F80
F8001F00
F8001F00
FC001F00
FC003F00
FC003F00
FC003E00
FE007E00
F700FC00
E3C1F800
E1FFF000
E07F8000
ENDCHAR
STARTCHAR 0184
ENCODING 388
SWIDTH 558 0
DWIDTH 31 0
BBX 27 41 0 0
BITMAP
00C00000
07C00000
1FC00000
FFC00000
3FC00000
0FC00000
0FC00000
0FC00000
0FC00000
0FC00000
0FC00000
0FC00000
0FC00000
0FC00000
0FC00000
0FC00000
0FFE0000
0FFFF800
0FFFFE00
0FC0FF00
0FC01F80
0FC00FC0
0FC00FC0
0FC007E0
0FC007E0
0FC003E0
0FC003E0
0FC003E0
0FC003E0
0FC003E0
0FC003E0
0FC003E0
0FC007E0
0FC007E0
0FC007C0
0FC00FC0
0FC01F80
0FC03F00
FFFFFE00
FFFFFC00
FFFFE000
ENDCHAR
STARTCHAR 0185
ENCODING 389
SWIDTH 594 0
DWIDTH 33 0
BBX 28 41 1 0
BITMAP
01800000
07800000
1F800000
FF800000
FF800000
1F800000
1F800000
1F800000
1F800000
1F800000
1F800000
1F800000
1F800000
1F800000
1F8FFC00
1FBFFE00
1FBCFF00
1FE01F80
1FC00FC0
1FC007C0
1F8007E0
1F8003E0
1F8003E0
1F8003E0
1F8003F0
1F8003F0
1F8003F0
1F8003F0
1F8003F0
1F8003F0
1F8003F0
1F8003E0
1F8003E0
1F8003E0
1F8007E0
1FC007C0
1FC00FC0
1EE01F80
1C783F00
1C3FFE00
1C07F800
ENDCHAR
STARTCHAR 0186
ENCODING 390
SWIDTH 558 0
DWIDTH 31 0
BBX 27 41 0 0
BITMAP
00FFC000
07FFF000
0FFFFC00
1E00FE00
3C007E00
70003F00
70001F80
E0000F80
E0000FC0
E0000FC0
E00007C0
000007C0
000007E0
000007E0
000003E0
000003E0
000003E0
000003E0
000003E0
000003E0
000003E0
000003E0
000003E0
000003E0
000003E0
000003E0
000003E0
000007E0
000007E0
000007C0
F80007C0
FC0007C0
FC000FC0
FC000F80
FC001F80
FE001F00
FF003E00
FF807E00
E7FFFC00
E3FFF000
E07FC000
ENDCHAR
STARTCHAR 0187
ENCODING 391
SWIDTH 648 0
DWIDTH 36 0
BBX 31 41 0 0
BITMAP
001FF006
00FFFC0E
03FFFF1E
07F00F98
0FC00398
1F8001F0
1F0000F0
3F0000F0
3E0000E0
3E000060
7E000060
7C000000
7C000000
7C000000
FC000000
FC000000
FC000000
FC000000
F8000000
F8000000
F8000000
F8000000
F8000000
FC000000
FC000000
FC000000
FC000000
FC000000
7C000000
7C000000
7E000060
7E000060
3E0000E0
3F0000E0
1F0000E0
1F8001C0
0FC003C0
07E00F80
03FFFF00
01FFFC00
003FE000
ENDCHAR
STARTCHAR 0188
ENCODING 392
SWIDTH 648 0
DWIDTH 36 0
BBX 31 27 0 0
BITMAP
007FF806
03FFFE0E
0FFCFF9E
1FC003B8
3F0001F0
3F0000F0
7E0000E0
7C000060
7C000000
FC000000
FC000000
FC000000
F8000000
F8000000
F8000000
FC000000
FC000000
FC000000
7C000000
7E000060
7E0000E0
3F0000E0
3F8001C0
1FE007C0
0FFFFF80
03FFFE00
007FF000
ENDCHAR
STARTCHAR 0189
ENCODING 393
SWIDTH 558 0
DWIDTH 31 0
BBX 27 41 0 0
BITMAP
FFFFC000
FFFFF000
FFFFFC00
0FC07E00
0FC03E00
0FC01F00
0FC01F80
0FC00F80
0FC00FC0
0FC007C0
0FC007C0
0FC007C0
0FC007E0
0FC007E0
0FC003E0
0FC003E0
0FC003E0
0FC003E0
0FC003E0
FFFC03E0
FFFC03E0
FFFC03E0
0FC003E0
0FC003E0
0FC003E0
0FC003E0
0FC003E0
0FC007E0
0FC007E0
0FC007C0
0FC007C0
0FC007C0
0FC00FC0
0FC00F80
0FC01F80
0FC01F00
0FC03E00
0FC07E00
FFFFFC00
FFFFF000
FFFFC000
ENDCHAR
STARTCHAR 018A
ENCODING 394
SWIDTH 612 0
DWIDTH 34 0
BBX 30 41 0 0
BITMAP
0FFFF000
3FFFFE00
7FFFFF00
79F01F80
F1F007C0
F1F003E0
F1F003E0
01F001F0
01F001F0
01F001F8
01F000F8
01F000F8
01F000F8
01F000FC
01F000FC
01F000FC
01F000FC
01F0007C
01F0007C
01F0007C
01F0007C
01F0007C
01F0007C
01F0007C
01F000FC
01F000FC
01F000FC
01F000FC
01F000F8
01F000F8
01F000F8
01F001F8
01F001F0
01F001F0
01F003E0
01F003E0
01F007C0
01F01F80
1FFFFF00
1FFFFE00
1FFFF000
ENDCHAR
STARTCHAR 018B
ENCODING 395
SWIDTH 558 0
DWIDTH 31 0
BBX 27 41 0 0
BITMAP
7FFFFFE0
7FFFFFE0
7FFFFFE0
78003E00
78003E00
78003E00
70003E00
00003E00
00003E00
00003E00
00003E00
00003E00
00003E00
00003E00
00003E00
00003E00
000FFE00
01FFFE00
07FFFE00
1FE03E00
3F803E00
3F003E00
7E003E00
7C003E00
FC003E00
FC003E00
FC003E00
FC003E00
F8003E00
F8003E00
FC003E00
FC003E00
FC003E00
7C003E00
7E003E00
7E003E00
3F003E00
1FC03E00
0FFFFFE0
03FFFFE0
007FFFE0
ENDCHAR
STARTCHAR 018C
ENCODING 396
SWIDTH 594 0
DWIDTH 33 0
BBX 29 41 0 0
BITMAP
7FFFFF80
7FFFFF80
7FFFFF80
78001F80
78001F80
78001F80
70001F80
00001F80
00001F80
00001F80
00001F80
00001F80
00001F80
00001F80
03FF1F80
0FFF9F80
1FE3DF80
3F80FF80
3F007F80
7E003F80
7C001F80
7C001F80
FC001F80
FC001F80
FC001F80
FC001F80
F8001F80
F8001F80
F8001F80
FC001F80
FC001F80
FC001F80
FC001F80
7C001F80
7E003F80
7E003F80
3F007F80
1F80DF80
0FFFDFF8
07FF9FF8
01FE1FF8
ENDCHAR
STARTCHAR 018D
ENCODING 397
SWIDTH 558 0
DWIDTH 31 0
BBX 27 38 0 -11
BITMAP
00FFF000
07FFFC00
0FF1FE00
1F803F00
3F001F80
3E000FC0
7E0007C0
7C0007E0
7C0007E0
FC0003E0
FC0003E0
FC0003E0
F80003E0
F80003E0
F80003E0
FC0003E0
FC0003E0
FC0007E0
7C0007E0
7C0007C0
7E000FC0
3F000FC0
3F001F80
1FC07F00
0FFFFE00
03FFF800
007FFF00
00007F80
00000FC0
000007E0
FC0003E0
FC0003E0
FC0003E0
7E0007E0
3F801FC0
1FFFFF80
07FFFE00
00FFF000
ENDCHAR
STARTCHAR 018E
ENCODING 398
SWIDTH 558 0
DWIDTH 31 0
BBX 27 41 0 0
BITMAP
FFFFFFE0
FFFFFFE0
FFFFFFE0
F0003E00
F0003E00
E0003E00
E0003E00
00003E00
00003E00
00003E00
00003E00
00003E00
00003E00
00003E00
00003E00
00003E00
00003E00
00003E00
00003E00
01FFFE00
01FFFE00
01FFFE00
00003E00
00003E00
00003E00
00003E00
00003E00
00003E00
00003E00
00003E00
00003E00
00003E00
00003E00
00003E00
E0003E00
E0003E00
F0003E00
F0003E00
FFFFFFE0
FFFFFFE0
FFFFFFE0
ENDCHAR
STARTCHAR 018F
ENCODING 399
SWIDTH 558 0
DWIDTH 31 0
BBX 27 41 0 0
BITMAP
00FFC000
07FFF000
0FFFFC00
1E00FE00
3C003E00
70001F00
70001F80
E0000F80
E0000FC0
E00007C0
E00007C0
000007C0
000007E0
000003E0
000003E0
000003E0
000003E0
000003E0
000003E0
FFFFFFE0
FFFFFFE0
FFFFFFE0
F80003E0
F80003E0
FC0003E0
FC0003E0
FC0003E0
7C0003E0
7C0007E0
7C0007C0
7C0007C0
3E0007C0
3E000FC0
3E000F80
1F001F80
1F801F00
0FC03E00
07E0FE00
03FFFC00
01FFF000
003FC000
ENDCHAR
STARTCHAR 0190
ENCODING 400
SWIDTH 558 0
DWIDTH 31 0
BBX 27 41 0 0
BITMAP
00FFE0E0
07FFF8E0
1FFFFCE0
3F803EE0
3F001FE0
7E000FE0
7C0007E0
FC0007E0
FC0003E0
F80003E0
F80003E0
FC000000
FC000000
FC000000
7C000000
7E000000
7F000000
3F800000
1FF00000
07FFC000
007FC000
07FFC000
1FF00000
3FC00000
3F000000
7E000000
7C000000
FC000000
FC000000
FC000000
F8000060
FC000060
FC0000E0
FC0000E0
7C0001E0
7E0001C0
7F0007C0
3F801F80
1FFFFF00
07FFFC00
00FFE000
ENDCHAR
STARTCHAR 0191
ENCODING 401
SWIDTH 612 0
DWIDTH 34 0
BBX 30 41 0 0
BITMAP
0FFFFFFC
3FFFFFFC
7FFFFFFC
79F0003C
F1F0001C
F1F0001C
F1F0001C
01F00000
01F00000
01F00000
01F00000
01F00000
01F00000
01F00000
01F00000
01F00000
01F00000
01F00000
01F00000
01FFFE00
01FFFE00
01FFFE00
01F00000
01F00000
01F00000
01F00000
01F00000
01F00000
01F00000
01F00000
01F00000
01F00000
01F00000
01F00000
01F00000
01F00000
01F00000
01F00000
1FFF0000
1FFF0000
1FFF0000
ENDCHAR
STARTCHAR 0192
ENCODING 402
SWIDTH 378 0
DWIDTH 21 0
BBX 16 52 0 -11
BITMAP
001F
007F
01FF
03F8
03F0
03E0
07E0
07E0
07E0
07E0
07E0
07E0
07E0
07E0
7FFE
7FFE
07E0
07E0
07E0
07E0
07E0
07E0
07E0
07E0
07E0
07E0
07E0
07E0
07E0
07E0
07E0
07E0
07E0
07E0
07E0
07E0
07E0
07E0
07E0
07E0
07E0
07E0
07E0
07E0
07E0
07E0
07E0
07E0
0FC0
FF80
FF00
F800
ENDCHAR
STARTCHAR 0193
ENCODING 403
SWIDTH 648 0
DWIDTH 36 0
BBX 31 41 0 0
BITMAP
001FF006
00FFFC0E
03FFFF1E
07F00F98
0FC00398
1F8001F0
1F0000F0
3F0000F0
3E0000E0
3E000060
7E000060
7C000000
7C000000
7C000000
FC000000
FC000000
FC000000
FC000000
F8000000
F80FFFE0
F80FFFE0
F80FFFE0
F80003E0
FC0003E0
FC0003E0
FC0003E0
FC0003E0
FC0003E0
7C0003E0
7C0003E0
7C0003E0
7E0007E0
3E0007E0
3E0007C0
1F000FC0
1F000FC0
0F801F80
07E07F00
03FFFE00
01FFF800
003FC000
ENDCHAR
STARTCHAR 0194
ENCODING 404
SWIDTH 558 0
DWIDTH 31 0
BBX 27 52 0 -11
BITMAP
FFFCFFE0
FFFCFFE0
FFFCFFE0
0FC00E00
07C00E00
07C00E00
07C00C00
07E01C00
07E01C00
03E01C00
03E01C00
03F01800
03F03800
01F03800
01F03800
01F03000
01F87000
01F87000
00F87000
00F87000
00FC6000
00FCE000
007CE000
007CE000
007CE000
007FC000
003FC000
003FC000
003FC000
003F8000
003F8000
001F8000
001F8000
001F8000
001F8000
000FC000
000FC000
000FC000
000FC000
001FE000
001FE000
001BE000
003BF000
0039F000
0031F000
0071F000
0071F800
0061F800
0071F800
007FF000
007FF000
001F8000
ENDCHAR
STARTCHAR 0195
ENCODING 405
SWIDTH 882 0
DWIDTH 49 0
BBX 45 41 0 0
BITMAP
FFC000000000
FFC000000000
FFC000000000
0FC000000000
0FC000000000
0FC000000000
0FC000000000
0FC000000000
0FC000000000
0FC000000000
0FC000000000
0FC000000000
0FC000000000
0FC000000000
0FC3FF000FF8
0FCFFF800FF8
0FDE3FC000F8
0FF00FE000F8
0FE003F000F8
0FE003F000F8
0FC001F000F8
0FC001F000F8
0FC001F800F8
0FC001F800F8
0FC001F800F8
0FC001F800F8
0FC001F800F8
0FC001F800F8
0FC001F800F8
0FC001F800F8
0FC001F800F8
0FC001F800F8
0FC001F800F8
0FC000F800F8
0FC000F800F8
0FC000FC01F8
0FC000FC01F8
0FC0007F03F0
FFFC003FFFE0
FFFC001FFFC0
FFFC0007FE00
ENDCHAR
STARTCHAR 0196
ENCODING 406
SWIDTH 522 0
DWIDTH 29 0
BBX 25 41 0 0
BITMAP
FFC00000
FFC00000
FFC00000
0FC00000
0FC00000
0FC00000
0FC00000
0FC00000
0FC00000
0FC00000
0FC00000
0FC00000
0FC00000
0FC00000
0FC00000
0FC00000
0FC00000
0FC00000
0FC00000
0FC00000
0FC00000
0FC00000
0FC00000
0FC00000
0FC00000
0FC00000
0FC00000
0FC00000
0FC00000
0FC00000
0FC00000
0FC00000
0FC00000
07C01F80
07C01F00
07E01F00
03E03F00
03F07E00
01FFFC00
00FFF800
003FC000
ENDCHAR
STARTCHAR 0197
ENCODING 407
SWIDTH 324 0
DWIDTH 18 0
BBX 14 41 0 0
BITMAP
FFFC
FFFC
FFFC
0FC0
0FC0
0FC0
0FC0
0FC0
0FC0
0FC0
0FC0
0FC0
0FC0
0FC0
0FC0
0FC0
0FC0
0FC0
0FC0
FFFC
FFFC
FFFC
0FC0
0FC0
0FC0
0FC0
0FC0
0FC0
0FC0
0FC0
0FC0
0FC0
0FC0
0FC0
0FC0
0FC0
0FC0
0FC0
FFFC
FFFC
FFFC
ENDCHAR
STARTCHAR 0198
ENCODING 408
SWIDTH 630 0
DWIDTH 35 0
BBX 31 41 0 0
BITMAP
FFF007C0
FFF01FF0
FFF03FF8
1F8078F8
1F8070FC
1F80E07C
1F80C07C
1F81C07E
1F83807E
1F83807E
1F87007E
1F870000
1F8E0000
1F8E0000
1F9C0000
1FBC0000
1FB80000
1FF80000
1FF80000
1FFC0000
1FFC0000
1FFE0000
1FFE0000
1FFF0000
1FBF0000
1F9F8000
1F9FC000
1F8FC000
1F8FE000
1F87E000
1F87F000
1F83F800
1F81F800
1F81FC00
1F80FC00
1F80FE00
1F807F00
1F807F00
FFF1FFE0
FFF1FFE0
FFF1FFE0
ENDCHAR
STARTCHAR 0199
ENCODING 409
SWIDTH 576 0
DWIDTH 32 0
BBX 28 41 0 0
BITMAP
007C0000
01FC0000
03FC0000
07E00000
0FC00000
0FC00000
0FC00000
0FC00000
0FC00000
0FC00000
0FC00000
0FC00000
0FC00000
0FC00000
0FC0FFF0
0FC0FFF0
0FC00F00
0FC01E00
0FC01C00
0FC03800
0FC07000
0FC0E000
0FC1C000
0FC38000
0FC7C000
0FCFC000
0FDFE000
0FDBE000
0FF1F000
0FE1F000
0FC0F800
0FC0F800
0FC0FC00
0FC07C00
0FC07E00
0FC03E00
0FC03F00
0FC01F00
FFF8FFF0
FFF8FFF0
FFF8FFF0
ENDCHAR
STARTCHAR 019A
ENCODING 410
SWIDTH 324 0
DWIDTH 18 0
BBX 14 41 0 0
BITMAP
FFC0
FFC0
FFC0
0FC0
0FC0
0FC0
0FC0
0FC0
0FC0
0FC0
0FC0
0FC0
0FC0
0FC0
0FC0
0FC0
0FC0
0FC0
0FC0
FFFC
FFFC
FFFC
0FC0
0FC0
0FC0
0FC0
0FC0
0FC0
0FC0
0FC0
0FC0
0FC0
0FC0
0FC0
0FC0
0FC0
0FC0
0FC0
FFFC
FFFC
FFFC
ENDCHAR
STARTCHAR 019B
ENCODING 411
SWIDTH 612 0
DWIDTH 34 0
BBX 30 41 0 0
BITMAP
07800000
07F00000
07FC0000
007E0000
003E0000
001F0000
001F0000
07FFFE00
07FFFE00
07FFFE00
000F8000
000FC000
000FC000
000FC000
001FE000
001FE000
001FE000
001BF000
003BF000
0039F000
0031F800
0071F800
0070F800
0070F800
00E0FC00
00E0FC00
00E07C00
01C07E00
01C07E00
01C03E00
01803F00
03803F00
03801F00
03001F80
07001F80
07000F80
06000F80
0E000FC0
FFE0FFFC
FFE0FFFC
FFE0FFFC
ENDCHAR
STARTCHAR 019C
ENCODING 412
SWIDTH 1008 0
DWIDTH 56 0
BBX 52 41 0 0
BITMAP
FFFC1FFF83FFF0
FFFC1FFF83FFF0
FFFC1FFF83FFF0
0FC001F8003F00
0FC001F8003F00
0FC001F8003F00
0FC001F8003F00
0FC001F8003F00
0FC001F8003F00
0FC001F8003F00
0FC001F8003F00
0FC001F8003F00
0FC001F8003F00
0FC001F8003F00
0FC001F8003F00
0FC001F8003F00
0FC001F8003F00
0FC001F8003F00
0FC001F8003F00
0FC001F8003F00
0FC001F8003F00
0FC001F8003F00
0FC001F8003F00
0FC001F8003F00
0FC001F8003F00
0FC001F8003F00
0FC001F8003F00
0FC001F8003F00
0FC001F8003F00
0FC001F8003F00
0FC001F8003F00
0FC001F8003F00
0FC001F8003F00
0FC001F8003F00
07C001F8003F00
07E003FC007F00
07F007FE00FF00
03F80FFF01FF00
01FFFE7FFFFFF0
00FFFC3FFF3FF0
003FE00FFC3FF0
ENDCHAR
STARTCHAR 019D
ENCODING 413
SWIDTH 612 0
DWIDTH 34 0
BBX 30 52 0 -11
BITMAP
FFC01FFC
FFC01FFC
FFE01FFC
0FE001C0
0FF001C0
0FF001C0
0FF801C0
0FF801C0
0FFC01C0
0FFC01C0
0EFE01C0
0EFE01C0
0E7F01C0
0E7F01C0
0E3F81C0
0E3F81C0
0E1FC1C0
0E1FC1C0
0E0FC1C0
0E0FE1C0
0E0FE1C0
0E07F1C0
0E07F1C0
0E03F9C0
0E03F9C0
0E01FDC0
0E01FDC0
0E00FFC0
0E00FFC0
0E007FC0
0E007FC0
0E003FC0
0E003FC0
0E003FC0
0E001FC0
0E001FC0
0E000FC0
0E000FC0
0E0007C0
0E0007C0
0E0003C0
0E000000
0E000000
0E000000
0E000000
0E000000
0E000000
1C000000
3C000000
F8000000
F8000000
E0000000
ENDCHAR
STARTCHAR 019E
ENCODING 414
SWIDTH 666 0
DWIDTH 37 0
BBX 33 38 0 -11
BITMAP
FFC3FF0000
FFCFFF8000
0FDE3FC000
0FF00FE000
0FE003F000
0FE003F000
0FC001F000
0FC001F000
0FC001F800
0FC001F800
0FC001F800
0FC001F800
0FC001F800
0FC001F800
0FC001F800
0FC001F800
0FC001F800
0FC001F800
0FC001F800
0FC001F800
0FC001F800
0FC001F800
0FC001F800
0FC001F800
FFFC01F800
FFFC01F800
FFFC01F800
000001F800
000001F800
000001F800
000001F800
000001F800
000001F800
000001F800
000001F800
00001FFF80
00001FFF80
00001FFF80
ENDCHAR
STARTCHAR 019F
ENCODING 415
SWIDTH 558 0
DWIDTH 31 0
BBX 27 41 0 0
BITMAP
003FC000
01FFF000
03FFFC00
07C07E00
0F803E00
1F001F00
1E000F80
3E000F80
3C000FC0
7C0007C0
7C0007C0
7C0007C0
7C0007E0
FC0003E0
FC0003E0
FBF003E0
FFF803E0
FFFC03E0
FE1C03E0
FC0E03E0
FC0E03E0
F80707E0
F80707E0
F807FFE0
FC03FFE0
FC01FBE0
FC0003E0
FC0003E0
7C0003E0
7C0003C0
7C0007C0
7C0007C0
3E0007C0
3E000F80
1F000F80
1F001F00
0F803E00
07E07E00
03FFFC00
01FFF000
003FC000
ENDCHAR
STARTCHAR 01A0
ENCODING 416
SWIDTH 666 0
DWIDTH 37 0
BBX 33 41 0 0
BITMAP
003FC01F80
01FFF01F80
03FFFC1F80
07E07E1F00
0F803E1F00
1F001F1F00
1F001FBE00
3E000FFC00
3E000FF800
7E0007C000
7C0007C000
7C0007C000
7C0007E000
FC0007E000
FC0003E000
FC0003E000
FC0003E000
FC0003E000
F80003E000
F80003E000
F80003E000
F80003E000
F80003E000
FC0003E000
FC0003E000
FC0003E000
FC0003E000
FC0007E000
7C0007E000
7C0007C000
7C0007C000
7E0007C000
3E000FC000
3E000F8000
1F001F8000
1F001F0000
0F803E0000
07E07E0000
03FFFC0000
01FFF00000
003FC00000
ENDCHAR
STARTCHAR 01A1
ENCODING 417
SWIDTH 666 0
DWIDTH 37 0
BBX 33 27 0 0
BITMAP
00FFF01F80
07FFFC1F80
0FF1FE1F80
1F803F1F00
3F001F9F00
3E000FDF00
7E0007FE00
7C0007FC00
7C0007F000
FC0003E000
FC0003E000
FC0003E000
F80003E000
F80003E000
F80003E000
FC0003E000
FC0003E000
FC0007E000
7C0007E000
7C0007C000
7E000FC000
3E000FC000
3F001F8000
1FC07F0000
0FFFFE0000
03FFF80000
007FC00000
ENDCHAR
STARTCHAR 01A2
ENCODING 418
SWIDTH 810 0
DWIDTH 45 0
BBX 41 52 0 -11
BITMAP
003FC0003800
01FFF0007800
03FFFC007800
07E07E00F800
0F803E01F800
1F001F01F800
1F001F83F800
3E000F87F800
3E000FCFF800
7E0007FDF800
7C0007F1F800
7C0007C1F800
7C0007E1F800
FC0007E1F800
FC0003E1F800
FC0003E1F800
FC0003E1F800
FC0003E1F800
F80003E1F800
F80003E1F800
F80003E1F800
F80003E1F800
F80003E1F800
FC0003E1F800
FC0003E1F800
FC0003E1F800
FC0003E1F800
FC0007E1F800
7C0007E1F800
7C0007C1F800
7C0007C1F800
7E0007C1F800
3E000FC1F800
3E000F81F800
1F001F81F800
1F001F01F800
0F803E01F800
07E07E01F800
03FFFC01F800
01FFF001F800
003FC001F800
00000001F800
00000001F800
00000001F800
00000001F800
00000001F800
00000001F800
00000001F800
00000001F800
0000001FFF80
0000001FFF80
0000001FFF80
ENDCHAR
STARTCHAR 01A3
ENCODING 419
SWIDTH 810 0
DWIDTH 45 0
BBX 41 38 0 -11
BITMAP
00FFF0003800
07FFFC007800
0FF1FE00F800
1F803F00F800
3F001F81F800
3E000FC3F800
7E0007C7F800
7C0007E7F800
7C0007FDF800
FC0003F9F800
FC0003F1F800
FC0003E1F800
F80003E1F800
F80003E1F800
F80003E1F800
FC0003E1F800
FC0003E1F800
FC0007E1F800
7C0007E1F800
7C0007C1F800
7E000FC1F800
3F000FC1F800
3F001F81F800
1FC07F01F800
0FFFFE01F800
03FFF801F800
007FC001F800
00000001F800
00000001F800
00000001F800
00000001F800
00000001F800
00000001F800
00000001F800
00000001F800
0000001FFF80
0000001FFF80
0000001FFF80
ENDCHAR
STARTCHAR 01A4
ENCODING 420
SWIDTH 612 0
DWIDTH 34 0
BBX 30 41 0 0
BITMAP
0FFFF800
3FFFFF00
7FFFFFC0
79F00FE0
F1F003F0
F1F001F8
F1F001F8
01F000F8
01F000FC
01F000FC
01F0007C
01F0007C
01F0007C
01F0007C
01F000FC
01F000FC
01F000FC
01F000F8
01F001F8
01F001F0
01F007F0
01F01FE0
01FFFF80
01FFFE00
01FFC000
01F00000
01F00000
01F00000
01F00000
01F00000
01F00000
01F00000
01F00000
01F00000
01F00000
01F00000
01F00000
01F00000
1FFF0000
1FFF0000
1FFF0000
ENDCHAR
STARTCHAR 01A5
ENCODING 421
SWIDTH 612 0
DWIDTH 34 0
BBX 30 47 0 -11
BITMAP
00040000
01FC0000
03FC0000
07E00000
0FC00000
0FC00000
0FC00000
0FC00000
0FC00000
0FC7FF00
0FDFFFC0
0FFF3FE0
0FF807F0
0FE003F0
0FE001F8
0FC001F8
0FC000F8
0FC000FC
0FC000FC
0FC000FC
0FC0007C
0FC0007C
0FC0007C
0FC0007C
0FC000FC
0FC000FC
0FC000FC
0FC000FC
0FC000F8
0FC001F8
0FE001F8
0FF003F0
0FF807F0
0FDFFFE0
0FCFFFC0
0FC1FE00
0FC00000
0FC00000
0FC00000
0FC00000
0FC00000
0FC00000
0FC00000
0FC00000
FFFC0000
FFFC0000
FFFC0000
ENDCHAR
STARTCHAR 01A6
ENCODING 422
SWIDTH 558 0
DWIDTH 31 0
BBX 30 59 0 -11
BITMAP
FFC00000
FFC00000
FFC00000
0FC00000
0FC00000
0FC00000
0FC00000
0FFFE000
0FFFFC00
0FFFFF00
0FC03F80
0FC01FC0
0FC00FC0
0FC007E0
0FC007E0
0FC003E0
0FC003E0
0FC003E0
0FC003E0
0FC003E0
0FC003E0
0FC007E0
0FC007E0
0FC00FC0
0FC01FC0
0FC03F80
0FFFFF00
0FFFFE00
0FFFF000
0FCF8000
0FCFC000
0FCFC000
0FC7C000
0FC7E000
0FC7E000
0FC3E000
0FC3F000
0FC3F000
0FC1F000
0FC1F800
0FC1F800
0FC1F800
0FC0FC00
0FC0FC00
0FC0FC00
FFFC7C00
FFFC7E00
FFFC7E00
00003E00
00003F00
00003F00
00003F00
00001F80
00001F80
00001F80
00000FC0
0000FFFC
0000FFFC
0000FFFC
ENDCHAR
STARTCHAR 01A7
ENCODING 423
SWIDTH 558 0
DWIDTH 31 0
BBX 27 41 0 0
BITMAP
703FC000
71FFF800
73FFFE00
73C03F00
7F001F80
7E000F80
7E000FC0
7E0007C0
7C0007C0
7C0007E0
7C0007E0
000007E0
000007E0
000007E0
00000FC0
00000FC0
00001FC0
0001FF80
00FFFF80
07FFFF00
0FFFFE00
1FFFFC00
3FFFE000
7FF00000
7F000000
FE000000
FC000000
FC000000
FC000000
FC000000
F80003E0
FC0003E0
FC0003E0
7C0007E0
7C0007E0
7E000FE0
3F000FE0
1F803CE0
0FFFFCE0
03FFF0E0
007FC0E0
ENDCHAR
STARTCHAR 01A8
ENCODING 424
SWIDTH 558 0
DWIDTH 31 0
BBX 27 27 0 0
BITMAP
707FF000
78FFFE00
79F9FF00
7B801F80
7B000F80
7E000FC0
7E0007C0
7E000FC0
00000FC0
00001FC0
0001FFC0
03FFFF80
0FFFFF80
3FFFFF00
7FFFFC00
7FFFE000
FF800000
FE000000
FC000000
FC0003E0
F80003E0
FC0007E0
7C000FE0
3F001CE0
1FFFFCE0
0FFFF0E0
00FFC0E0
ENDCHAR
STARTCHAR 01A9
ENCODING 425
SWIDTH 558 0
DWIDTH 31 0
BBX 27 41 0 0
BITMAP
FFFFFFE0
FFFFFFE0
FFFFFFE0
7E0000E0
7F0000E0
3F8000E0
1F8000E0
0FC00000
07E00000
03F00000
03F80000
01FC0000
00FE0000
007F0000
003F0000
001F8000
001FC000
000FC000
0007C000
00078000
00070000
000E0000
001E0000
001C0000
00380000
00780000
00F00000
00E00000
01C00000
03C00000
03800000
07000060
0F0000E0
1E0000E0
1C0000E0
380001E0
7FFFFFE0
7FFFFFE0
FFFFFFE0
FFFFFFE0
FFFFFFE0
ENDCHAR
STARTCHAR 01AA
ENCODING 426
SWIDTH 468 0
DWIDTH 26 0
BBX 22 49 0 -8
BITMAP
1FC000
3FE000
7FF000
E0F800
E0F800
E0F800
E0FC00
E0FC00
7FFC00
7FFC00
1FFC00
00FC00
00FC00
00FC00
00FC00
00FC00
00FC00
00FC00
00FC00
00FC00
00FC00
00FC00
00FC00
00FC00
00FC00
00FC00
00FC00
00FC00
00FC00
00FC00
00FC00
00FC00
00FC00
00FC00
00FC00
00FC00
00FC00
00FC00
00FC00
00FC00
00FC00
00FC00
00FC00
00FC00
007C1C
007C1C
007FF8
003FF8
000FE0
ENDCHAR
STARTCHAR 01AB
ENCODING 427
SWIDTH 396 0
DWIDTH 22 0
BBX 18 46 0 -8
BITMAP
002000
006000
00E000
01E000
03E000
07E000
07E000
07E000
07E000
07E000
07E000
FFFF00
FFFF00
07E000
07E000
07E000
07E000
07E000
07E000
07E000
07E000
07E000
07E000
07E000
07E000
07E000
07E000
07E000
07E000
07E000
07E000
03E000
03E000
03F000
01FC00
01FFC0
007FC0
001FC0
0001C0
0001C0
000380
000380
000F80
01FF00
01FE00
01F000
ENDCHAR
STARTCHAR 01AC
ENCODING 428
SWIDTH 576 0
DWIDTH 32 0
BBX 27 41 0 0
BITMAP
0FFFFFE0
3FFFFFE0
7FFFFFE0
781F00E0
F01F00E0
F01F00E0
F01F00E0
001F0000
001F0000
001F0000
001F0000
001F0000
001F0000
001F0000
001F0000
001F0000
001F0000
001F0000
001F0000
001F0000
001F0000
001F0000
001F0000
001F0000
001F0000
001F0000
001F0000
001F0000
001F0000
001F0000
001F0000
001F0000
001F0000
001F0000
001F0000
001F0000
001F0000
001F0000
01FFF800
01FFF800
01FFF800
ENDCHAR
STARTCHAR 01AD
ENCODING 429
SWIDTH 396 0
DWIDTH 22 0
BBX 18 41 0 0
BITMAP
000FC0
007FC0
01FFC0
03F800
03F000
03E000
07E000
07E000
07E000
07E000
07E000
07E000
07E000
07E000
FFFF00
FFFF00
07E000
07E000
07E000
07E000
07E000
07E000
07E000
07E000
07E000
07E000
07E000
07E000
07E000
07E000
07E000
07E000
07E000
07E000
03E000
03E000
03F000
01FC00
00FFC0
007FC0
000FC0
ENDCHAR
STARTCHAR 01AE
ENCODING 430
SWIDTH 558 0
DWIDTH 31 0
BBX 27 52 0 -11
BITMAP
FFFFFFE0
FFFFFFE0
FFFFFFE0
F01F00E0
F01F00E0
E01F00E0
E01F00E0
001F0000
001F0000
001F0000
001F0000
001F0000
001F0000
001F0000
001F0000
001F0000
001F0000
001F0000
001F0000
001F0000
001F0000
001F0000
001F0000
001F0000
001F0000
001F0000
001F0000
001F0000
001F0000
001F0000
001F0000
001F0000
001F0000
001F0000
001F0000
001F0000
001F0000
001F0000
001F0000
001F0000
001F0000
001F0000
001F0000
001F8000
001F8000
000F8000
000F8000
000FC000
0007E000
0003FC00
0001FC00
00003C00
ENDCHAR
STARTCHAR 01AF
ENCODING 431
SWIDTH 666 0
DWIDTH 37 0
BBX 33 41 0 0
BITMAP
FFFC3FDF80
FFFC3FDF80
FFFC3FDF80
0FC0039F00
0FC0039F00
0FC003BF00
0FC003FE00
0FC003FC00
0FC003F800
0FC0038000
0FC0038000
0FC0038000
0FC0038000
0FC0038000
0FC0038000
0FC0038000
0FC0038000
0FC0038000
0FC0038000
0FC0038000
0FC0038000
0FC0038000
0FC0038000
0FC0038000
0FC0038000
0FC0038000
0FC0038000
0FC0038000
0FC0038000
0FC0038000
0FC0038000
0FC0038000
0FC0038000
0FC0038000
0FC0030000
0FC0070000
07E0070000
07F01E0000
03FFFE0000
01FFF80000
003FE00000
ENDCHAR
STARTCHAR 01B0
ENCODING 432
SWIDTH 756 0
DWIDTH 42 0
BBX 38 27 0 0
BITMAP
FFC01FF87C
FFC01FF87C
0FC001F87C
0FC001F8FC
0FC001F8F8
0FC001F9F8
0FC001FFF0
0FC001FFE0
0FC001FF80
0FC001F800
0FC001F800
0FC001F800
0FC001F800
0FC001F800
0FC001F800
0FC001F800
0FC001F800
0FC001F800
0FC001F800
0FC001F800
07C001F800
07E003F800
07F007F800
03F80DF800
01FFFDFF80
00FFF9FF80
003FC1FF80
ENDCHAR
STARTCHAR 01B1
ENCODING 433
SWIDTH 558 0
DWIDTH 31 0
BBX 27 41 0 0
BITMAP
FFE0FFE0
FFE0FFE0
FFE0FFE0
0F803E00
1F001F00
1E000F80
3E000F80
3E0007C0
7C0007C0
7C0007C0
7C0007E0
7C0007E0
FC0007E0
FC0003E0
FC0003E0
FC0003E0
FC0003E0
F80003E0
F80003E0
F80003E0
F80003E0
F80003E0
F80003E0
FC0003E0
FC0003E0
FC0003E0
FC0003E0
FC0007E0
7C0007E0
7C0007C0
7C0007C0
7E0007C0
3E000FC0
3E000F80
1F001F80
1F001F00
0F803E00
07E07E00
03FFFC00
01FFF000
003F8000
ENDCHAR
STARTCHAR 01B2
ENCODING 434
SWIDTH 594 0
DWIDTH 33 0
BBX 29 41 0 0
BITMAP
FFFC1FF8
FFFC1FF8
FFFC1FF8
0FC001F8
0FC001F8
0FC001F8
0FC001F8
0FC001F8
0FC001F8
0FC001F8
0FC001F8
0FC001F8
0FC001F8
0FC001F0
0FC001F0
0FC001F0
0FC001F0
0FC001F0
0FC003F0
0FC003F0
0FC003F0
0FC003F0
0FC003E0
0FC003E0
0FC003E0
0FC007E0
0FC007E0
0FC007C0
0FC007C0
0FC007C0
0FC00F80
0FC00F80
0FC00F00
0FC01F00
07C01E00
07C03E00
07E07C00
03F0F800
03FFF000
01FFE000
007F0000
ENDCHAR
STARTCHAR 01B3
ENCODING 435
SWIDTH 594 0
DWIDTH 33 0
BBX 29 41 0 0
BITMAP
FFFC07C0
FFFC0FE0
FFFC1FF0
0FC01DF8
07C019F8
07C039F8
07E039F8
03E03000
03E03000
03F03000
01F07000
01F06000
01F06000
01F86000
00F86000
00F8E000
00FCC000
007CC000
007CC000
007CC000
003F8000
003F8000
003F8000
001F8000
001F0000
001F0000
001F0000
001F0000
001F0000
001F0000
001F0000
001F0000
001F0000
001F0000
001F0000
001F0000
001F0000
001F0000
01FFF800
01FFF800
01FFF800
ENDCHAR
STARTCHAR 01B4
ENCODING 436
SWIDTH 594 0
DWIDTH 33 0
BBX 29 44 0 -11
BITMAP
00000018
00000078
000000F8
000001C0
00000380
00000300
FFFC0700
FFFC0700
0FC00E00
0FC00E00
07C00E00
07E00C00
07E01C00
03E01C00
03F01800
03F03800
01F03800
01F83000
01F83000
00F87000
00FC7000
00FC6000
00FCE000
007EE000
007EC000
007EC000
003FC000
003F8000
003F8000
001F8000
001F0000
001F0000
000F0000
000F0000
000E0000
000E0000
001E0000
001C0000
003C0000
00380000
00F00000
07E00000
07C00000
07000000
ENDCHAR
STARTCHAR 01B5
ENCODING 437
SWIDTH 468 0
DWIDTH 26 0
BBX 22 41 0 0
BITMAP
FFFFFC
FFFFFC
FFFFFC
F000FC
F000F8
E001F8
E001F0
0003F0
0003E0
0007E0
0007C0
000FC0
000F80
001F80
001F00
003F00
003E00
007E00
007E00
0FFFC0
0FFFC0
0FFFC0
01F800
01F000
03F000
03E000
07E000
07C000
07C000
0F8000
0F8000
1F8000
1F0000
3F0000
3E001C
7E001C
7C003C
FC003C
FFFFFC
FFFFFC
FFFFFC
ENDCHAR
STARTCHAR 01B6
ENCODING 438
SWIDTH 468 0
DWIDTH 26 0
BBX 22 27 0 0
BITMAP
FFFFFC
FFFFFC
F001FC
F003F8
E003F0
E007F0
000FE0
001FC0
001FC0
003F80
007F00
007F00
0FFFC0
0FFFC0
0FFFC0
03F800
07F000
07F000
0FE000
1FC000
1F801C
3F801C
7F003C
7E003C
FFFFFC
FFFFFC
FFFFFC
ENDCHAR
STARTCHAR 01B7
ENCODING 439
SWIDTH 558 0
DWIDTH 31 0
BBX 27 52 0 -11
BITMAP
FFFFFFE0
FFFFFFE0
FFFFFFE0
FFFFFFE0
FFFFFFC0
F0000780
F0000F00
E0001E00
E0003C00
E0007800
0000F000
0001E000
0003C000
00078000
000F0000
001E0000
003C0000
007FE000
00FFF800
01F0FC00
03C03F00
03801F00
00000F80
00000F80
000007C0
000007C0
000007E0
000007E0
000007E0
000003E0
000003E0
000003E0
000003E0
000003E0
000003E0
000003E0
000003E0
000003E0
000003E0
000003E0
000007E0
F80007E0
FC0007C0
FC0007C0
FC000FC0
7C000F80
7E001F80
3F003F00
1FC07E00
0FFFFC00
03FFF000
007FC000
ENDCHAR
STARTCHAR 01B8
ENCODING 440
SWIDTH 558 0
DWIDTH 31 0
BBX 27 52 0 -11
BITMAP
FFFFFFE0
FFFFFFE0
FFFFFFE0
7FFFFFE0
3FFFFFE0
1C0001E0
0E0000E0
070000E0
038000E0
01C00060
00E00000
00700000
00380000
001C0000
000E0000
00070000
00038000
00FFC000
03FFE000
07E0F000
0F803800
1F001800
3F001000
3E000000
7E000000
7C000000
7C000000
7C000000
FC000000
FC000000
FC000000
FC000000
F8000000
F8000000
F8000000
F8000000
FC000000
FC000000
FC000000
FC000000
7C000000
7C0003E0
7C0003E0
7E0003E0
3E0007E0
3F0007E0
1F000FC0
1F801FC0
0FE03F80
07FFFF00
01FFFC00
003FE000
ENDCHAR
STARTCHAR 01B9
ENCODING 441
SWIDTH 558 0
DWIDTH 31 0
BBX 27 38 0 -11
BITMAP
FFFFFFE0
FFFFFFE0
FFFFFFE0
3FFFFFE0
1FFFFFE0
0F8001E0
03C000E0
01F000E0
00F800E0
003E0000
01FF8000
07FFC000
0FF1F000
1F803800
3F001800
3F000000
7E000000
7C000000
7C000000
FC000000
FC000000
FC000000
FC000000
F8000000
F8000000
FC000000
FC000000
FC0003E0
FC0003E0
7C0003E0
7E0007E0
7E0007E0
3F000FC0
1F801FC0
0FC03F80
07FFFF00
03FFFC00
007FE000
ENDCHAR
STARTCHAR 01BA
ENCODING 442
SWIDTH 558 0
DWIDTH 31 0
BBX 27 38 0 -11
BITMAP
FFFFFFE0
FFFFFFE0
FFFFFFE0
FFFFFFC0
FFFFFF00
F0001E00
F0003800
E000F000
E003C000
00078000
001FF000
007FFE00
00F03F00
03E00F80
018007C0
000007E0
000003E0
000003E0
000003E0
000003E0
000003E0
000007E0
00000FC0
00001FC0
003FFF80
07FFFE00
1FFFF000
7F800000
7E000000
FC000000
FC000000
F80003E0
FC0003E0
7C0007E0
7F001FC0
3FFFFF80
0FFFFE00
00FFF000
ENDCHAR
STARTCHAR 01BB
ENCODING 443
SWIDTH 576 0
DWIDTH 32 0
BBX 27 41 0 0
BITMAP
E07FF000
E1FFFE00
E3FFFF80
E7801FC0
FF000FC0
FE0007E0
FC0003E0
FC0003E0
FC0003E0
FC0003E0
F80003E0
000003E0
000003E0
000007C0
000007C0
00000780
00000F80
00001F00
00003E00
00007C00
0000F800
0000F000
0001E000
0003C000
01FFF800
01FFF800
01FFF800
003C0000
00780000
00F00000
01E00000
03C00060
078000E0
0F0000E0
0E0000E0
1C0001E0
3FFFFFE0
7FFFFFE0
FFFFFFE0
FFFFFFE0
FFFFFFE0
ENDCHAR
STARTCHAR 01BC
ENCODING 444
SWIDTH 558 0
DWIDTH 31 0
BBX 27 41 0 0
BITMAP
FFFFFFE0
FFFFFFE0
FFFFFFE0
F80000E0
F80000E0
F80000E0
F80000E0
F8000000
F8000000
F8000000
F8000000
F8000000
F8000000
F8000000
FFFFF000
FFFFFC00
0001FE00
00003F00
00001F80
00000FC0
000007C0
000007E0
000007E0
000003E0
000003E0
000003E0
000003E0
000003E0
000003E0
000003E0
F80003E0
FC0007E0
FC0007E0
FC0007C0
7C000FC0
7E000FC0
3F001F80
1F807F00
0FFFFE00
07FFF800
00FFC000
ENDCHAR
STARTCHAR 01BD
ENCODING 445
SWIDTH 558 0
DWIDTH 31 0
BBX 27 27 0 0
BITMAP
FFFFFFE0
FFFFFFE0
F80001E0
F80000E0
F80000E0
F80000E0
F8000000
F8000000
F8000000
FFFFC000
FFFFFC00
FFFFFF00
00003F80
00000FC0
000007E0
000007E0
000003E0
000003E0
000003E0
FC0003E0
FC0007E0
FC0007E0
7E000FC0
3F803F80
1FFFFF00
0FFFFE00
00FFE000
ENDCHAR
STARTCHAR 01BE
ENCODING 446
SWIDTH 558 0
DWIDTH 31 0
BBX 27 38 0 0
BITMAP
00200000
00600000
00E00000
01E00000
03E00000
07E00000
07E00000
07E00000
07E00000
07E00000
07E00000
FFFF0000
FFFF0000
07E00000
07E00000
07E00000
07E00000
07E00000
07E00000
03E00000
03F00000
03FF0000
03FFFC00
01FFFF00
00FFFFC0
007FFFC0
000FFFE0
00001FE0
000007E0
000003E0
FC0003E0
FC0003E0
FC0003E0
FE0007C0
F7801FC0
E3FFFF80
E1FFFE00
E07FF000
ENDCHAR
STARTCHAR 01BF
ENCODING 447
SWIDTH 612 0
DWIDTH 34 0
BBX 30 38 0 -11
BITMAP
FFC0FFC0
FFC3FFF0
0FC7CFF8
0FCE01F8
0FDC00FC
0FF000FC
0FF000FC
0FE0007C
0FE0007C
0FC0007C
0FC000FC
0FC000FC
0FC000FC
0FC000FC
0FC000F8
0FC000F8
0FC001F8
0FC001F0
0FC001F0
0FC003E0
0FC007E0
0FC007C0
0FC00F80
0FC01F00
0FC07E00
0FC1FC00
0FCFF000
0FFFC000
0FFF0000
0FE00000
0FC00000
0FC00000
0FC00000
0FC00000
0FC00000
FFFC0000
FFFC0000
FFFC0000
ENDCHAR
STARTCHAR 01C0
ENCODING 448
SWIDTH 126 0
DWIDTH 7 0
BBX 3 41 0 0
BITMAP
E0
E0
E0
E0
E0
E0
E0
E0
E0
E0
E0
E0
E0
E0
E0
E0
E0
E0
E0
E0
E0
E0
E0
E0
E0
E0
E0
E0
E0
E0
E0
E0
E0
E0
E0
E0
E0
E0
E0
E0
E0
ENDCHAR
STARTCHAR 01C1
ENCODING 449
SWIDTH 216 0
DWIDTH 12 0
BBX 8 41 0 0
BITMAP
E7
E7
E7
E7
E7
E7
E7
E7
E7
E7
E7
E7
E7
E7
E7
E7
E7
E7
E7
E7
E7
E7
E7
E7
E7
E7
E7
E7
E7
E7
E7
E7
E7
E7
E7
E7
E7
E7
E7
E7
E7
ENDCHAR
STARTCHAR 01C2
ENCODING 450
SWIDTH 270 0
DWIDTH 15 0
BBX 11 41 0 0
BITMAP
0E00
0E00
0E00
0E00
0E00
0E00
0E00
0E00
0E00
0E00
0E00
0E00
0E00
0E00
0E00
0E00
FFE0
FFE0
FFE0
0E00
0E00
0E00
FFE0
FFE0
FFE0
0E00
0E00
0E00
0E00
0E00
0E00
0E00
0E00
0E00
0E00
0E00
0E00
0E00
0E00
0E00
0E00
ENDCHAR
STARTCHAR 01C3
ENCODING 451
SWIDTH 180 0
DWIDTH 10 0
BBX 5 41 0 0
BITMAP
70
70
70
70
70
70
70
70
70
70
70
70
70
70
70
70
70
70
70
70
70
70
70
70
70
70
70
70
70
70
70
00
00
00
00
00
F8
F8
F8
F8
78
ENDCHAR
STARTCHAR 01C4
ENCODING 452
SWIDTH 1008 0
DWIDTH 56 0
BBX 52 49 0 0
BITMAP
00000000300300
000000003C0780
000000007E1F80
000000001FBE00
0000000007F800
0000000001E000
00000000000000
00000000000000
FFFFC003FFFFF0
FFFFF003FFFFF0
FFFFFC03FFFFF0
0FC07E03C003F0
0FC03E03C003E0
0FC01F038007E0
0FC01F838007C0
0FC00F80000FC0
0FC00FC0000F80
0FC007C0001F80
0FC007C0001F00
0FC007C0003F00
0FC007E0003E00
0FC007E0007E00
0FC003E0007C00
0FC003E000FC00
0FC003E000FC00
0FC003E000F800
0FC003E001F800
0FC003E001F000
0FC003E003F000
0FC003E003E000
0FC003E007E000
0FC003E007C000
0FC003E00FC000
0FC003E00F8000
0FC003E01F8000
0FC007E01F0000
0FC007E03F0000
0FC007C03F0000
0FC007C03E0000
0FC007C07E0000
0FC00FC07C0000
0FC00F80FC0000
0FC01F80F80070
0FC01F01F80070
0FC03E01F000F0
0FC07E03F000F0
FFFFFC03FFFFF0
FFFFF003FFFFF0
FFFFC003FFFFF0
ENDCHAR
STARTCHAR 01C5
ENCODING 453
SWIDTH 1026 0
DWIDTH 57 0
BBX 53 41 0 0
BITMAP
FFFFC000000000
FFFFF000000000
FFFFFC00000000
0FC07E00180180
0FC03E001E03C0
0FC01F003F0FC0
0FC01F800FDF00
0FC00F8003FC00
0FC00FC000F000
0FC007C0000000
0FC007C0000000
0FC007C0000000
0FC007E0000000
0FC007E0000000
0FC003E1FFFFF8
0FC003E1FFFFF8
0FC003E1E003F8
0FC003E1E007F0
0FC003E1C007E0
0FC003E1C00FE0
0FC003E0001FC0
0FC003E0001F80
0FC003E0003F80
0FC003E0007F00
0FC003E000FE00
0FC003E000FE00
0FC003E001FC00
0FC007E003F800
0FC007E003F800
0FC007C007F000
0FC007C00FE000
0FC007C00FE000
0FC00FC01FC000
0FC00F803F8000
0FC01F803F0038
0FC01F007F0038
0FC03E00FE0078
0FC07E00FC0078
FFFFFC01FFFFF8
FFFFF001FFFFF8
FFFFC001FFFFF8
ENDCHAR
STARTCHAR 01C6
ENCODING 454
SWIDTH 1008 0
DWIDTH 56 0
BBX 52 41 0 0
BITMAP
0001FF80000000
0001FF80000000
0001FF80000000
00001F80300300
00001F803C0780
00001F807E1F80
00001F801FBE00
00001F8007F800
00001F8001E000
00001F80000000
00001F80000000
00001F80000000
00001F80000000
00001F80000000
03FF1F83FFFFF0
0FFF9F83FFFFF0
1FE3DF83C007F0
3F80FF83C00FE0
3F007F83800FC0
7E003F83801FC0
7C001F80003F80
7C001F80003F00
FC001F80007F00
FC001F8000FE00
FC001F8001FC00
FC001F8001FC00
F8001F8003F800
F8001F8007F000
F8001F8007F000
FC001F800FE000
FC001F801FC000
FC001F801FC000
FC001F803F8000
7C001F807F0000
7E003F807E0070
7E003F80FE0070
3F007F81FC00F0
1F80DF81F800F0
0FFFDFFBFFFFF0
07FF9FFBFFFFF0
01FE1FFBFFFFF0
ENDCHAR
STARTCHAR 01C7
ENCODING 455
SWIDTH 1116 0
DWIDTH 62 0
BBX 57 41 0 0
BITMAP
FFFC0000000FFF80
FFFC0000000FFF80
FFFC0000000FFF80
0FC000000000F800
0FC000000000F800
0FC000000000F800
0FC000000000F800
0FC000000000F800
0FC000000000F800
0FC000000000F800
0FC000000000F800
0FC000000000F800
0FC000000000F800
0FC000000000F800
0FC000000000F800
0FC000000000F800
0FC000000000F800
0FC000000000F800
0FC000000000F800
0FC000000000F800
0FC000000000F800
0FC000000000F800
0FC000000000F800
0FC000000000F800
0FC000000000F800
0FC000000000F800
0FC000000000F800
0FC000000000F800
0FC000000000F800
0FC000000000F800
0FC00003E000F800
0FC00003F000F800
0FC00003F000F800
0FC00003F001F800
0FC000E1F001F800
0FC000E1F801F000
0FC000E1F803F000
0FC001E0FC07E000
FFFFFFE07FFFC000
FFFFFFE01FFF8000
FFFFFFE007FC0000
ENDCHAR
STARTCHAR 01C8
ENCODING 456
SWIDTH 756 0
DWIDTH 42 0
BBX 38 52 0 -11
BITMAP
FFFC0001F0
FFFC0003F8
FFFC0003FC
0FC00003FC
0FC00003FC
0FC00003FC
0FC00003F8
0FC00001F0
0FC0000000
0FC0000000
0FC0000000
0FC0000000
0FC0000000
0FC0000000
0FC0001FF8
0FC0001FF8
0FC00001F8
0FC00001F8
0FC00001F8
0FC00001F8
0FC00001F8
0FC00001F8
0FC00001F8
0FC00001F8
0FC00001F8
0FC00001F8
0FC00001F8
0FC00001F8
0FC00001F8
0FC00001F8
0FC00001F8
0FC00001F8
0FC00001F8
0FC00001F8
0FC000E1F8
0FC000E1F8
0FC000E1F8
0FC001E1F8
FFFFFFE1F8
FFFFFFE1F8
FFFFFFE1F8
00000001F8
00000001F8
00000001F8
00000001F8
00000001F0
00000001F0
00000003F0
00000007E0
0000003FC0
0000003F80
0000003C00
ENDCHAR
STARTCHAR 01C9
ENCODING 457
SWIDTH 522 0
DWIDTH 29 0
BBX 25 52 0 -11
BITMAP
FFC03E00
FFC07F00
FFC07F80
0FC07F80
0FC07F80
0FC07F80
0FC07F00
0FC03E00
0FC00000
0FC00000
0FC00000
0FC00000
0FC00000
0FC00000
0FC3FF00
0FC3FF00
0FC03F00
0FC03F00
0FC03F00
0FC03F00
0FC03F00
0FC03F00
0FC03F00
0FC03F00
0FC03F00
0FC03F00
0FC03F00
0FC03F00
0FC03F00
0FC03F00
0FC03F00
0FC03F00
0FC03F00
0FC03F00
0FC03F00
0FC03F00
0FC03F00
0FC03F00
FFFC3F00
FFFC3F00
FFFC3F00
00003F00
00003F00
00003F00
00003F00
00003E00
00003E00
00007E00
0000FC00
0007F800
0007F000
00078000
ENDCHAR
STARTCHAR 01CA
ENCODING 458
SWIDTH 1116 0
DWIDTH 62 0
BBX 57 41 0 0
BITMAP
FFC01FFC000FFF80
FFC01FFC000FFF80
FFE01FFC000FFF80
0FE001C00000F800
0FF001C00000F800
0FF001C00000F800
0FF801C00000F800
0FF801C00000F800
0FFC01C00000F800
0FFC01C00000F800
0EFE01C00000F800
0EFE01C00000F800
0E7F01C00000F800
0E7F01C00000F800
0E3F81C00000F800
0E3F81C00000F800
0E1FC1C00000F800
0E1FC1C00000F800
0E0FC1C00000F800
0E0FE1C00000F800
0E0FE1C00000F800
0E07F1C00000F800
0E07F1C00000F800
0E03F9C00000F800
0E03F9C00000F800
0E01FDC00000F800
0E01FDC00000F800
0E00FFC00000F800
0E00FFC00000F800
0E007FC00000F800
0E007FC3E000F800
0E003FC3F000F800
0E003FC3F000F800
0E003FC3F001F800
0E001FC1F001F800
0E001FC1F801F000
0E000FC1F803F000
0E000FC0FC07E000
FFE007C07FFFC000
FFE007C01FFF8000
FFE003C007FC0000
ENDCHAR
STARTCHAR 01CB
ENCODING 459
SWIDTH 810 0
DWIDTH 45 0
BBX 41 52 0 -11
BITMAP
FFC01FFC3E00
FFC01FFC7F00
FFE01FFC7F80
0FE001C07F80
0FF001C07F80
0FF001C07F80
0FF801C07F00
0FF801C03E00
0FFC01C00000
0FFC01C00000
0EFE01C00000
0EFE01C00000
0E7F01C00000
0E7F01C00000
0E3F81C3FF00
0E3F81C3FF00
0E1FC1C03F00
0E1FC1C03F00
0E0FC1C03F00
0E0FE1C03F00
0E0FE1C03F00
0E07F1C03F00
0E07F1C03F00
0E03F9C03F00
0E03F9C03F00
0E01FDC03F00
0E01FDC03F00
0E00FFC03F00
0E00FFC03F00
0E007FC03F00
0E007FC03F00
0E003FC03F00
0E003FC03F00
0E003FC03F00
0E001FC03F00
0E001FC03F00
0E000FC03F00
0E000FC03F00
FFE007C03F00
FFE007C03F00
FFE003C03F00
000000003F00
000000003F00
000000003F00
000000003F00
000000003E00
000000003E00
000000007E00
00000000FC00
00000007F800
00000007F000
000000078000
ENDCHAR
STARTCHAR 01CC
ENCODING 460
SWIDTH 864 0
DWIDTH 48 0
BBX 44 52 0 -11
BITMAP
0000000007C0
000000000FE0
000000000FF0
000000000FF0
000000000FF0
000000000FF0
000000000FE0
0000000007C0
000000000000
000000000000
000000000000
000000000000
000000000000
000000000000
FFC3FF007FE0
FFCFFF807FE0
0FDE3FC007E0
0FF00FE007E0
0FE003F007E0
0FE003F007E0
0FC001F007E0
0FC001F007E0
0FC001F807E0
0FC001F807E0
0FC001F807E0
0FC001F807E0
0FC001F807E0
0FC001F807E0
0FC001F807E0
0FC001F807E0
0FC001F807E0
0FC001F807E0
0FC001F807E0
0FC001F807E0
0FC001F807E0
0FC001F807E0
0FC001F807E0
0FC001F807E0
FFFC1FFF87E0
FFFC1FFF87E0
FFFC1FFF87E0
0000000007E0
0000000007E0
0000000007E0
0000000007E0
0000000007C0
0000000007C0
000000000FC0
000000001F80
00000000FF00
00000000FE00
00000000F000
ENDCHAR
STARTCHAR 01CD
ENCODING 461
SWIDTH 612 0
DWIDTH 34 0
BBX 30 49 0 0
BITMAP
00C00C00
00F01E00
01F87E00
007EF800
001FE000
00078000
00000000
00000000
00038000
00078000
00078000
00078000
0007C000
000FC000
000FC000
000FC000
000FE000
001FE000
001FE000
001BE000
001BF000
003BF000
0039F000
0031F000
0031F800
0071F800
0070F800
0070F800
0060FC00
00E0FC00
00E07C00
00E07C00
00C07E00
01C07E00
01C07E00
01C03E00
01803F00
03FFFF00
03FFFF00
03FFFF00
03001F80
07001F80
07000F80
07000F80
06000FC0
0E000FC0
FFE0FFFC
FFE0FFFC
FFE0FFFC
ENDCHAR
STARTCHAR 01CE
ENCODING 462
SWIDTH 558 0
DWIDTH 31 0
BBX 27 38 0 0
BITMAP
06006000
0780F000
0FC3F000
03F7C000
00FF0000
003C0000
00000000
00000000
00000000
00000000
00000000
03FFE000
0FFFFC00
1FE3FE00
3F003F00
3E001F00
3E001F80
7E001F80
00001F80
00001F80
00001F80
00001F80
00007F80
01FFFF80
0FFFFF80
3FFE1F80
7F001F80
7E001F80
FC001F80
FC001F80
FC001F80
F8001F80
FC003F80
FC007F80
7F00FF80
3FFFFBE0
1FFFF1E0
01FF80E0
ENDCHAR
STARTCHAR 01CF
ENCODING 463
SWIDTH 324 0
DWIDTH 18 0
BBX 17 49 0 0
BITMAP
300200
780F00
FE1F80
3F7E00
0FF800
03E000
008000
000000
7FFE00
7FFE00
7FFE00
07E000
07E000
07E000
07E000
07E000
07E000
07E000
07E000
07E000
07E000
07E000
07E000
07E000
07E000
07E000
07E000
07E000
07E000
07E000
07E000
07E000
07E000
07E000
07E000
07E000
07E000
07E000
07E000
07E000
07E000
07E000
07E000
07E000
07E000
07E000
7FFE00
7FFE00
7FFE00
ENDCHAR
STARTCHAR 01D0
ENCODING 464
SWIDTH 324 0
DWIDTH 18 0
BBX 17 38 0 0
BITMAP
300200
780F00
FE1F80
3F7E00
0FF800
03E000
008000
000000
000000
000000
000000
7FE000
7FE000
07E000
07E000
07E000
07E000
07E000
07E000
07E000
07E000
07E000
07E000
07E000
07E000
07E000
07E000
07E000
07E000
07E000
07E000
07E000
07E000
07E000
07E000
7FFE00
7FFE00
7FFE00
ENDCHAR
STARTCHAR 01D1
ENCODING 465
SWIDTH 558 0
DWIDTH 31 0
BBX 27 49 0 0
BITMAP
03003000
03C07800
07E1F800
01FBE000
007F8000
001E0000
00000000
00000000
003FC000
01FFF000
03FFFC00
07E07E00
0F803E00
1F001F00
1F001F80
3E000F80
3E000FC0
7E0007C0
7C0007C0
7C0007C0
7C0007E0
FC0007E0
FC0003E0
FC0003E0
FC0003E0
FC0003E0
F80003E0
F80003E0
F80003E0
F80003E0
F80003E0
FC0003E0
FC0003E0
FC0003E0
FC0003E0
FC0007E0
7C0007E0
7C0007C0
7C0007C0
7E0007C0
3E000FC0
3E000F80
1F001F80
1F001F00
0F803E00
07E07E00
03FFFC00
01FFF000
003FC000
ENDCHAR
STARTCHAR 01D2
ENCODING 466
SWIDTH 558 0
DWIDTH 31 0
BBX 27 38 0 0
BITMAP
03003000
03C07800
07E1F800
01FBE000
007F8000
001E0000
00000000
00000000
00000000
00000000
00000000
00FFF000
07FFFC00
0FF1FE00
1F803F00
3F001F80
3E000FC0
7E0007C0
7C0007E0
7C0007E0
FC0003E0
FC0003E0
FC0003E0
F80003E0
F80003E0
F80003E0
FC0003E0
FC0003E0
FC0007E0
7C0007E0
7C0007C0
7E000FC0
3E000FC0
3F001F80
1FC07F00
0FFFFE00
03FFF800
007FC000
ENDCHAR
STARTCHAR 01D3
ENCODING 467
SWIDTH 594 0
DWIDTH 33 0
BBX 29 49 0 0
BITMAP
00C00C00
00F01E00
01F87E00
007EF800
001FE000
00078000
00000000
00000000
FFFC3FF8
FFFC3FF8
FFFC3FF8
0FC00380
0FC00380
0FC00380
0FC00380
0FC00380
0FC00380
0FC00380
0FC00380
0FC00380
0FC00380
0FC00380
0FC00380
0FC00380
0FC00380
0FC00380
0FC00380
0FC00380
0FC00380
0FC00380
0FC00380
0FC00380
0FC00380
0FC00380
0FC00380
0FC00380
0FC00380
0FC00380
0FC00380
0FC00380
0FC00380
0FC00380
0FC00300
0FC00700
07E00700
07F01E00
03FFFE00
01FFF800
003FE000
ENDCHAR
STARTCHAR 01D4
ENCODING 468
SWIDTH 666 0
DWIDTH 37 0
BBX 33 38 0 0
BITMAP
0060060000
00780F0000
00FC3F0000
003F7C0000
000FF00000
0003C00000
0000000000
0000000000
0000000000
0000000000
0000000000
FFC01FF800
FFC01FF800
0FC001F800
0FC001F800
0FC001F800
0FC001F800
0FC001F800
0FC001F800
0FC001F800
0FC001F800
0FC001F800
0FC001F800
0FC001F800
0FC001F800
0FC001F800
0FC001F800
0FC001F800
0FC001F800
0FC001F800
0FC001F800
07C001F800
07E003F800
07F007F800
03F80DF800
01FFFDFF80
00FFF9FF80
003FC1FF80
ENDCHAR
STARTCHAR 01D5
ENCODING 469
SWIDTH 594 0
DWIDTH 33 0
BBX 29 50 0 0
BITMAP
0FFFFFC0
0FFFFFC0
00000000
00000000
07C01F00
07C01F00
07C01F00
03C01F00
00000000
FFFC3FF8
FFFC3FF8
FFFC3FF8
0FC00380
0FC00380
0FC00380
0FC00380
0FC00380
0FC00380
0FC00380
0FC00380
0FC00380
0FC00380
0FC00380
0FC00380
0FC00380
0FC00380
0FC00380
0FC00380
0FC00380
0FC00380
0FC00380
0FC00380
0FC00380
0FC00380
0FC00380
0FC00380
0FC00380
0FC00380
0FC00380
0FC00380
0FC00380
0FC00380
0FC00380
0FC00300
0FC00700
07E00700
07F01E00
03FFFE00
01FFF800
003FE000
ENDCHAR
STARTCHAR 01D6
ENCODING 470
SWIDTH 666 0
DWIDTH 37 0
BBX 33 42 0 0
BITMAP
07FFFFE000
07FFFFE000
07FFFFE000
0000000000
0000000000
00E0038000
01F007C000
01F007C000
01F007C000
01F007C000
0060010000
0000000000
0000000000
0000000000
0000000000
FFC01FF800
FFC01FF800
0FC001F800
0FC001F800
0FC001F800
0FC001F800
0FC001F800
0FC001F800
0FC001F800
0FC001F800
0FC001F800
0FC001F800
0FC001F800
0FC001F800
0FC001F800
0FC001F800
0FC001F800
0FC001F800
0FC001F800
0FC001F800
07C001F800
07E003F800
07F007F800
03F80DF800
01FFFDFF80
00FFF9FF80
003FC1FF80
ENDCHAR
STARTCHAR 01D7
ENCODING 471
SWIDTH 594 0
DWIDTH 33 0
BBX 29 50 0 0
BITMAP
0001FC00
0001F000
0003E000
00078000
07CF1F00
07C01F00
07C01F00
03C01F00
00000000
FFFC3FF8
FFFC3FF8
FFFC3FF8
0FC00380
0FC00380
0FC00380
0FC00380
0FC00380
0FC00380
0FC00380
0FC00380
0FC00380
0FC00380
0FC00380
0FC00380
0FC00380
0FC00380
0FC00380
0FC00380
0FC00380
0FC00380
0FC00380
0FC00380
0FC00380
0FC00380
0FC00380
0FC00380
0FC00380
0FC00380
0FC00380
0FC00380
0FC00380
0FC00380
0FC00380
0FC00300
0FC00700
07E00700
07F01E00
03FFFE00
01FFF800
003FE000
ENDCHAR
STARTCHAR 01D8
ENCODING 472
SWIDTH 666 0
DWIDTH 37 0
BBX 33 44 0 0
BITMAP
00003F0000
00007E0000
0000FC0000
0000F00000
0001E00000
0001C00000
0003800000
00E0038000
01F007C000
01F007C000
01F007C000
01F007C000
0060010000
0000000000
0000000000
0000000000
0000000000
FFC01FF800
FFC01FF800
0FC001F800
0FC001F800
0FC001F800
0FC001F800
0FC001F800
0FC001F800
0FC001F800
0FC001F800
0FC001F800
0FC001F800
0FC001F800
0FC001F800
0FC001F800
0FC001F800
0FC001F800
0FC001F800
0FC001F800
0FC001F800
07C001F800
07E003F800
07F007F800
03F80DF800
01FFFDFF80
00FFF9FF80
003FC1FF80
ENDCHAR
STARTCHAR 01D9
ENCODING 473
SWIDTH 594 0
DWIDTH 33 0
BBX 29 50 0 0
BITMAP
00E00C00
01F83E00
007CFC00
001FE000
07C39F00
07C01F00
07C01F00
03C01F00
00000000
FFFC3FF8
FFFC3FF8
FFFC3FF8
0FC00380
0FC00380
0FC00380
0FC00380
0FC00380
0FC00380
0FC00380
0FC00380
0FC00380
0FC00380
0FC00380
0FC00380
0FC00380
0FC00380
0FC00380
0FC00380
0FC00380
0FC00380
0FC00380
0FC00380
0FC00380
0FC00380
0FC00380
0FC00380
0FC00380
0FC00380
0FC00380
0FC00380
0FC00380
0FC00380
0FC00380
0FC00300
0FC00700
07E00700
07F01E00
03FFFE00
01FFF800
003FE000
ENDCHAR
STARTCHAR 01DA
ENCODING 474
SWIDTH 666 0
DWIDTH 37 0
BBX 33 44 0 0
BITMAP
0060060000
00780F0000
00FC3F0000
003F7C0000
000FF00000
0003C00000
0000000000
00E0038000
01F007C000
01F007C000
01F007C000
01F007C000
0060010000
0000000000
0000000000
0000000000
0000000000
FFC01FF800
FFC01FF800
0FC001F800
0FC001F800
0FC001F800
0FC001F800
0FC001F800
0FC001F800
0FC001F800
0FC001F800
0FC001F800
0FC001F800
0FC001F800
0FC001F800
0FC001F800
0FC001F800
0FC001F800
0FC001F800
0FC001F800
0FC001F800
07C001F800
07E003F800
07F007F800
03F80DF800
01FFFDFF80
00FFF9FF80
003FC1FF80
ENDCHAR
STARTCHAR 01DB
ENCODING 475
SWIDTH 594 0
DWIDTH 33 0
BBX 29 50 0 0
BITMAP
00FE0000
003E0000
001F0000
00078000
07C39F00
07C01F00
07C01F00
03C01F00
00000000
FFFC3FF8
FFFC3FF8
FFFC3FF8
0FC00380
0FC00380
0FC00380
0FC00380
0FC00380
0FC00380
0FC00380
0FC00380
0FC00380
0FC00380
0FC00380
0FC00380
0FC00380
0FC00380
0FC00380
0FC00380
0FC00380
0FC00380
0FC00380
0FC00380
0FC00380
0FC00380
0FC00380
0FC00380
0FC00380
0FC00380
0FC00380
0FC00380
0FC00380
0FC00380
0FC00380
0FC00300
0FC00700
07E00700
07F01E00
03FFFE00
01FFF800
003FE000
ENDCHAR
STARTCHAR 01DC
ENCODING 476
SWIDTH 666 0
DWIDTH 37 0
BBX 33 44 0 0
BITMAP
007E000000
003F000000
001F000000
000F800000
0003C00000
0001C00000
0000E00000
00E0038000
01F007C000
01F007C000
01F007C000
01F007C000
0060010000
0000000000
0000000000
0000000000
0000000000
FFC01FF800
FFC01FF800
0FC001F800
0FC001F800
0FC001F800
0FC001F800
0FC001F800
0FC001F800
0FC001F800
0FC001F800
0FC001F800
0FC001F800
0FC001F800
0FC001F800
0FC001F800
0FC001F800
0FC001F800
0FC001F800
0FC001F800
0FC001F800
07C001F800
07E003F800
07F007F800
03F80DF800
01FFFDFF80
00FFF9FF80
003FC1FF80
ENDCHAR
STARTCHAR 01DD
ENCODING 477
SWIDTH 558 0
DWIDTH 31 0
BBX 27 27 0 0
BITMAP
03FFF000
0FFFFC00
3FE3FE00
7C003F00
70001F80
E0000FC0
E00007C0
E00007E0
000007E0
000003E0
000003E0
000003E0
FFFFFFE0
FFFFFFE0
FFFFFFE0
F80003E0
FC0003E0
FC0003E0
FC0007E0
7C0007C0
7E0007C0
7E000FC0
3F001F80
1FC03F00
0FFFFE00
03FFF800
007FC000
ENDCHAR
STARTCHAR 01DE
ENCODING 478
SWIDTH 612 0
DWIDTH 34 0
BBX 30 50 0 0
BITMAP
0FFFFFC0
0FFFFFC0
00000000
00000000
07C01F00
07C01F00
07C01F00
03C01F00
00000000
00038000
00078000
00078000
00078000
0007C000
000FC000
000FC000
000FC000
000FE000
001FE000
001FE000
001BE000
001BF000
003BF000
0039F000
0031F000
0031F800
0071F800
0070F800
0070F800
0060FC00
00E0FC00
00E07C00
00E07C00
00C07E00
01C07E00
01C07E00
01C03E00
01803F00
03FFFF00
03FFFF00
03FFFF00
03001F80
07001F80
07000F80
07000F80
06000FC0
0E000FC0
FFE0FFFC
FFE0FFFC
FFE0FFFC
ENDCHAR
STARTCHAR 01DF
ENCODING 479
SWIDTH 558 0
DWIDTH 31 0
BBX 27 42 0 0
BITMAP
7FFFFE00
7FFFFE00
7FFFFE00
00000000
00000000
0E003800
1F007C00
1F007C00
1F007C00
1F007C00
06001000
00000000
00000000
00000000
00000000
03FFE000
0FFFFC00
1FE3FE00
3F003F00
3E001F00
3E001F80
7E001F80
00001F80
00001F80
00001F80
00001F80
00007F80
01FFFF80
0FFFFF80
3FFE1F80
7F001F80
7E001F80
FC001F80
FC001F80
FC001F80
F8001F80
FC003F80
FC007F80
7F00FF80
3FFFFBE0
1FFFF1E0
01FF80E0
ENDCHAR
STARTCHAR 01E0
ENCODING 480
SWIDTH 612 0
DWIDTH 34 0
BBX 30 50 0 0
BITMAP
0FFFFFC0
0FFFFFC0
00000000
00030000
000FC000
000FC000
000FC000
00078000
00000000
00038000
00078000
00078000
00078000
0007C000
000FC000
000FC000
000FC000
000FE000
001FE000
001FE000
001BE000
001BF000
003BF000
0039F000
0031F000
0031F800
0071F800
0070F800
0070F800
0060FC00
00E0FC00
00E07C00
00E07C00
00C07E00
01C07E00
01C07E00
01C03E00
01803F00
03FFFF00
03FFFF00
03FFFF00
03001F80
07001F80
07000F80
07000F80
06000FC0
0E000FC0
FFE0FFFC
FFE0FFFC
FFE0FFFC
ENDCHAR
STARTCHAR 01E1
ENCODING 481
SWIDTH 558 0
DWIDTH 31 0
BBX 27 41 0 0
BITMAP
3FFFFF00
3FFFFF00
3FFFFF00
00000000
001E0000
003F0000
003F0000
003F0000
003F0000
000C0000
00000000
00000000
00000000
00000000
03FFE000
0FFFFC00
1FE3FE00
3F003F00
3E001F00
3E001F80
7E001F80
00001F80
00001F80
00001F80
00001F80
00007F80
01FFFF80
0FFFFF80
3FFE1F80
7F001F80
7E001F80
FC001F80
FC001F80
FC001F80
F8001F80
FC003F80
FC007F80
7F00FF80
3FFFFBE0
1FFFF1E0
01FF80E0
ENDCHAR
STARTCHAR 01E2
ENCODING 482
SWIDTH 864 0
DWIDTH 48 0
BBX 44 45 0 0
BITMAP
00001FFFFF80
00001FFFFF80
00001FFFFF80
000000000000
0000FFFFFFF0
0000FFFFFFF0
0000FFFFFFF0
00001FC000F0
00001FC000F0
00003FC00070
000037C00070
000077C00000
000067C00000
0000E7C00000
0000E7C00000
0000C7C00000
0001C7C00000
000187C00000
000387C00000
000387C00000
000707C00000
000707C00000
000607C00000
000E07FFF800
000C07FFF800
001C07FFF800
001C07C00000
003807C00000
003807C00000
003007C00000
007007C00000
007007C00000
00E007C00000
00FFFFC00000
01FFFFC00000
01FFFFC00000
018007C00000
038007C00000
030007C00070
070007C00070
070007C000F0
0E0007C000F0
FFE0FFFFFFF0
FFE0FFFFFFF0
FFE0FFFFFFF0
ENDCHAR
STARTCHAR 01E3
ENCODING 483
SWIDTH 918 0
DWIDTH 51 0
BBX 46 34 0 0
BITMAP
001FFFFF8000
001FFFFF8000
001FFFFF8000
000000000000
000000000000
000000000000
000000000000
03FFC03FFE00
0FFFF0FFFF80
1FE3F9FE3FE0
3F003FF007F0
3E001FE001F8
3E001FC001F8
7E001FC000FC
00001F8000FC
00001F80007C
00001F80007C
00001F80007C
00007F80007C
01FFFFFFFFFC
0FFFFFFFFFFC
3FFE1FFFFFFC
7F001F800000
7E001F800000
FC001F800000
FC001F800000
FC001F80000C
F8001FC0001C
FC003FE0001C
FC007FF0003C
7F00FFFC00F8
3FFFF9FFFFF0
1FFFF0FFFFC0
01FF801FFE00
ENDCHAR
STARTCHAR 01E4
ENCODING 484
SWIDTH 558 0
DWIDTH 31 0
BBX 31 41 0 0
BITMAP
003FC0E0
01FFF8E0
03FFFCE0
07E03EE0
0F801FE0
1F000FE0
1F0007E0
3E0007E0
3E0003E0
7E0003E0
7C0003E0
7C000000
7C000000
FC000000
FC000000
FC000000
FC000000
FC000000
F8000000
F80FFFE0
F80FFFE0
F80FFFE0
F80003E0
FC0003E0
FC0003E0
FC0003E0
FC003FFE
FC003FFE
7C003FFE
7C0003E0
7C0003E0
7E0003E0
3E0007E0
3E0007E0
1F0007C0
1F000FC0
0F801F80
07E03F00
03FFFE00
01FFFC00
003FE000
ENDCHAR
STARTCHAR 01E5
ENCODING 485
SWIDTH 522 0
DWIDTH 29 0
BBX 33 42 -4 -10
BITMAP
00000F8000
00001F8000
00001F8000
0000180000
003FF80000
00FFFC0000
03FDFE0000
03F03F0000
07E01F8000
07C00F8000
0FC00F8000
0FC00FC000
0FC00FC000
0F800FC000
0F800FC000
0FC00FC000
0FC00FC000
0FC00F8000
07C00F8000
07E01F8000
03F03F0000
01FFFE0000
00FFFC0000
00FFF00000
03E0000000
07C0000000
07E0000000
03F8000000
01FFE00000
01FFFF8000
07FFFFE000
1FE007F000
1F8001F000
1F0001F800
FFFFFFFF80
FFFFFFFF80
1F0001F800
1F0001F000
1FC007F000
0FFFFFE000
03FFFFC000
007FFC0000
ENDCHAR
STARTCHAR 01E6
ENCODING 486
SWIDTH 558 0
DWIDTH 31 0
BBX 27 49 0 0
BITMAP
03003000
03C07800
07E1F800
01FBE000
007F8000
001E0000
00000000
00000000
003FC0E0
01FFF8E0
03FFFCE0
07E03EE0
0F801FE0
1F000FE0
1F0007E0
3E0007E0
3E0003E0
7E0003E0
7C0003E0
7C000000
7C000000
FC000000
FC000000
FC000000
FC000000
FC000000
F8000000
F80FFFE0
F80FFFE0
F80FFFE0
F80003E0
FC0003E0
FC0003E0
FC0003E0
FC0003E0
FC0003E0
7C0003E0
7C0003E0
7C0003E0
7E0007E0
3E0007E0
3E0007C0
1F000FC0
1F000FC0
0F801F80
07E07F00
03FFFE00
01FFF800
003FC000
ENDCHAR
STARTCHAR 01E7
ENCODING 487
SWIDTH 486 0
DWIDTH 27 0
BBX 26 49 -1 -11
BITMAP
18018000
1E03C000
3F0FC000
0FDF0000
03FC0000
00F00000
00000000
00007C00
0000FC00
0000FC00
0000C000
01FFC000
07FFE000
1FEFF000
1F81F800
3F00FC00
3E007C00
7E007C00
7E007E00
7E007E00
7C007E00
7C007E00
7E007E00
7E007E00
7E007C00
3E007C00
3F00FC00
1F81F800
0FFFF000
07FFE000
07FF8000
1F000000
3E000000
3F000000
1FC00000
0FFE0000
0FFFF800
3FFFFE00
7F007F00
FC001F80
FC000F80
F8000FC0
F8000FC0
F8000F80
FC001F80
7F003F80
3FFFFF00
1FFFFC00
01FFC000
ENDCHAR
STARTCHAR 01E8
ENCODING 488
SWIDTH 558 0
DWIDTH 31 0
BBX 27 49 0 0
BITMAP
03003000
03C07800
07E1F800
01FBE000
007F8000
001E0000
00000000
00000000
FFF0FFE0
FFF0FFE0
FFF0FFE0
1F801E00
1F801C00
1F803800
1F807800
1F807000
1F80E000
1F81C000
1F83C000
1F838000
1F870000
1F8F0000
1F8E0000
1F9C0000
1FBC0000
1FF80000
1FF80000
1FFC0000
1FFC0000
1FFE0000
1FFE0000
1FFF0000
1FBF0000
1F9F8000
1F9FC000
1F8FC000
1F8FE000
1F87E000
1F87F000
1F83F800
1F81F800
1F81FC00
1F80FC00
1F80FE00
1F807F00
1F807F00
FFF1FFE0
FFF1FFE0
FFF1FFE0
ENDCHAR
STARTCHAR 01E9
ENCODING 489
SWIDTH 576 0
DWIDTH 32 0
BBX 28 49 0 0
BITMAP
03003000
03C07800
07E1F800
01FBE000
007F8000
001E0000
00000000
00000000
FFC00000
FFC00000
FFC00000
0FC00000
0FC00000
0FC00000
0FC00000
0FC00000
0FC00000
0FC00000
0FC00000
0FC00000
0FC00000
0FC00000
0FC0FFF0
0FC0FFF0
0FC00F00
0FC01E00
0FC01C00
0FC03800
0FC07000
0FC0E000
0FC1C000
0FC38000
0FC7C000
0FCFC000
0FDFE000
0FDBE000
0FF1F000
0FE1F000
0FC0F800
0FC0F800
0FC0FC00
0FC07C00
0FC07E00
0FC03E00
0FC03F00
0FC01F00
FFF8FFF0
FFF8FFF0
FFF8FFF0
ENDCHAR
STARTCHAR 01EA
ENCODING 490
SWIDTH 558 0
DWIDTH 31 0
BBX 27 49 0 -8
BITMAP
003FC000
01FFF000
03FFFC00
07E07E00
0F803E00
1F001F00
1F001F80
3E000F80
3E000FC0
7E0007C0
7C0007C0
7C0007C0
7C0007E0
FC0007E0
FC0003E0
FC0003E0
FC0003E0
FC0003E0
F80003E0
F80003E0
F80003E0
F80003E0
F80003E0
FC0003E0
FC0003E0
FC0003E0
FC0003E0
FC0007E0
7C0007E0
7C0007C0
7C0007C0
7E0007C0
3E000FC0
3E000F80
1F001F80
1F001F00
0F803E00
07E07E00
03FFFC00
01FFF000
003FC000
000E0000
001C0000
003C0000
003E0000
003E0000
001F0000
001F8000
000FE000
ENDCHAR
STARTCHAR 01EB
ENCODING 491
SWIDTH 558 0
DWIDTH 31 0
BBX 27 35 0 -8
BITMAP
00FFF000
07FFFC00
0FF1FE00
1F803F00
3F001F80
3E000FC0
7E0007C0
7C0007E0
7C0007E0
FC0003E0
FC0003E0
FC0003E0
F80003E0
F80003E0
F80003E0
FC0003E0
FC0003E0
FC0007E0
7C0007E0
7C0007C0
7E000FC0
3E000FC0
3F001F80
1FC07F00
0FFFFE00
03FFF800
007FC000
000E0000
001C0000
003C0000
003E0000
003E0000
001F0000
001F8000
000FE000
ENDCHAR
STARTCHAR 01EC
ENCODING 492
SWIDTH 558 0
DWIDTH 31 0
BBX 27 53 0 -8
BITMAP
1FFFFF80
1FFFFF80
1FFFFF80
00000000
003FC000
01FFF000
03FFFC00
07E07E00
0F803E00
1F001F00
1F001F80
3E000F80
3E000FC0
7E0007C0
7C0007C0
7C0007C0
7C0007E0
FC0007E0
FC0003E0
FC0003E0
FC0003E0
FC0003E0
F80003E0
F80003E0
F80003E0
F80003E0
F80003E0
FC0003E0
FC0003E0
FC0003E0
FC0003E0
FC0007E0
7C0007E0
7C0007C0
7C0007C0
7E0007C0
3E000FC0
3E000F80
1F001F80
1F001F00
0F803E00
07E07E00
03FFFC00
01FFF000
003FC000
000E0000
001C0000
003C0000
003E0000
003E0000
001F0000
001F8000
000FE000
ENDCHAR
STARTCHAR 01ED
ENCODING 493
SWIDTH 558 0
DWIDTH 31 0
BBX 27 42 0 -8
BITMAP
1FFFFF80
1FFFFF80
1FFFFF80
00000000
00000000
00000000
00000000
00FFF000
07FFFC00
0FF1FE00
1F803F00
3F001F80
3E000FC0
7E0007C0
7C0007E0
7C0007E0
FC0003E0
FC0003E0
FC0003E0
F80003E0
F80003E0
F80003E0
FC0003E0
FC0003E0
FC0007E0
7C0007E0
7C0007C0
7E000FC0
3E000FC0
3F001F80
1FC07F00
0FFFFE00
03FFF800
007FC000
000E0000
001C0000
003C0000
003E0000
003E0000
001F0000
001F8000
000FE000
ENDCHAR
STARTCHAR 01EE
ENCODING 494
SWIDTH 558 0
DWIDTH 31 0
BBX 27 60 0 -11
BITMAP
03003000
03C07800
07E1F800
01FBE000
007F8000
001E0000
00000000
00000000
FFFFFFE0
FFFFFFE0
FFFFFFE0
FFFFFFE0
FFFFFFC0
F0000780
F0000F00
E0001E00
E0003C00
E0007800
0000F000
0001E000
0003C000
00078000
000F0000
001E0000
003C0000
007FE000
00FFF800
01F0FC00
03C03F00
03801F00
00000F80
00000F80
000007C0
000007C0
000007E0
000007E0
000007E0
000003E0
000003E0
000003E0
000003E0
000003E0
000003E0
000003E0
000003E0
000003E0
000003E0
000003E0
000007E0
F80007E0
FC0007C0
FC0007C0
FC000FC0
7C000F80
7E001F80
3F003F00
1FC07E00
0FFFFC00
03FFF000
007FC000
ENDCHAR
STARTCHAR 01EF
ENCODING 495
SWIDTH 558 0
DWIDTH 31 0
BBX 27 49 0 -11
BITMAP
03003000
03C07800
07E1F800
01FBE000
007F8000
001E0000
00000000
00000000
00000000
00000000
00000000
FFFFFFE0
FFFFFFE0
FFFFFFE0
FFFFFFC0
FFFFFF00
F0001E00
F0007C00
E001F000
E003E000
000FC000
001FF000
007FFC00
00F1FF00
03C03F80
03001F80
01000FC0
00000FC0
000007C0
000007E0
000007E0
000003E0
000003E0
000003E0
000003E0
000003E0
000003E0
000003E0
F80003E0
FC0007E0
FC0007E0
FC0007C0
7C000FC0
7E000F80
3F001F80
1FC07F00
0FFFFE00
03FFF800
007FC000
ENDCHAR
STARTCHAR 01F0
ENCODING 496
SWIDTH 324 0
DWIDTH 18 0
BBX 17 49 0 -11
BITMAP
300200
780F00
FE1F80
3F7E00
0FF800
03E000
008000
000000
000000
000000
000000
7FE000
7FE000
07E000
07E000
07E000
07E000
07E000
07E000
07E000
07E000
07E000
07E000
07E000
07E000
07E000
07E000
07E000
07E000
07E000
07E000
07E000
07E000
07E000
07E000
07E000
07E000
07E000
07E000
07E000
07E000
07E000
07E000
07E000
0FC000
1FC000
FF8000
FE0000
F00000
ENDCHAR
STARTCHAR 01F1
ENCODING 497
SWIDTH 1008 0
DWIDTH 56 0
BBX 52 41 0 0
BITMAP
FFFFC003FFFFF0
FFFFF003FFFFF0
FFFFFC03FFFFF0
0FC07E03C003F0
0FC03E03C003E0
0FC01F038007E0
0FC01F838007C0
0FC00F80000FC0
0FC00FC0000F80
0FC007C0001F80
0FC007C0001F00
0FC007C0003F00
0FC007E0003E00
0FC007E0007E00
0FC003E0007C00
0FC003E000FC00
0FC003E000FC00
0FC003E000F800
0FC003E001F800
0FC003E001F000
0FC003E003F000
0FC003E003E000
0FC003E007E000
0FC003E007C000
0FC003E00FC000
0FC003E00F8000
0FC003E01F8000
0FC007E01F0000
0FC007E03F0000
0FC007C03F0000
0FC007C03E0000
0FC007C07E0000
0FC00FC07C0000
0FC00F80FC0000
0FC01F80F80070
0FC01F01F80070
0FC03E01F000F0
0FC07E03F000F0
FFFFFC03FFFFF0
FFFFF003FFFFF0
FFFFC003FFFFF0
ENDCHAR
STARTCHAR 01F2
ENCODING 498
SWIDTH 1008 0
DWIDTH 56 0
BBX 52 41 0 0
BITMAP
FFFFC000000000
FFFFF000000000
FFFFFC00000000
0FC07E00000000
0FC03E00000000
0FC01F00000000
0FC01F80000000
0FC00F80000000
0FC00FC0000000
0FC007C0000000
0FC007C0000000
0FC007C0000000
0FC007E0000000
0FC007E0000000
0FC003E3FFFFF0
0FC003E3FFFFF0
0FC003E3C007F0
0FC003E3C00FE0
0FC003E3800FC0
0FC003E3801FC0
0FC003E0003F80
0FC003E0003F00
0FC003E0007F00
0FC003E000FE00
0FC003E001FC00
0FC003E001FC00
0FC003E003F800
0FC007E007F000
0FC007E007F000
0FC007C00FE000
0FC007C01FC000
0FC007C01FC000
0FC00FC03F8000
0FC00F807F0000
0FC01F807E0070
0FC01F00FE0070
0FC03E01FC00F0
0FC07E01F800F0
FFFFFC03FFFFF0
FFFFF003FFFFF0
FFFFC003FFFFF0
ENDCHAR
STARTCHAR 01F3
ENCODING 499
SWIDTH 1008 0
DWIDTH 56 0
BBX 52 41 0 0
BITMAP
0001FF80000000
0001FF80000000
0001FF80000000
00001F80000000
00001F80000000
00001F80000000
00001F80000000
00001F80000000
00001F80000000
00001F80000000
00001F80000000
00001F80000000
00001F80000000
00001F80000000
03FF1F83FFFFF0
0FFF9F83FFFFF0
1FE3DF83C007F0
3F80FF83C00FE0
3F007F83800FC0
7E003F83801FC0
7C001F80003F80
7C001F80003F00
FC001F80007F00
FC001F8000FE00
FC001F8001FC00
FC001F8001FC00
F8001F8003F800
F8001F8007F000
F8001F8007F000
FC001F800FE000
FC001F801FC000
FC001F801FC000
FC001F803F8000
7C001F807F0000
7E003F807E0070
7E003F80FE0070
3F007F81FC00F0
1F80DF81F800F0
0FFFDFFBFFFFF0
07FF9FFBFFFFF0
01FE1FFBFFFFF0
ENDCHAR
STARTCHAR 01F4
ENCODING 500
SWIDTH 558 0
DWIDTH 31 0
BBX 27 49 0 0
BITMAP
0000FC00
0001F800
0003F000
0003C000
00078000
00070000
000E0000
00000000
003FC0E0
01FFF8E0
03FFFCE0
07E03EE0
0F801FE0
1F000FE0
1F0007E0
3E0007E0
3E0003E0
7E0003E0
7C0003E0
7C000000
7C000000
FC000000
FC000000
FC000000
FC000000
FC000000
F8000000
F80FFFE0
F80FFFE0
F80FFFE0
F80003E0
FC0003E0
FC0003E0
FC0003E0
FC0003E0
FC0003E0
7C0003E0
7C0003E0
7C0003E0
7E0007E0
3E0007E0
3E0007C0
1F000FC0
1F000FC0
0F801F80
07E07F00
03FFFE00
01FFF800
003FC000
ENDCHAR
STARTCHAR 01F5
ENCODING 501
SWIDTH 486 0
DWIDTH 27 0
BBX 26 49 -1 -11
BITMAP
0001F800
0003F000
0007E000
00078000
000F0000
000E0000
001C0000
00007C00
0000FC00
0000FC00
0000C000
01FFC000
07FFE000
1FEFF000
1F81F800
3F00FC00
3E007C00
7E007C00
7E007E00
7E007E00
7C007E00
7C007E00
7E007E00
7E007E00
7E007C00
3E007C00
3F00FC00
1F81F800
0FFFF000
07FFE000
07FF8000
1F000000
3E000000
3F000000
1FC00000
0FFE0000
0FFFF800
3FFFFE00
7F007F00
FC001F80
FC000F80
F8000FC0
F8000FC0
F8000F80
FC001F80
7F003F80
3FFFFF00
1FFFFC00
01FFC000
ENDCHAR
STARTCHAR 01F6
ENCODING 502
SWIDTH 864 0
DWIDTH 48 0
BBX 44 41 0 0
BITMAP
FFFC3FFE0000
FFFC3FFE0000
FFFC3FFE0000
0FC003E00000
0FC003E00000
0FC003E00000
0FC003E00000
0FC003E00000
0FC003E00000
0FC003E00000
0FC003E00000
0FC003E00000
0FC003E00000
0FC003E00000
0FC003E03FF0
0FC003E03FF0
0FC003E003F0
0FC003E003F0
0FC003E003F0
0FFFFFE003F0
0FFFFFE003F0
0FFFFFE003F0
0FC003E003F0
0FC003E003F0
0FC003E003F0
0FC003E003F0
0FC003E003F0
0FC003E003F0
0FC003E003F0
0FC003E003F0
0FC003E003F0
0FC003E003F0
0FC003E003F0
0FC003F003F0
0FC003F003F0
0FC001F003F0
0FC001F803E0
0FC000FC07E0
FFFC00FFFFC0
FFFC003FFF00
FFFC000FF800
ENDCHAR
STARTCHAR 01F7
ENCODING 503
SWIDTH 666 0
DWIDTH 37 0
BBX 33 52 0 -11
BITMAP
FFC1FF8000
FFCFFFF000
FFDFFFF800
0FFC01FC00
0FF000FE00
0FE0007E00
0FE0003F00
0FC0003F00
0FC0001F00
0FC0001F00
0FC0001F80
0FC0001F80
0FC0001F80
0FC0001F80
0FC0001F80
0FC0001F80
0FC0001F80
0FC0001F80
0FC0001F80
0FC0001F00
0FC0001F00
0FC0001F00
0FC0001F00
0FC0003F00
0FC0003E00
0FC0003E00
0FC0007E00
0FC0007C00
0FC0007C00
0FC000F800
0FC001F800
0FC001F000
0FC003F000
0FC007E000
0FC00FC000
0FC01F8000
0FC07E0000
0FC3FC0000
0FFFF00000
0FFF800000
0FF8000000
0FC0000000
0FC0000000
0FC0000000
0FC0000000
0FC0000000
0FC0000000
0FC0000000
0FC0000000
FFFC000000
FFFC000000
FFFC000000
ENDCHAR
STARTCHAR 01F8
ENCODING 504
SWIDTH 612 0
DWIDTH 34 0
BBX 30 49 0 0
BITMAP
03F00000
01F80000
00F80000
007C0000
001E0000
000E0000
00070000
00000000
FFC01FFC
FFC01FFC
FFE01FFC
0FE001C0
0FF001C0
0FF001C0
0FF801C0
0FF801C0
0FFC01C0
0FFC01C0
0EFE01C0
0EFE01C0
0E7F01C0
0E7F01C0
0E3F81C0
0E3F81C0
0E1FC1C0
0E1FC1C0
0E0FC1C0
0E0FE1C0
0E0FE1C0
0E07F1C0
0E07F1C0
0E03F9C0
0E03F9C0
0E01FDC0
0E01FDC0
0E00FFC0
0E00FFC0
0E007FC0
0E007FC0
0E003FC0
0E003FC0
0E003FC0
0E001FC0
0E001FC0
0E000FC0
0E000FC0
FFE007C0
FFE007C0
FFE003C0
ENDCHAR
STARTCHAR 01F9
ENCODING 505
SWIDTH 666 0
DWIDTH 37 0
BBX 33 38 0 0
BITMAP
00FC000000
007E000000
003E000000
001F000000
0007800000
0003800000
0001C00000
0000000000
0000000000
0000000000
0000000000
FFC3FF0000
FFCFFF8000
0FDE3FC000
0FF00FE000
0FE003F000
0FE003F000
0FC001F000
0FC001F000
0FC001F800
0FC001F800
0FC001F800
0FC001F800
0FC001F800
0FC001F800
0FC001F800
0FC001F800
0FC001F800
0FC001F800
0FC001F800
0FC001F800
0FC001F800
0FC001F800
0FC001F800
0FC001F800
FFFC1FFF80
FFFC1FFF80
FFFC1FFF80
ENDCHAR
STARTCHAR 01FA
ENCODING 506
SWIDTH 612 0
DWIDTH 34 0
BBX 30 50 0 0
BITMAP
0003F000
0007E000
00078000
000E0000
00078000
000FE000
000C6000
000CE000
0007C000
00038000
00078000
00078000
00078000
0007C000
000FC000
000FC000
000FC000
000FE000
001FE000
001FE000
001BE000
001BF000
003BF000
0039F000
0031F000
0031F800
0071F800
0070F800
0070F800
0060FC00
00E0FC00
00E07C00
00E07C00
00C07E00
01C07E00
01C07E00
01C03E00
01803F00
03FFFF00
03FFFF00
03FFFF00
03001F80
07001F80
07000F80
07000F80
06000FC0
0E000FC0
FFE0FFFC
FFE0FFFC
FFE0FFFC
ENDCHAR
STARTCHAR 01FB
ENCODING 507
SWIDTH 558 0
DWIDTH 31 0
BBX 27 46 0 0
BITMAP
000FC000
001F8000
003F0000
003C0000
00780000
00700000
00E00000
000E0000
003F0000
003B8000
00318000
00318000
003B8000
001F0000
00040000
00000000
00000000
00000000
00000000
03FFE000
0FFFFC00
1FE3FE00
3F003F00
3E001F00
3E001F80
7E001F80
00001F80
00001F80
00001F80
00001F80
00007F80
01FFFF80
0FFFFF80
3FFE1F80
7F001F80
7E001F80
FC001F80
FC001F80
FC001F80
F8001F80
FC003F80
FC007F80
7F00FF80
3FFFFBE0
1FFFF1E0
01FF80E0
ENDCHAR
STARTCHAR 01FC
ENCODING 508
SWIDTH 828 0
DWIDTH 46 0
BBX 44 49 0 0
BITMAP
000000003F00
000000007E00
00000000FC00
00000000F000
00000001E000
00000001C000
000000038000
000000000000
0000FFFFFFF0
0000FFFFFFF0
0000FFFFFFF0
00001FC000F0
00001FC000F0
00003FC00070
000037C00070
000077C00000
000067C00000
0000E7C00000
0000E7C00000
0000C7C00000
0001C7C00000
000187C00000
000387C00000
000387C00000
000707C00000
000707C00000
000607C00000
000E07FFF800
000C07FFF800
001C07FFF800
001C07C00000
003807C00000
003807C00000
003007C00000
007007C00000
007007C00000
00E007C00000
00FFFFC00000
01FFFFC00000
01FFFFC00000
018007C00000
038007C00000
030007C00070
070007C00070
070007C000F0
0E0007C000F0
FFE0FFFFFFF0
FFE0FFFFFFF0
FFE0FFFFFFF0
ENDCHAR
STARTCHAR 01FD
ENCODING 509
SWIDTH 828 0
DWIDTH 46 0
BBX 46 38 0 0
BITMAP
0000007E0000
000000FC0000
000001F80000
000001E00000
000003C00000
000003800000
000007000000
000000000000
000000000000
000000000000
000000000000
03FFC03FFE00
0FFFF0FFFF80
1FE3F9FE3FE0
3F003FF007F0
3E001FE001F8
3E001FC001F8
7E001FC000FC
00001F8000FC
00001F80007C
00001F80007C
00001F80007C
00007F80007C
01FFFFFFFFFC
0FFFFFFFFFFC
3FFE1FFFFFFC
7F001F800000
7E001F800000
FC001F800000
FC001F800000
FC001F80000C
F8001FC0001C
FC003FE0001C
FC007FF0003C
7F00FFFC00F8
3FFFF9FFFFF0
1FFFF0FFFFC0
01FF801FFE00
ENDCHAR
STARTCHAR 01FE
ENCODING 510
SWIDTH 558 0
DWIDTH 31 0
BBX 27 49 0 0
BITMAP
0000FC00
0001F800
0003F000
0003C000
00078000
00070000
000E0000
00000000
003FC0E0
01FFF1C0
03FFFFC0
07E07F80
0F803F80
1F001F00
1F001F80
3E000F80
3E001FC0
7E003FC0
7C003FC0
7C007FC0
7C0077E0
FC00E7E0
FC01E3E0
FC01C3E0
FC03C3E0
FC0383E0
F80783E0
F80703E0
F80E03E0
F81E03E0
F81C03E0
FC3C03E0
FC3803E0
FC7003E0
FCF003E0
FCE007E0
7DE007E0
7DC007C0
7FC007C0
7F8007C0
3F000FC0
3F000F80
1F001F80
1F001F00
1F803E00
3FE07E00
7BFFFC00
71FFF000
F03FC000
ENDCHAR
STARTCHAR 01FF
ENCODING 511
SWIDTH 558 0
DWIDTH 31 0
BBX 27 38 0 0
BITMAP
0000FC00
0001F800
0003F000
0003C000
00078000
00070000
000E0000
00000000
00000000
00000000
00000000
00FFF1E0
07FFFFC0
0FF1FF80
1F803F00
3F001F80
3E001FC0
7E003FC0
7C007FE0
7C00F7E0
FC01E3E0
FC03C3E0
FC0383E0
F80703E0
F80E03E0
F81C03E0
FC3803E0
FC7803E0
FCF007E0
7DE007E0
7DC007C0
7F800FC0
3F000FC0
3F001F80
1FC07F00
3FFFFE00
7BFFF800
F07FC000
ENDCHAR
STARTCHAR 0200
ENCODING 512
SWIDTH 612 0
DWIDTH 34 0
BBX 30 49 0 0
BITMAP
3F07E000
1F83F000
0F81F000
07C0F800
01E03C00
00E01C00
00700E00
00000000
00038000
00078000
00078000
00078000
0007C000
000FC000
000FC000
000FC000
000FE000
001FE000
001FE000
001BE000
001BF000
003BF000
0039F000
0031F000
0031F800
0071F800
0070F800
0070F800
0060FC00
00E0FC00
00E07C00
00E07C00
00C07E00
01C07E00
01C07E00
01C03E00
01803F00
03FFFF00
03FFFF00
03FFFF00
03001F80
07001F80
07000F80
07000F80
06000FC0
0E000FC0
FFE0FFFC
FFE0FFFC
FFE0FFFC
ENDCHAR
STARTCHAR 0201
ENCODING 513
SWIDTH 558 0
DWIDTH 31 0
BBX 27 38 0 0
BITMAP
7E0FC000
3F07E000
1F03E000
0F81F000
03C07800
01C03800
00E01C00
00000000
00000000
00000000
00000000
03FFE000
0FFFFC00
1FE3FE00
3F003F00
3E001F00
3E001F80
7E001F80
00001F80
00001F80
00001F80
00001F80
00007F80
01FFFF80
0FFFFF80
3FFE1F80
7F001F80
7E001F80
FC001F80
FC001F80
FC001F80
F8001F80
FC003F80
FC007F80
7F00FF80
3FFFFBE0
1FFFF1E0
01FF80E0
ENDCHAR
STARTCHAR 0202
ENCODING 514
SWIDTH 612 0
DWIDTH 34 0
BBX 30 49 0 0
BITMAP
00078000
00FFF800
01FFFE00
03FFFE00
03800F00
07000700
00000000
00000000
00038000
00078000
00078000
00078000
0007C000
000FC000
000FC000
000FC000
000FE000
001FE000
001FE000
001BE000
001BF000
003BF000
0039F000
0031F000
0031F800
0071F800
0070F800
0070F800
0060FC00
00E0FC00
00E07C00
00E07C00
00C07E00
01C07E00
01C07E00
01C03E00
01803F00
03FFFF00
03FFFF00
03FFFF00
03001F80
07001F80
07000F80
07000F80
06000FC0
0E000FC0
FFE0FFFC
FFE0FFFC
FFE0FFFC
ENDCHAR
STARTCHAR 0203
ENCODING 515
SWIDTH 558 0
DWIDTH 31 0
BBX 27 38 0 0
BITMAP
001E0000
03FFE000
07FFF800
0FFFF800
0E003C00
1C001C00
00000000
00000000
00000000
00000000
00000000
03FFE000
0FFFFC00
1FE3FE00
3F003F00
3E001F00
3E001F80
7E001F80
00001F80
00001F80
00001F80
00001F80
00007F80
01FFFF80
0FFFFF80
3FFE1F80
7F001F80
7E001F80
FC001F80
FC001F80
FC001F80
F8001F80
FC003F80
FC007F80
7F00FF80
3FFFFBE0
1FFFF1E0
01FF80E0
ENDCHAR
STARTCHAR 0204
ENCODING 516
SWIDTH 558 0
DWIDTH 31 0
BBX 27 49 0 0
BITMAP
3F07E000
1F83F000
0F81F000
07C0F800
01E03C00
00E01C00
00700E00
00000000
FFFFFFE0
FFFFFFE0
FFFFFFE0
0FC000E0
0FC000E0
0FC000E0
0FC000E0
0FC00000
0FC00000
0FC00000
0FC00000
0FC00000
0FC00000
0FC00000
0FC00000
0FC00000
0FC00000
0FC00000
0FC00000
0FFFF800
0FFFF800
0FFFF800
0FC00000
0FC00000
0FC00000
0FC00000
0FC00000
0FC00000
0FC00000
0FC00000
0FC00000
0FC00000
0FC00000
0FC00000
0FC000E0
0FC000E0
0FC000E0
0FC001E0
FFFFFFE0
FFFFFFE0
FFFFFFE0
ENDCHAR
ENDFONT
